<svg width="144" height="48" viewBox="0 0 144 48" fill="none" xmlns="http://www.w3.org/2000/svg">
<g filter="url(#filter0_d_150_3883)">
<path d="M2 13C2 6.37258 7.37258 1 14 1H130C136.627 1 142 6.37258 142 13V33C142 39.6274 136.627 45 130 45H14C7.37258 45 2 39.6274 2 33V13Z" fill="#0370BE"/>
<path d="M2.5 13C2.5 6.64873 7.64873 1.5 14 1.5H130C136.351 1.5 141.5 6.64873 141.5 13V33C141.5 39.3513 136.351 44.5 130 44.5H14C7.64873 44.5 2.5 39.3513 2.5 33V13Z" stroke="#0370BE"/>
<path d="M30.8334 21.8333V14.8333H33.1667V21.8333H40.1667V24.1666H33.1667V31.1666H30.8334V24.1666H23.8334V21.8333H30.8334Z" fill="white"/>
<path d="M60.5339 28.192C59.4245 28.192 58.4645 27.952 57.6539 27.472C56.8539 26.9813 56.2352 26.304 55.7979 25.44C55.3712 24.5653 55.1579 23.5573 55.1579 22.416C55.1579 21.264 55.3712 20.256 55.7979 19.392C56.2352 18.5173 56.8539 17.8347 57.6539 17.344C58.4645 16.8533 59.4245 16.608 60.5339 16.608C61.8672 16.608 62.9552 16.9387 63.7979 17.6C64.6405 18.2507 65.1739 19.1733 65.3979 20.368H63.2859C63.1365 19.7387 62.8325 19.2427 62.3739 18.88C61.9152 18.5173 61.2965 18.336 60.5179 18.336C59.8139 18.336 59.2059 18.5013 58.6939 18.832C58.1925 19.152 57.8032 19.6213 57.5259 20.24C57.2592 20.848 57.1259 21.5733 57.1259 22.416C57.1259 23.2587 57.2592 23.984 57.5259 24.592C57.8032 25.1893 58.1925 25.6533 58.6939 25.984C59.2059 26.304 59.8139 26.464 60.5179 26.464C61.2965 26.464 61.9152 26.2987 62.3739 25.968C62.8325 25.6267 63.1365 25.1573 63.2859 24.56H65.3979C65.1845 25.6907 64.6512 26.5813 63.7979 27.232C62.9552 27.872 61.8672 28.192 60.5339 28.192ZM69.9006 28.192C69.2393 28.192 68.69 28.08 68.2526 27.856C67.8153 27.632 67.49 27.3333 67.2766 26.96C67.0633 26.5867 66.9566 26.1813 66.9566 25.744C66.9566 25.232 67.0846 24.7893 67.3406 24.416C67.6073 24.0427 67.9966 23.7547 68.5086 23.552C69.0206 23.3387 69.65 23.232 70.3966 23.232H72.4286C72.4286 22.8053 72.37 22.4533 72.2526 22.176C72.1353 21.888 71.954 21.6747 71.7086 21.536C71.4633 21.3973 71.1486 21.328 70.7646 21.328C70.3273 21.328 69.954 21.4293 69.6446 21.632C69.3353 21.824 69.1433 22.1227 69.0686 22.528H67.1806C67.2446 21.952 67.4366 21.4613 67.7566 21.056C68.0766 20.64 68.498 20.32 69.0206 20.096C69.554 19.8613 70.1353 19.744 70.7646 19.744C71.522 19.744 72.1673 19.8773 72.7006 20.144C73.234 20.4 73.6393 20.7733 73.9166 21.264C74.2046 21.744 74.3486 22.3253 74.3486 23.008V28H72.7166L72.5246 26.704C72.418 26.9173 72.2793 27.1147 72.1086 27.296C71.9486 27.4773 71.762 27.6373 71.5486 27.776C71.3353 27.904 71.09 28.0053 70.8126 28.08C70.546 28.1547 70.242 28.192 69.9006 28.192ZM70.3326 26.672C70.642 26.672 70.914 26.6187 71.1486 26.512C71.394 26.3947 71.602 26.2347 71.7726 26.032C71.954 25.8187 72.0926 25.584 72.1886 25.328C72.2846 25.072 72.3486 24.8 72.3806 24.512V24.48H70.6046C70.2313 24.48 69.922 24.528 69.6766 24.624C69.4313 24.7093 69.2553 24.8373 69.1486 25.008C69.042 25.1787 68.9886 25.376 68.9886 25.6C68.9886 25.824 69.042 26.016 69.1486 26.176C69.2553 26.336 69.41 26.4587 69.6126 26.544C69.8153 26.6293 70.0553 26.672 70.3326 26.672ZM79.7791 28C79.2351 28 78.7605 27.9147 78.3551 27.744C77.9605 27.5733 77.6511 27.2907 77.4271 26.896C77.2031 26.5013 77.0911 25.968 77.0911 25.296V21.552H75.7151V19.936H77.0911L77.3151 17.808H79.0111V19.936H81.2031V21.552H79.0111V25.296C79.0111 25.7013 79.0965 25.984 79.2671 26.144C79.4485 26.2933 79.7471 26.368 80.1631 26.368H81.1551V28H79.7791ZM86.5824 28.192C85.7824 28.192 85.0784 28.0213 84.4704 27.68C83.8624 27.328 83.3877 26.8373 83.0464 26.208C82.705 25.5787 82.5344 24.8533 82.5344 24.032C82.5344 23.1787 82.6997 22.432 83.0304 21.792C83.3717 21.152 83.8464 20.6507 84.4544 20.288C85.073 19.9253 85.7877 19.744 86.5984 19.744C87.3877 19.744 88.0757 19.92 88.6624 20.272C89.249 20.624 89.7024 21.0987 90.0224 21.696C90.3424 22.2827 90.5024 22.944 90.5024 23.68C90.5024 23.7867 90.5024 23.904 90.5024 24.032C90.5024 24.16 90.4917 24.2933 90.4704 24.432H83.9104V23.2H88.5664C88.545 22.6133 88.3477 22.1547 87.9744 21.824C87.601 21.4827 87.137 21.312 86.5824 21.312C86.1877 21.312 85.825 21.4027 85.4944 21.584C85.1637 21.7653 84.9024 22.0373 84.7104 22.4C84.5184 22.752 84.4224 23.2 84.4224 23.744V24.208C84.4224 24.7093 84.513 25.1413 84.6944 25.504C84.8864 25.8667 85.1424 26.144 85.4624 26.336C85.793 26.5173 86.161 26.608 86.5664 26.608C87.0144 26.608 87.3824 26.512 87.6704 26.32C87.969 26.128 88.1877 25.872 88.3264 25.552H90.2784C90.129 26.0533 89.8837 26.5067 89.5424 26.912C89.201 27.3067 88.7797 27.6213 88.2784 27.856C87.777 28.08 87.2117 28.192 86.5824 28.192ZM95.5109 31.712C94.7535 31.712 94.0869 31.616 93.5109 31.424C92.9455 31.2427 92.5029 30.96 92.1829 30.576C91.8735 30.2027 91.7189 29.7333 91.7189 29.168C91.7189 28.8373 91.7989 28.512 91.9589 28.192C92.1295 27.8827 92.3802 27.5947 92.7109 27.328C93.0522 27.0507 93.4842 26.8107 94.0069 26.608L94.8549 27.536C94.3429 27.7173 93.9855 27.936 93.7829 28.192C93.5802 28.448 93.4789 28.7093 93.4789 28.976C93.4789 29.2533 93.5642 29.4827 93.7349 29.664C93.9162 29.856 94.1562 30 94.4549 30.096C94.7642 30.192 95.1109 30.24 95.4949 30.24C95.8682 30.24 96.1935 30.1867 96.4709 30.08C96.7482 29.984 96.9615 29.8453 97.1109 29.664C97.2709 29.4827 97.3509 29.264 97.3509 29.008C97.3509 28.688 97.2389 28.4267 97.0149 28.224C96.7909 28.032 96.3482 27.9147 95.6869 27.872C95.1215 27.8293 94.6255 27.7707 94.1989 27.696C93.7722 27.6107 93.4042 27.5147 93.0949 27.408C92.7962 27.3013 92.5402 27.184 92.3269 27.056C92.1135 26.9173 91.9375 26.7787 91.7989 26.64V26.272L93.4789 24.512L94.9029 24.976L93.0149 26.816L93.5109 25.888C93.6175 25.9627 93.7242 26.032 93.8309 26.096C93.9482 26.16 94.0922 26.2187 94.2629 26.272C94.4442 26.3147 94.6789 26.3573 94.9669 26.4C95.2549 26.4427 95.6282 26.4853 96.0869 26.528C96.8015 26.5813 97.3829 26.7093 97.8309 26.912C98.2789 27.1147 98.6095 27.3867 98.8229 27.728C99.0362 28.0693 99.1429 28.48 99.1429 28.96C99.1429 29.4293 99.0095 29.872 98.7429 30.288C98.4869 30.704 98.0922 31.0453 97.5589 31.312C97.0255 31.5787 96.3429 31.712 95.5109 31.712ZM95.5109 25.584C94.8389 25.584 94.2575 25.456 93.7669 25.2C93.2869 24.9333 92.9189 24.5813 92.6629 24.144C92.4069 23.696 92.2789 23.2053 92.2789 22.672C92.2789 22.128 92.4069 21.6373 92.6629 21.2C92.9189 20.7627 93.2869 20.4107 93.7669 20.144C94.2575 19.8773 94.8389 19.744 95.5109 19.744C96.1829 19.744 96.7589 19.8773 97.2389 20.144C97.7189 20.4107 98.0869 20.7627 98.3429 21.2C98.5989 21.6373 98.7269 22.128 98.7269 22.672C98.7269 23.2053 98.5989 23.696 98.3429 24.144C98.0869 24.5813 97.7189 24.9333 97.2389 25.2C96.7589 25.456 96.1829 25.584 95.5109 25.584ZM95.5109 24.096C95.9695 24.096 96.3375 23.9733 96.6149 23.728C96.8922 23.4827 97.0309 23.1307 97.0309 22.672C97.0309 22.2133 96.8922 21.8667 96.6149 21.632C96.3375 21.3867 95.9695 21.264 95.5109 21.264C95.0522 21.264 94.6789 21.3867 94.3909 21.632C94.1029 21.8667 93.9589 22.2133 93.9589 22.672C93.9589 23.1307 94.1029 23.4827 94.3909 23.728C94.6789 23.9733 95.0522 24.096 95.5109 24.096ZM96.8389 21.344L96.4709 19.936H99.7829V21.136L96.8389 21.344ZM104.926 28.192C104.158 28.192 103.464 28.016 102.846 27.664C102.238 27.3013 101.758 26.8053 101.406 26.176C101.064 25.536 100.894 24.8053 100.894 23.984C100.894 23.1413 101.07 22.4053 101.422 21.776C101.774 21.136 102.254 20.64 102.862 20.288C103.48 19.9253 104.174 19.744 104.942 19.744C105.71 19.744 106.398 19.9253 107.006 20.288C107.624 20.64 108.104 21.1307 108.446 21.76C108.798 22.3893 108.974 23.1253 108.974 23.968C108.974 24.8107 108.798 25.5467 108.446 26.176C108.094 26.8053 107.608 27.3013 106.99 27.664C106.382 28.016 105.694 28.192 104.926 28.192ZM104.926 26.544C105.31 26.544 105.656 26.448 105.966 26.256C106.286 26.064 106.542 25.776 106.734 25.392C106.926 25.008 107.022 24.5333 107.022 23.968C107.022 23.4027 106.926 22.9333 106.734 22.56C106.552 22.176 106.302 21.888 105.982 21.696C105.672 21.504 105.326 21.408 104.942 21.408C104.568 21.408 104.222 21.504 103.902 21.696C103.582 21.888 103.326 22.176 103.134 22.56C102.942 22.9333 102.846 23.4027 102.846 23.968C102.846 24.5333 102.942 25.008 103.134 25.392C103.326 25.776 103.576 26.064 103.886 26.256C104.206 26.448 104.552 26.544 104.926 26.544ZM110.853 28V19.936H112.565L112.741 21.44C112.933 21.088 113.173 20.7893 113.461 20.544C113.749 20.288 114.085 20.0907 114.469 19.952C114.864 19.8133 115.296 19.744 115.765 19.744V21.776H115.093C114.773 21.776 114.469 21.8187 114.181 21.904C113.893 21.9787 113.643 22.1067 113.429 22.288C113.227 22.4587 113.067 22.6987 112.949 23.008C112.832 23.3067 112.773 23.6853 112.773 24.144V28H110.853ZM118.189 31.52L120.157 27.104H119.677L116.461 19.936H118.557L120.957 25.408L123.229 19.936H125.261L120.221 31.52H118.189Z" fill="white"/>
</g>
<defs>
<filter id="filter0_d_150_3883" x="0" y="0" width="144" height="48" filterUnits="userSpaceOnUse" color-interpolation-filters="sRGB">
<feFlood flood-opacity="0" result="BackgroundImageFix"/>
<feColorMatrix in="SourceAlpha" type="matrix" values="0 0 0 0 0 0 0 0 0 0 0 0 0 0 0 0 0 0 127 0" result="hardAlpha"/>
<feOffset dy="1"/>
<feGaussianBlur stdDeviation="1"/>
<feColorMatrix type="matrix" values="0 0 0 0 0.101961 0 0 0 0 0.101961 0 0 0 0 0.101961 0 0 0 0.08 0"/>
<feBlend mode="normal" in2="BackgroundImageFix" result="effect1_dropShadow_150_3883"/>
<feBlend mode="normal" in="SourceGraphic" in2="effect1_dropShadow_150_3883" result="shape"/>
</filter>
</defs>
</svg>
