<svg width="28" height="28" viewBox="0 0 28 28" fill="none" xmlns="http://www.w3.org/2000/svg">
<g filter="url(#filter0_d_150_3892)">
<path d="M2 13C2 11.6069 2 10.9103 2.06602 10.3244C2.61451 5.45636 6.45636 1.61451 11.3244 1.06602C11.9103 1 12.6069 1 14 1V1C15.3931 1 16.0897 1 16.6756 1.06602C21.5436 1.61451 25.3855 5.45636 25.934 10.3244C26 10.9103 26 11.6069 26 13V13C26 14.3931 26 15.0897 25.934 15.6756C25.3855 20.5436 21.5436 24.3855 16.6756 24.934C16.0897 25 15.3931 25 14 25V25C12.6069 25 11.9103 25 11.3244 24.934C6.45636 24.3855 2.61451 20.5436 2.06602 15.6756C2 15.0897 2 14.3931 2 13V13Z" fill="#FCFCFC"/>
<path d="M14 24.6111C12.5963 24.6111 11.9267 24.6105 11.3679 24.5475C6.6802 24.0194 2.98064 20.3198 2.45247 15.6321C2.38951 15.0733 2.38889 14.4037 2.38889 13C2.38889 11.5963 2.38951 10.9267 2.45247 10.3679C2.98064 5.6802 6.6802 1.98064 11.3679 1.45247C11.9267 1.38951 12.5963 1.38889 14 1.38889C15.4037 1.38889 16.0733 1.38951 16.6321 1.45247C21.3198 1.98064 25.0194 5.6802 25.5475 10.3679C25.6105 10.9267 25.6111 11.5963 25.6111 13C25.6111 14.4037 25.6105 15.0733 25.5475 15.6321C25.0194 20.3198 21.3198 24.0194 16.6321 24.5475C16.0733 24.6105 15.4037 24.6111 14 24.6111Z" stroke="#E0E0E0" stroke-width="0.777778"/>
<path d="M13.2223 12.2223V7.55566H14.7779V12.2223H19.4446V13.7779H14.7779V18.4446H13.2223V13.7779H8.55566V12.2223H13.2223Z" fill="#424242"/>
</g>
<defs>
<filter id="filter0_d_150_3892" x="0.444444" y="0.222222" width="27.1111" height="27.1111" filterUnits="userSpaceOnUse" color-interpolation-filters="sRGB">
<feFlood flood-opacity="0" result="BackgroundImageFix"/>
<feColorMatrix in="SourceAlpha" type="matrix" values="0 0 0 0 0 0 0 0 0 0 0 0 0 0 0 0 0 0 127 0" result="hardAlpha"/>
<feOffset dy="0.777778"/>
<feGaussianBlur stdDeviation="0.777778"/>
<feColorMatrix type="matrix" values="0 0 0 0 0.101961 0 0 0 0 0.101961 0 0 0 0 0.101961 0 0 0 0.08 0"/>
<feBlend mode="normal" in2="BackgroundImageFix" result="effect1_dropShadow_150_3892"/>
<feBlend mode="normal" in="SourceGraphic" in2="effect1_dropShadow_150_3892" result="shape"/>
</filter>
</defs>
</svg>
