<svg width="222" height="222" viewBox="0 0 222 222" fill="none" xmlns="http://www.w3.org/2000/svg">
<path d="M186.378 50.4162L185.423 48.84C177.387 35.5955 162.85 27.6124 147.532 28.5803C145.56 28.7035 143.6 28.9721 141.667 29.384C127.734 32.3676 115.613 42.9038 110.587 56.3925C107.634 64.3268 106.809 73.4643 101.201 79.7646C93.9015 87.9609 81.5139 88.2006 70.6182 87.8765C59.7224 87.5524 47.3304 87.8277 40.0665 96.055C35.52 101.232 34.0725 108.545 34.441 115.44C35.409 133.715 48.1429 150.072 64.3356 158.175C80.5282 166.278 99.5936 167.024 117.318 163.45C142.147 158.446 165.754 144.704 179.949 123.49C194.143 102.275 197.731 73.3311 186.378 50.4162Z" fill="#EBEBEB"/>
<path d="M58.4973 64.6377C68.2593 64.6377 76.1729 56.724 76.1729 46.962C76.1729 37.2 68.2593 29.2864 58.4973 29.2864C48.7353 29.2864 40.8217 37.2 40.8217 46.962C40.8217 56.724 48.7353 64.6377 58.4973 64.6377Z" fill="#EBEBEB"/>
<path d="M31.213 180.313C31.0287 179.613 30.9868 178.884 31.0898 178.168C31.1927 177.451 31.4385 176.763 31.8124 176.144C32.5722 174.908 33.6051 173.863 34.8316 173.089C37.1538 171.531 40.3106 170.914 43.0989 170.771C43.059 173.879 40.6969 176.592 39.4137 177.875C37.3802 179.936 32.4607 182.422 31.213 180.295" fill="#D4E068"/>
<path d="M44.8438 165.732C44.3431 166.368 43.6828 166.86 42.9302 167.158C42.1776 167.456 41.3595 167.549 40.5592 167.428C39.7593 167.297 38.9937 167.007 38.3075 166.575C37.6213 166.143 37.0282 165.579 36.5632 164.915C36.1192 164.311 35.7684 163.561 35.9594 162.837C36.0687 162.505 36.2652 162.208 36.5284 161.978C36.7916 161.747 37.1118 161.592 37.4556 161.527C38.1463 161.404 38.8575 161.466 39.5158 161.709C41.7935 162.429 43.8714 163.543 44.8438 165.732Z" fill="#D4E068"/>
<path d="M53.2799 162.504C53.1262 162.62 52.9628 162.722 52.7915 162.81L51.4328 163.596C49.9456 164.509 48.3202 165.175 46.6199 165.568C44.9109 165.943 43.1325 165.854 41.4695 165.31C40.9705 165.139 40.4935 164.91 40.0487 164.626C39.8888 164.529 39.7778 164.435 39.6979 164.378C39.618 164.32 39.5825 164.284 39.5869 164.28C40.199 164.637 40.8444 164.935 41.5139 165.168C43.1596 165.656 44.9015 165.723 46.5799 165.363C48.2506 164.965 49.853 164.322 51.3352 163.454C51.9168 163.148 52.3919 162.895 52.7204 162.73C52.8991 162.637 53.0865 162.561 53.2799 162.504Z" fill="#172D4B"/>
<path d="M34.7963 178.088C34.8453 178.02 34.9019 177.958 34.965 177.902C35.1026 177.778 35.2713 177.613 35.4845 177.409C35.9285 176.965 36.5989 176.37 37.4203 175.633C39.072 174.137 41.3763 172.081 43.9737 169.914C46.5711 167.748 48.9643 165.794 50.7181 164.427C51.6061 163.738 52.3076 163.188 52.8093 162.815L53.3821 162.371C53.4487 162.318 53.5201 162.272 53.5952 162.233C53.5403 162.298 53.4777 162.356 53.4087 162.406L52.8582 162.85L50.8069 164.511C49.0797 165.909 46.6999 167.854 44.1025 170.043C41.5051 172.232 39.1874 174.248 37.518 175.713L35.52 177.467L34.9783 177.933C34.9221 177.99 34.8612 178.042 34.7963 178.088Z" fill="#172D4B"/>
<path d="M48.7381 167.721C47.6395 169.026 46.8675 170.573 46.486 172.236C46.1046 173.898 46.1247 175.627 46.5447 177.28C46.7667 178.12 47.2418 179.056 48.0987 179.167C48.9557 179.278 49.6616 178.493 50.0745 177.729C50.906 176.12 51.2426 174.301 51.0419 172.501C50.8412 170.701 50.1122 169.001 48.9468 167.615" fill="#D4E068"/>
<path d="M48.3071 175.287C48.2362 175.119 48.1827 174.945 48.1472 174.767C48.0904 174.563 48.0459 174.355 48.014 174.146C47.9785 173.901 47.9119 173.626 47.8897 173.315C47.8511 172.976 47.8319 172.635 47.832 172.294C47.8223 171.903 47.8342 171.512 47.8675 171.122C47.9502 170.227 48.1334 169.343 48.4136 168.489C48.7108 167.639 49.104 166.826 49.5858 166.065C49.7962 165.735 50.0276 165.419 50.2784 165.119C50.4894 164.851 50.7162 164.596 50.9578 164.355C51.1529 164.152 51.3589 163.959 51.5749 163.778C51.7296 163.635 51.8943 163.503 52.0678 163.383C52.2042 163.266 52.3531 163.165 52.5118 163.081C52.5428 163.117 51.9035 163.556 51.0554 164.453C50.824 164.697 50.6061 164.953 50.4028 165.221C50.1648 165.525 49.9425 165.84 49.7368 166.167C49.2728 166.919 48.8931 167.72 48.6046 168.556C48.328 169.395 48.1419 170.261 48.0496 171.14C48.0185 171.544 47.9874 171.93 47.9963 172.294C47.9894 172.63 48.0013 172.967 48.0318 173.302C48.1384 174.532 48.347 175.278 48.3071 175.287Z" fill="#172D4B"/>
<path d="M57.3915 154.383C63.1191 146.493 61.4497 136.108 58.1063 127.406C57.5469 125.954 57.174 124.347 56.0284 123.299C54.8829 122.251 52.9471 121.936 51.846 123.01C50.9313 123.898 50.8958 125.332 50.6472 126.593C50.3158 128.276 49.5154 129.831 48.3384 131.078C47.5702 131.886 46.5135 132.587 45.4124 132.41C43.9028 132.148 43.148 130.447 42.6507 128.982L39.8802 120.768C39.3829 119.303 38.8723 117.811 37.9354 116.581C36.9986 115.351 35.5512 114.41 34.0282 114.499C32.5053 114.588 31.0579 115.986 31.2577 117.518C31.4128 118.142 31.6101 118.755 31.8482 119.352C32.0169 119.973 31.9636 120.746 31.4486 121.128C30.9336 121.51 30.1965 121.288 29.6104 121.008C27.5902 120.053 25.9119 118.508 24.2824 116.95C22.653 115.391 21.0723 113.771 19.1454 112.638C17.2184 111.506 14.8874 110.862 12.7518 111.484C10.6161 112.106 8.83567 114.148 9.01771 116.368C9.19975 118.588 11.1223 120.289 13.0137 121.505C15.8126 123.317 18.8589 124.713 22.058 125.652C22.6521 125.757 23.1976 126.048 23.6164 126.482C24.2736 127.348 23.683 128.636 22.8306 129.288C21.8671 130.025 20.6461 130.323 19.5538 130.851C18.4616 131.38 17.4004 132.308 17.3338 133.515C17.2539 135.22 19.0432 136.352 20.6283 136.952C23.8015 138.156 27.1584 138.805 30.5517 138.87C31.7638 138.892 33.0159 138.843 34.1437 139.314C35.2714 139.785 36.2482 140.903 36.0795 142.111C35.9108 143.319 34.6809 144.118 33.4821 144.3C32.2833 144.482 31.0668 144.216 29.8502 144.185C27.5814 144.118 25.0328 145.157 24.349 147.337C23.905 148.771 24.349 150.383 25.2681 151.599C26.223 152.769 27.402 153.737 28.7358 154.445C33.2418 157.169 38.3898 158.647 43.6542 158.73C48.8712 158.73 53.3422 157.678 57.3871 154.383" fill="#4F9CD4"/>
<path d="M57.7558 157.034C56.2329 153.655 56.0508 153.637 53.2092 149.65C50.0892 145.358 46.7255 141.249 43.1349 137.343L40.3288 134.257C39.4053 133.244 38.4906 132.241 37.5316 131.313C35.693 129.538 33.7571 127.865 31.7329 126.305C29.8104 124.8 27.9323 123.445 26.1652 122.189C24.3981 120.932 22.7242 119.8 21.1569 118.828C18.6911 117.282 16.1063 115.936 13.4268 114.801C12.4811 114.401 11.7396 114.113 11.229 113.913L10.6518 113.7L10.452 113.637C10.5127 113.673 10.5767 113.703 10.6429 113.726L11.2113 113.966C11.7085 114.17 12.4456 114.477 13.3869 114.894C16.042 116.066 18.6052 117.436 21.0547 118.992C22.6087 119.973 24.2693 121.114 26.032 122.375C27.7947 123.636 29.6595 124.999 31.5731 126.505C33.5862 128.065 35.5131 129.734 37.3451 131.504C38.2953 132.428 39.201 133.422 40.1245 134.439L42.9306 137.547C46.5135 141.443 49.8754 145.538 53.0005 149.81C55.8466 153.779 56.0375 153.771 57.5782 157.127" fill="#172D4B"/>
<path d="M37.4515 131.331C37.4503 131.104 37.4265 130.878 37.3805 130.656C37.3183 130.212 37.2029 129.604 37.0563 128.84C36.7589 127.317 36.2793 125.221 35.7243 122.912C35.1693 120.604 34.7342 118.508 34.4634 116.981C34.3257 116.217 34.2192 115.6 34.1526 115.169C34.1287 114.945 34.0826 114.723 34.0149 114.508C33.9974 114.733 34.0064 114.959 34.0416 115.182C34.0771 115.626 34.1526 116.244 34.2636 117.012C34.4856 118.552 34.9074 120.666 35.4491 122.975C35.9907 125.283 36.4747 127.313 36.8477 128.884C37.0075 129.595 37.1451 130.216 37.2561 130.66C37.2972 130.89 37.3627 131.115 37.4515 131.331Z" fill="#172D4B"/>
<path d="M17.4451 134.314C17.7084 134.281 17.9684 134.224 18.2221 134.146C18.7193 134.021 19.4386 133.839 20.3355 133.64C22.1115 133.231 24.6068 132.752 27.3729 132.343C30.139 131.935 32.6609 131.682 34.4769 131.548C35.3915 131.473 36.133 131.433 36.6436 131.402C36.9101 131.402 37.1761 131.378 37.4384 131.331C37.1741 131.289 36.9062 131.276 36.6392 131.291C36.1241 131.291 35.3782 131.291 34.4636 131.344C32.6254 131.428 30.0902 131.655 27.3152 132.059C24.9456 132.399 22.5952 132.861 20.2733 133.444C19.3853 133.666 18.6705 133.888 18.1777 134.039C17.9253 134.108 17.6801 134.2 17.4451 134.314Z" fill="#172D4B"/>
<path d="M52.8585 149.384C52.8868 149.295 52.9032 149.202 52.9074 149.109C52.934 148.895 52.9607 148.633 52.9962 148.318C53.0672 147.63 53.1471 146.635 53.2271 145.401C53.3869 142.932 53.5068 139.518 53.5823 135.753C53.6577 131.988 53.7465 128.569 53.8575 126.105C53.9153 124.902 53.9641 123.916 53.9996 123.183C53.9996 122.864 53.9996 122.602 54.0307 122.389C54.0461 122.296 54.0461 122.201 54.0307 122.109C54.0025 122.198 53.986 122.291 53.9819 122.384C53.9819 122.597 53.933 122.855 53.8975 123.174C53.8265 123.858 53.7465 124.857 53.6666 126.092C53.5023 128.556 53.3869 131.97 53.307 135.744C53.2271 139.518 53.1427 142.924 53.0361 145.388C52.9784 146.587 52.9296 147.577 52.8941 148.309C52.8941 148.629 52.8941 148.891 52.863 149.104C52.8509 149.197 52.8494 149.291 52.8585 149.384Z" fill="#172D4B"/>
<path d="M25.0995 149.97C25.1939 149.981 25.2892 149.981 25.3836 149.97H26.1962L29.1665 149.912C31.6796 149.863 35.1472 149.837 38.9834 149.81C42.8195 149.783 46.2916 149.726 48.8002 149.628C50.0567 149.579 51.0735 149.526 51.7706 149.477L52.5786 149.415C52.6732 149.413 52.7671 149.4 52.8584 149.375C52.7639 149.364 52.6686 149.364 52.5742 149.375H51.7661L48.7913 149.433C46.2827 149.481 42.8106 149.508 38.9789 149.535C35.1472 149.561 31.6707 149.615 29.1621 149.717C27.9056 149.766 26.8888 149.814 26.1873 149.868L25.3836 149.925C25.2871 149.925 25.1912 149.94 25.0995 149.97Z" fill="#172D4B"/>
<path d="M102.768 26.7822C103.176 26.6967 103.553 26.5019 103.858 26.2186C104.164 25.9353 104.386 25.5742 104.502 25.1741C104.618 24.7739 104.623 24.3498 104.516 23.9471C104.409 23.5445 104.195 23.1784 103.896 22.8883C104.082 22.79 104.246 22.6562 104.38 22.4943C104.514 22.3325 104.615 22.1459 104.677 21.9451C104.739 21.7443 104.76 21.5333 104.741 21.3241C104.721 21.115 104.66 20.9117 104.562 20.726C104.464 20.5403 104.33 20.3758 104.168 20.2418C104.006 20.1078 103.82 20.007 103.619 19.9452C103.418 19.8833 103.207 19.8616 102.998 19.8813C102.789 19.9011 102.585 19.9618 102.4 20.06C102.442 19.7066 102.382 19.3485 102.228 19.0279C102.073 18.7074 101.83 18.4378 101.527 18.2511C101.224 18.0643 100.873 17.9682 100.518 17.974C100.162 17.9799 99.8149 18.0874 99.5182 18.284C99.2203 18.0334 98.8618 17.8655 98.4786 17.7972C98.0954 17.7288 97.7009 17.7625 97.3348 17.8947C96.9687 18.0269 96.6438 18.2531 96.3926 18.5506C96.1415 18.848 95.973 19.2063 95.904 19.5894C95.7163 19.2415 95.4219 18.963 95.0641 18.7949C94.7063 18.6268 94.304 18.5779 93.9164 18.6555C93.5288 18.733 93.1762 18.9328 92.9106 19.2256C92.645 19.5184 92.4804 19.8887 92.4408 20.282C91.6994 20.0644 90.8202 19.878 90.2208 20.3664C89.6214 20.8548 89.6303 21.6495 89.6481 22.3732C89.6371 23.2308 89.7205 24.0869 89.8967 24.9262C90.2194 26.2216 90.9744 27.3681 92.0368 28.1763C92.5499 28.7127 93.2226 29.0691 93.9547 29.1923C94.6867 29.3155 95.4389 29.199 96.0994 28.8601" fill="#263238"/>
<path d="M103.696 29.7479C103.936 29.5889 104.139 29.381 104.293 29.138C104.446 28.8949 104.547 28.6222 104.588 28.3375C104.629 28.0529 104.609 27.7629 104.53 27.4863C104.451 27.2098 104.315 26.9531 104.13 26.7329C103.945 26.5127 103.716 26.3341 103.457 26.2087C103.198 26.0832 102.916 26.0139 102.629 26.0051C102.341 25.9963 102.055 26.0483 101.789 26.1577C101.523 26.2671 101.283 26.4315 101.085 26.6399C100.863 26.8575 100.641 27.1417 100.339 27.1594C100.038 27.1772 99.8066 26.9507 99.558 26.7865C99.2381 26.5746 98.8643 26.4586 98.4806 26.4523C98.097 26.4459 97.7195 26.5494 97.3928 26.7506C97.066 26.9518 96.8037 27.2422 96.6366 27.5876C96.4696 27.9331 96.4048 28.3191 96.45 28.7001C95.4243 28.2561 94.0035 28.3893 93.4841 29.375C93.0401 30.263 93.5551 31.4041 94.4076 31.9102C95.304 32.3542 96.324 32.4825 97.3025 32.2743C99.6587 31.9276 101.85 30.8606 103.576 29.2196" fill="#D4E068"/>
<path d="M97.3159 29.7924C97.2937 29.8501 96.9563 29.7169 96.7077 29.3706C96.459 29.0243 96.4501 28.6602 96.5123 28.6513C96.5745 28.6424 96.681 28.9355 96.8986 29.233C97.1161 29.5304 97.3515 29.748 97.3159 29.7924Z" fill="white"/>
<path d="M100.957 29.5349C100.89 29.5349 100.957 29.0288 100.775 28.4471C100.593 27.8655 100.331 27.457 100.397 27.4126C100.718 27.6469 100.935 27.9975 101.001 28.3894C101.138 28.7621 101.122 29.174 100.957 29.5349Z" fill="white"/>
<path d="M102.915 29.0553C102.848 29.0553 102.977 28.5447 102.861 27.9497C102.746 27.3548 102.462 26.9419 102.515 26.8975C102.814 27.1604 103.016 27.516 103.088 27.9073C103.16 28.2986 103.099 28.7029 102.915 29.0553Z" fill="white"/>
<path d="M95.8595 31.0443C95.8595 31.071 95.6996 31.071 95.4732 30.9777C95.1803 30.8464 94.93 30.636 94.7503 30.37C94.5707 30.1041 94.4689 29.7932 94.4564 29.4726C94.4564 29.2284 94.5097 29.0818 94.5363 29.0863C94.6076 29.4904 94.744 29.8803 94.9404 30.2407C95.3178 30.8046 95.9039 30.9822 95.8595 31.0443Z" fill="white"/>
<path d="M116.772 52.7782C117.526 52.5325 118.162 52.0176 118.56 51.3321C118.958 50.6465 119.09 49.8383 118.93 49.0619C119.364 48.7597 119.733 48.3717 120.012 47.9217C120.291 47.4717 120.475 46.9694 120.552 46.4456C120.629 45.9218 120.599 45.3877 120.462 44.8763C120.325 44.3649 120.084 43.8869 119.755 43.4719C120.171 43.1157 120.469 42.643 120.612 42.1152C120.756 41.5873 120.737 41.0286 120.559 40.5114C120.381 39.9942 120.052 39.5424 119.614 39.2145C119.176 38.8866 118.65 38.6977 118.104 38.6723C118.336 38.0647 118.403 37.4068 118.3 36.7648C118.196 36.1228 117.925 35.5195 117.514 35.0156C117.103 34.5118 116.566 34.1252 115.958 33.8949C115.35 33.6646 114.692 33.5988 114.05 33.7039C114.152 33.0524 114.061 32.3854 113.789 31.7847C113.517 31.1841 113.075 30.6762 112.518 30.3234C111.961 29.9705 111.313 29.7882 110.653 29.7987C109.994 29.8093 109.352 30.0123 108.806 30.3828C107.146 28.1406 103.336 28.003 101.525 30.1253C99.4158 28.8377 96.2768 29.8012 95.2511 32.0478C93.8747 30.7647 91.4727 31.222 90.2206 32.6295C88.9685 34.0369 88.671 36.0616 88.822 37.9575C88.3229 38.1883 87.894 38.5474 87.5791 38.9982C87.2642 39.4489 87.0744 39.9751 87.0293 40.5232C86.9841 41.0712 87.0852 41.6214 87.3221 42.1176C87.5591 42.6138 87.9234 43.0382 88.378 43.3476C86.6375 45.5099 87.1082 49.093 89.3504 50.7269C89.1972 51.9292 89.4024 53.1499 89.9403 54.236C90.4782 55.3221 91.3248 56.2251 92.374 56.8319" fill="#263238"/>
<path d="M94.5409 41.918L93.755 39.698L107.643 37.478C111.915 37.1539 116.39 41.5584 116.523 45.8386C116.683 50.5938 116.688 56.4058 116.022 59.9311C114.69 67.0351 109.193 67.7677 109.193 67.7677L108.749 78.9521L93.0535 78.326L94.5409 41.918Z" fill="#FFBE9D"/>
<path d="M113.952 50.505C113.945 50.738 113.848 50.9594 113.684 51.1243C113.519 51.2892 113.297 51.3852 113.064 51.393C112.83 51.4002 112.603 51.3147 112.432 51.155C112.26 50.9954 112.159 50.7745 112.15 50.5405C112.156 50.3071 112.252 50.0851 112.417 49.92C112.582 49.7549 112.804 49.6592 113.038 49.6525C113.272 49.6453 113.499 49.7308 113.67 49.8905C113.842 50.0502 113.943 50.271 113.952 50.505Z" fill="#263238"/>
<path d="M114.938 48.7956C114.823 48.911 114.148 48.3782 113.162 48.3516C112.177 48.325 111.444 48.7956 111.342 48.6713C111.293 48.6136 111.413 48.4049 111.733 48.1829C112.168 47.902 112.68 47.7611 113.198 47.7788C113.708 47.7922 114.201 47.9679 114.605 48.2806C114.903 48.5248 114.996 48.7468 114.938 48.7956Z" fill="#263238"/>
<path d="M104.246 49.9898C104.24 50.2232 104.144 50.4452 103.979 50.6103C103.814 50.7754 103.592 50.8711 103.358 50.8778C103.125 50.8851 102.898 50.8001 102.727 50.6414C102.556 50.4827 102.454 50.263 102.444 50.0298C102.451 49.7964 102.546 49.5744 102.711 49.4093C102.876 49.2442 103.098 49.1485 103.332 49.1418C103.565 49.1346 103.792 49.2195 103.963 49.3782C104.134 49.5369 104.236 49.7566 104.246 49.9898Z" fill="#263238"/>
<path d="M105.055 48.6756C104.939 48.791 104.26 48.2582 103.279 48.2316C102.297 48.2049 101.56 48.6756 101.458 48.5512C101.405 48.498 101.525 48.2848 101.849 48.0673C102.282 47.7844 102.793 47.6432 103.31 47.6632C103.822 47.6766 104.316 47.8523 104.722 48.165C105.015 48.3958 105.112 48.6223 105.055 48.6756Z" fill="#263238"/>
<path d="M108.624 56.0907C109.148 55.9436 109.688 55.863 110.232 55.8509C110.48 55.8509 110.72 55.7887 110.769 55.62C110.794 55.361 110.743 55.1001 110.622 54.8697L109.934 52.9383C108.984 50.1855 108.305 47.9255 108.416 47.8855C108.527 47.8456 109.388 50.0523 110.338 52.8006L111 54.7453C111.148 55.0536 111.183 55.4042 111.097 55.7355C111.056 55.8253 110.995 55.9043 110.918 55.966C110.841 56.0277 110.75 56.0704 110.653 56.0907C110.508 56.1248 110.359 56.1397 110.209 56.1351C109.681 56.188 109.149 56.1731 108.624 56.0907Z" fill="#263238"/>
<path d="M109.224 67.7635C105.79 67.716 102.434 66.7319 99.5183 64.9175C99.5183 64.9175 101.778 69.9746 109.171 69.5395L109.224 67.7635Z" fill="#EB996E"/>
<path d="M104.713 43.5119C104.659 43.7917 103.669 43.8227 102.555 44.1469C101.44 44.471 100.566 44.9283 100.375 44.7152C100.29 44.6131 100.41 44.3378 100.739 44.0225C101.122 43.5492 101.678 43.2474 102.284 43.1834C102.861 43.0151 103.471 42.9892 104.06 43.1079C104.491 43.21 104.735 43.3832 104.713 43.5119Z" fill="#263238"/>
<path d="M114.916 45.701C114.725 45.9097 114.068 45.6255 113.255 45.5545C112.443 45.4834 111.746 45.5855 111.604 45.3413C111.546 45.2215 111.67 45.0083 111.985 44.8219C112.406 44.5906 112.89 44.4989 113.366 44.5599C113.842 44.6068 114.291 44.7991 114.654 45.1105C114.925 45.3635 114.996 45.5989 114.916 45.701Z" fill="#263238"/>
<path d="M101.645 37.3405C101.787 37.9172 102.074 38.4477 102.48 38.8811C102.688 39.0901 102.967 39.215 103.261 39.2322C103.556 39.2494 103.847 39.1576 104.078 38.9744C104.239 39.1468 104.436 39.2812 104.656 39.3677C104.875 39.4543 105.111 39.4908 105.346 39.4746C105.581 39.4585 105.81 39.39 106.015 39.2743C106.221 39.1586 106.398 38.9985 106.534 38.8057C106.88 39.1278 107.323 39.3274 107.793 39.3739C108.264 39.4204 108.737 39.3113 109.14 39.0632L111.262 39.5072C112.03 39.6759 112.989 39.778 113.46 39.1475C113.571 39.0055 113.651 38.819 113.815 38.7435C113.994 38.6948 114.183 38.6948 114.361 38.7435C114.669 38.7623 114.976 38.7034 115.254 38.5723C115.533 38.4411 115.774 38.242 115.955 37.9931C116.311 37.4916 116.578 36.933 116.746 36.3415C117.056 35.4535 117.301 34.2991 116.572 33.6775C116.269 33.4638 115.919 33.3253 115.551 33.2734C114.831 33.0636 114.075 33.0061 113.331 33.1047C112.424 33.357 111.636 33.9255 111.111 34.7075C111.187 34.4636 111.166 34.1999 111.053 33.9709C110.94 33.7419 110.743 33.5653 110.503 33.4777C110.009 33.3238 109.474 33.3717 109.016 33.6109C108.327 33.9263 107.745 34.4355 107.342 35.0761C106.745 35.0759 106.16 35.242 105.653 35.5557C105.145 35.8694 104.735 36.3183 104.469 36.8521C104.202 36.676 103.903 36.556 103.588 36.4995C103.274 36.443 102.951 36.4512 102.64 36.5235C102.529 36.5412 102.424 36.581 102.329 36.6405C102.234 36.7 102.153 36.778 102.089 36.8698C102.061 36.9166 102.043 36.969 102.037 37.0233C102.032 37.0777 102.038 37.1326 102.056 37.1843C102.073 37.236 102.102 37.2831 102.14 37.3224C102.178 37.3616 102.225 37.3921 102.276 37.4115" fill="#263238"/>
<path d="M108.518 37.7667C108.331 38.2432 108.304 38.7678 108.442 39.2608C108.58 39.7538 108.875 40.1884 109.282 40.4987C109.689 40.809 110.187 40.9781 110.699 40.9802C111.211 40.9824 111.709 40.8175 112.119 40.5106C112.293 40.9945 112.633 41.4009 113.078 41.6571C113.524 41.9133 114.047 42.0027 114.552 41.9092C114.547 42.5183 114.706 43.1177 115.012 43.6442C115.318 44.1708 115.76 44.6052 116.293 44.9018C116.032 45.5207 116.014 46.2153 116.244 46.8465C116.308 47.0502 116.412 47.2391 116.55 47.4023C116.688 47.5654 116.857 47.6994 117.047 47.7967C117.286 47.881 117.539 47.9155 117.791 47.8979C118.043 47.8803 118.288 47.8111 118.513 47.6945C118.848 47.5674 119.155 47.3731 119.413 47.1234C119.671 46.8738 119.875 46.5741 120.013 46.2427C120.138 45.9054 120.138 45.5348 120.015 45.1972C119.891 44.8596 119.651 44.577 119.338 44.4001C119.96 43.8346 120.448 43.1387 120.768 42.3621C120.878 42.1495 120.945 41.9173 120.965 41.6788C120.984 41.4403 120.957 41.2002 120.884 40.9724C120.841 40.8627 120.775 40.7636 120.69 40.6824C120.605 40.6011 120.503 40.5397 120.392 40.5024C120.28 40.465 120.162 40.4528 120.045 40.4665C119.928 40.4802 119.816 40.5195 119.716 40.5817C119.903 40.2343 119.988 39.8412 119.961 39.4476C119.935 39.054 119.797 38.676 119.565 38.3569C119.334 38.0378 119.016 37.7906 118.65 37.6438C118.284 37.497 117.884 37.4565 117.496 37.5269C117.491 37.1949 117.391 36.8714 117.208 36.5943C117.025 36.3173 116.766 36.0985 116.463 35.9636C116.159 35.8287 115.824 35.7834 115.495 35.833C115.167 35.8827 114.86 36.0252 114.61 36.2438" fill="#263238"/>
<path d="M100.002 36.9675C100.069 36.0795 99.243 35.3735 98.3861 35.2536C97.5162 35.2023 96.6507 35.4109 95.8997 35.853C95.4928 35.3817 94.9511 35.0465 94.3478 34.8925C93.7444 34.7385 93.1084 34.7731 92.5253 34.9917C91.3754 35.4357 90.6383 36.5501 89.6882 37.3449C89.1428 37.7103 88.6587 38.1599 88.254 38.6769C87.9077 39.2319 87.9166 40.0932 88.4805 40.4262C88.1041 40.5577 87.7701 40.7881 87.5135 41.0932C87.2569 41.3984 87.0872 41.767 87.0222 42.1604C86.9573 42.5537 86.9994 42.9573 87.1443 43.3288C87.2892 43.7002 87.5314 44.0258 87.8456 44.2713C88.0454 44.4267 88.2896 44.5643 88.3695 44.8041C88.4151 45.0126 88.3934 45.2303 88.3073 45.4257C87.9699 46.3803 87.446 47.2727 87.2417 48.2628C87.0375 49.2529 87.2417 50.4384 88.0986 50.9934C88.3206 51.1399 88.5959 51.2554 88.698 51.504C88.7536 51.6712 88.7536 51.8519 88.698 52.0191C88.5059 52.5649 88.2652 53.0924 87.9788 53.5953C87.6914 54.1013 87.5968 54.6943 87.7124 55.2647C87.7846 55.5461 87.9652 55.7875 88.2147 55.9364C88.4642 56.0853 88.7624 56.1295 89.0444 56.0595C88.667 57.1517 88.6936 58.4526 89.3996 59.3628C90.1055 60.273 92.4499 60.6948 93.8396 59.8423L93.9683 56.5789C93.7818 56.0062 94.6743 52.947 94.3058 52.3254C94.3058 52.3254 93.3245 54.4477 95.5312 54.1014C96.246 54.2968 97.6224 52.1922 97.7201 51.4374C97.7435 51.0652 97.6613 50.694 97.483 50.3664C97.3047 50.0389 97.0375 49.7683 96.7123 49.5859C97.3253 49.0978 97.7475 48.4098 97.9049 47.6421C98.0623 46.8744 97.9451 46.0757 97.5736 45.3857C97.977 45.3406 98.3529 45.1586 98.6385 44.8701C98.9241 44.5816 99.1022 44.204 99.1432 43.8001C99.1842 43.3962 99.0856 42.9905 98.8639 42.6505C98.6421 42.3104 98.3105 42.0567 97.9244 41.9314C98.419 41.7858 98.8773 41.5376 99.2697 41.2031C99.662 40.8686 99.9795 40.4553 100.201 39.9899C100.423 39.5246 100.545 39.0177 100.558 38.5023C100.571 37.9869 100.476 37.4746 100.278 36.9985" fill="#263238"/>
<path d="M89.346 37.6112C89.346 37.6112 89.2395 37.6734 89.1018 37.8554C88.8536 38.2138 88.7359 38.6464 88.7682 39.0812C88.8005 39.5159 88.981 39.9264 89.2795 40.2441C89.5286 40.494 89.8386 40.6745 90.1789 40.768C90.5192 40.8614 90.8779 40.8645 91.2197 40.7769L91.0421 40.5993C90.9965 40.7862 90.989 40.9804 91.0199 41.1702C91.0509 41.3601 91.1198 41.5418 91.2224 41.7045C91.325 41.8672 91.4593 42.0076 91.6174 42.1173C91.7754 42.2271 91.9538 42.3039 92.1421 42.3432C92.3305 42.3825 92.5248 42.3836 92.7135 42.3463C92.9022 42.309 93.0815 42.2341 93.2407 42.126C93.3998 42.018 93.5357 41.8791 93.64 41.7175C93.7444 41.5559 93.8152 41.3749 93.8482 41.1854H93.5152C93.5648 41.4195 93.672 41.6374 93.827 41.8196C93.9821 42.0018 94.1801 42.1424 94.4032 42.2288C94.694 42.347 95.0161 42.3642 95.3178 42.2777C95.6133 42.1886 95.867 41.9964 96.0327 41.736C96.1921 41.4958 96.2771 41.2139 96.2771 40.9257C96.2771 40.6374 96.1921 40.3555 96.0327 40.1154L95.824 40.3507C96.2586 40.5847 96.7366 40.7272 97.2284 40.7692C97.7202 40.8112 98.2154 40.7518 98.6834 40.5949C99.2856 40.3839 99.8179 40.0106 100.221 39.5162C100.625 39.0218 100.884 38.4256 100.97 37.7933C101.007 37.619 101.007 37.4391 100.97 37.2649C100.88 37.9101 100.648 38.5273 100.291 39.072C99.8786 39.6657 99.2826 40.1073 98.5946 40.3285C98.1625 40.4616 97.7082 40.507 97.2583 40.462C96.8085 40.417 96.3721 40.2826 95.975 40.0665L95.3312 39.7069L95.7752 40.3019C95.8958 40.4876 95.9599 40.7042 95.9599 40.9257C95.9599 41.1471 95.8958 41.3638 95.7752 41.5495C95.6505 41.7456 95.4594 41.8902 95.2369 41.9571C95.0143 42.0239 94.7751 42.0085 94.563 41.9136C94.3918 41.8497 94.239 41.7446 94.1182 41.6075C93.9974 41.4704 93.9123 41.3056 93.8704 41.1277L93.6839 40.1243L93.533 41.1366C93.4996 41.2895 93.4359 41.4341 93.3457 41.562C93.2554 41.6899 93.1405 41.7985 93.0077 41.8812C92.8748 41.964 92.7268 42.0193 92.5722 42.0439C92.4176 42.0686 92.2597 42.062 92.1077 42.0246C91.8354 41.9285 91.6071 41.7371 91.465 41.4857C91.323 41.2342 91.2769 40.9399 91.3352 40.6571L91.4018 40.4084L91.1576 40.4795C90.8629 40.5619 90.5518 40.5668 90.2547 40.4937C89.9575 40.4206 89.6843 40.2719 89.4615 40.0621C89.2911 39.896 89.1576 39.6959 89.0697 39.4748C88.9817 39.2538 88.9412 39.0167 88.9509 38.7789C88.9737 38.3609 89.1103 37.9571 89.346 37.6112Z" fill="#455A64"/>
<path d="M115.884 33.6864C115.94 33.8165 115.966 33.9577 115.959 34.0993C115.953 34.1765 115.929 34.2513 115.889 34.3175C115.849 34.3838 115.794 34.4399 115.728 34.4811C115.644 34.5358 115.545 34.5649 115.444 34.5649C115.343 34.5649 115.245 34.5358 115.16 34.4811L114.872 34.2813L115.014 34.6054C115.111 34.8646 115.13 35.1468 115.069 35.4167C115.007 35.6867 114.868 35.9327 114.667 36.1239C114.407 36.3487 114.07 36.464 113.726 36.4458C113.383 36.4276 113.06 36.2773 112.825 36.0262L112.656 35.8442L112.558 36.0706C112.393 36.4516 112.135 36.7849 111.807 37.0399C111.48 37.295 111.093 37.4637 110.684 37.5304C110.274 37.5972 109.854 37.5599 109.462 37.4219C109.071 37.284 108.72 37.0499 108.442 36.7411L108.34 36.6212L108.216 36.7233C107.631 37.2154 106.924 37.5393 106.169 37.6602C105.58 37.7642 104.977 37.7506 104.393 37.6202C103.866 37.4794 103.357 37.2799 102.875 37.0252C102.875 37.0252 102.977 37.1451 103.212 37.3094C103.559 37.5366 103.94 37.7075 104.34 37.8156C104.955 37.9866 105.599 38.0275 106.231 37.9354C107.046 37.8247 107.814 37.4913 108.451 36.972H108.229C108.539 37.3266 108.935 37.5965 109.378 37.7562C109.821 37.9158 110.298 37.96 110.763 37.8845C111.228 37.8089 111.666 37.6163 112.036 37.3246C112.406 37.0329 112.696 36.6518 112.878 36.2172L112.612 36.2616C112.864 36.5426 113.21 36.7236 113.585 36.7719C113.96 36.8201 114.34 36.7323 114.655 36.5245C114.971 36.3166 115.202 36.0024 115.306 35.639C115.41 35.2755 115.38 34.8867 115.222 34.5433L115.076 34.6676C115.193 34.7377 115.329 34.7716 115.465 34.7653C115.602 34.759 115.733 34.7127 115.844 34.6321C115.923 34.5723 115.987 34.4951 116.03 34.4065C116.074 34.3179 116.097 34.2204 116.097 34.1215C116.075 33.784 115.884 33.673 115.884 33.6864Z" fill="#455A64"/>
<path d="M103.363 29.4194C103.363 29.4461 103.514 29.3573 103.776 29.3439C103.958 29.3369 104.138 29.3685 104.307 29.4366C104.475 29.5047 104.627 29.6078 104.753 29.7391C104.925 29.9451 105.044 30.1893 105.102 30.4512C105.16 30.7131 105.155 30.985 105.086 31.2443C104.894 31.9002 104.539 32.4973 104.056 32.9803L104.3 33.2156C104.469 33.0425 104.864 33.2156 104.97 33.4287C105.026 33.5707 105.053 33.7225 105.049 33.875C105.045 34.0275 105.011 34.1777 104.948 34.3167C104.754 34.8414 104.451 35.3194 104.06 35.7198C103.671 36.0756 103.249 36.3938 102.799 36.6699C102.799 36.6699 102.963 36.6699 103.243 36.5501C103.611 36.3875 103.95 36.1655 104.247 35.8929C104.694 35.4866 105.043 34.9841 105.268 34.4233C105.35 34.2472 105.394 34.0562 105.399 33.8622C105.403 33.6682 105.368 33.4752 105.294 33.2955C105.189 33.0876 105.005 32.9297 104.784 32.856C104.668 32.8104 104.542 32.7971 104.419 32.8174C104.297 32.8377 104.182 32.891 104.087 32.9714L104.331 33.2067C104.856 32.6802 105.23 32.0224 105.414 31.302C105.486 30.9963 105.481 30.6775 105.399 30.3744C105.316 30.0714 105.16 29.7935 104.944 29.5659C104.79 29.4218 104.605 29.3151 104.403 29.2543C104.201 29.1934 103.988 29.18 103.78 29.2152C103.452 29.2729 103.354 29.4061 103.363 29.4194Z" fill="#455A64"/>
<path d="M91.7392 31.999C92.1399 31.8388 92.5616 31.7371 92.9913 31.6971C93.4653 31.6786 93.9353 31.7907 94.35 32.0212C94.8721 32.3209 95.275 32.7913 95.491 33.3532L95.602 33.6418L95.7752 33.3843C95.9543 33.129 96.2092 32.9366 96.5037 32.8341C96.7982 32.7316 97.1175 32.7242 97.4164 32.813C97.7153 32.9019 97.9787 33.0824 98.1694 33.3291C98.3601 33.5759 98.4685 33.8763 98.4792 34.1879V34.3877L98.6745 34.3433C98.9624 34.2853 99.2595 34.2901 99.5453 34.3576C99.8311 34.425 100.099 34.5534 100.331 34.734C100.702 35.0259 100.954 35.4424 101.041 35.9062C101.104 36.3319 101.077 36.766 100.961 37.1805C100.961 37.1805 101.054 37.0872 101.139 36.8697C101.255 36.5504 101.29 36.207 101.241 35.8707C101.167 35.3512 100.905 34.8771 100.504 34.5387C100.243 34.3222 99.9369 34.1661 99.6083 34.0817C99.2798 33.9972 98.9366 33.9865 98.6035 34.0503L98.7988 34.2057C98.7954 33.8211 98.6688 33.4477 98.4375 33.1404C98.2063 32.8331 97.8826 32.6081 97.514 32.4983C97.1454 32.3885 96.7513 32.3998 96.3896 32.5305C96.0279 32.6612 95.7176 32.9044 95.5044 33.2244L95.7885 33.26C95.5316 32.6361 95.0588 32.1255 94.4565 31.8214C93.9947 31.5822 93.473 31.4835 92.9558 31.5372C92.6216 31.5693 92.2971 31.6674 92.0012 31.8258C91.8236 31.8969 91.7303 31.9679 91.7392 31.999Z" fill="#455A64"/>
<path d="M91.797 20.6992C91.9718 20.476 92.1949 20.2953 92.4497 20.1708C92.7428 20.0387 93.0763 20.0275 93.3776 20.1398C93.5697 20.2132 93.741 20.3325 93.8764 20.4873C94.0118 20.642 94.1073 20.8276 94.1546 21.0278L94.3011 21.6938L94.4121 21.0189C94.4781 20.6822 94.6383 20.3712 94.8741 20.1221C95.1099 19.8729 95.4116 19.6958 95.7441 19.6114C96.1326 19.5337 96.5358 19.588 96.8898 19.7658C97.2438 19.9436 97.5282 20.2346 97.6977 20.5926L97.7643 20.7436L97.9197 20.677C98.1244 20.5895 98.3455 20.5471 98.568 20.5527C98.9487 20.5456 99.3209 20.6651 99.6263 20.8926C99.9317 21.12 100.153 21.4424 100.255 21.8092C100.334 22.1394 100.32 22.4852 100.213 22.8076C100.106 23.1299 99.9118 23.4162 99.6513 23.634L99.2429 23.9404L99.749 23.8916C100.004 23.8725 100.26 23.9242 100.488 24.0409C100.716 24.1576 100.907 24.3348 101.041 24.5531C101.143 24.7252 101.204 24.9184 101.219 25.1178C101.235 25.3171 101.204 25.5174 101.13 25.7031C100.989 26.0375 100.753 26.3232 100.451 26.5245C100.451 26.5245 100.562 26.5245 100.73 26.4135C100.975 26.2518 101.166 26.0217 101.281 25.7519C101.38 25.5423 101.427 25.3122 101.419 25.0806C101.412 24.8489 101.349 24.6225 101.236 24.4199C101.087 24.1526 100.866 23.9331 100.597 23.7869C100.328 23.6407 100.023 23.5739 99.7179 23.5941L99.8201 23.8516C100.133 23.6029 100.369 23.2708 100.501 22.8937C100.633 22.5166 100.655 22.1098 100.566 21.7204C100.448 21.2823 100.188 20.8958 99.8259 20.6217C99.4642 20.3477 99.0217 20.2015 98.568 20.2064C98.2997 20.205 98.0339 20.2579 97.7865 20.3618L98.0085 20.4506C97.8308 20.0495 97.5276 19.7169 97.1446 19.503C96.7616 19.2892 96.3194 19.2055 95.8847 19.2645C95.45 19.3236 95.0463 19.5223 94.7342 19.8307C94.4222 20.1391 94.2188 20.5405 94.1546 20.9745H94.4166C94.3538 20.7369 94.2329 20.5188 94.0647 20.3397C93.8965 20.1606 93.6863 20.0263 93.4531 19.9488C93.2789 19.8931 93.0953 19.8726 92.9131 19.8886C92.7309 19.9046 92.5537 19.9568 92.3919 20.0421C92.1912 20.1455 92.0201 20.2983 91.8947 20.4861C91.8059 20.6148 91.7881 20.6948 91.797 20.6992Z" fill="#455A64"/>
<path d="M81.8511 23.1412C82.1538 22.9376 82.5119 22.8322 82.8767 22.8393C83.0813 22.8439 83.2819 22.8966 83.4623 22.993C83.6428 23.0894 83.7981 23.2268 83.9157 23.3943C84.0583 23.6112 84.138 23.8634 84.1458 24.1228C84.1536 24.3823 84.0893 24.6389 83.9601 24.8639L83.3829 25.7919L84.1687 25.0282C84.3914 24.8324 84.673 24.7165 84.9689 24.6988C85.2649 24.6811 85.5583 24.7627 85.8027 24.9305C86.0608 25.1413 86.228 25.4434 86.2693 25.7741C86.3106 26.1048 86.223 26.4387 86.0247 26.7065L86.3044 26.8841C86.3834 26.7188 86.4942 26.5707 86.6304 26.4482C86.7667 26.3258 86.9257 26.2313 87.0985 26.1703C87.2712 26.1093 87.4543 26.0829 87.6372 26.0926C87.8202 26.1023 87.9994 26.148 88.1647 26.227C88.33 26.306 88.4782 26.4168 88.6006 26.5531C88.7231 26.6893 88.8176 26.8484 88.8786 27.0211C88.9396 27.1939 88.966 27.3769 88.9563 27.5599C88.9465 27.7428 88.9009 27.9221 88.8219 28.0874L89.0794 28.0341C88.9928 27.9334 88.9452 27.805 88.9452 27.6722C88.9452 27.5395 88.9928 27.4111 89.0794 27.3104C89.1712 27.2113 89.2888 27.1398 89.4189 27.1037C89.5491 27.0676 89.6867 27.0685 89.8164 27.1061C90.0751 27.1981 90.3043 27.3579 90.48 27.5688C90.6558 27.7797 90.7716 28.0339 90.8154 28.3049L91.0729 28.2161C91.0272 28.0926 91.0184 27.9584 91.0475 27.8299C91.0767 27.7014 91.1426 27.5841 91.2372 27.4924C91.3202 27.4009 91.4228 27.3294 91.5374 27.2832C91.652 27.2371 91.7755 27.2175 91.8988 27.226C92.1118 27.2446 92.319 27.3056 92.5081 27.4055C92.6972 27.5054 92.8645 27.6422 92.9999 27.8077C93.4439 28.3715 93.6259 28.78 93.6659 28.7534C93.6465 28.652 93.6105 28.5545 93.5593 28.4648C93.4423 28.1962 93.2932 27.9428 93.1153 27.71C92.9725 27.5181 92.7914 27.3578 92.5836 27.2394C92.3757 27.1209 92.1456 27.0469 91.9077 27.0218C91.7501 27.0088 91.5916 27.0306 91.4435 27.0859C91.2954 27.1412 91.1613 27.2284 91.0507 27.3415C90.9185 27.4679 90.8261 27.6303 90.7851 27.8086C90.7441 27.9869 90.7561 28.1734 90.8199 28.3449L91.0729 28.2517C91.0056 27.9515 90.8821 27.6667 90.7089 27.4125C90.5149 27.1223 90.2209 26.9137 89.883 26.8264C89.696 26.7713 89.4971 26.7708 89.3099 26.8251C89.1226 26.8794 88.9548 26.9862 88.8263 27.1328C88.6894 27.2983 88.6171 27.5078 88.6228 27.7225C88.6285 27.9372 88.7119 28.1425 88.8574 28.3005L89.0217 28.4559L89.1193 28.2472C89.2842 27.84 89.2877 27.3853 89.1291 26.9757C88.9705 26.566 88.6618 26.2321 88.2658 26.042C87.8698 25.8519 87.4162 25.8199 86.9973 25.9524C86.5785 26.0849 86.2259 26.3721 86.0113 26.7554L86.2911 26.933C86.5321 26.6224 86.6465 26.232 86.6111 25.8404C86.5758 25.4489 86.3933 25.0853 86.1005 24.8229C85.8077 24.5605 85.4264 24.4189 85.0333 24.4265C84.6402 24.4341 84.2647 24.5904 83.9823 24.8639L84.1909 25.0282C84.3438 24.7574 84.4151 24.4482 84.3962 24.1378C84.3773 23.8274 84.269 23.5291 84.0844 23.2789C83.8505 22.9807 83.5135 22.7807 83.1397 22.7183C82.7659 22.6558 82.3823 22.7354 82.0642 22.9414C81.9043 23.048 81.8466 23.1323 81.8511 23.1412Z" fill="#263238"/>
<path d="M121.656 57.4979C121.656 57.4979 121.549 57.4979 121.38 57.4224C121.263 57.3699 121.158 57.2939 121.071 57.1993C120.984 57.1046 120.917 56.9932 120.874 56.8718C120.798 56.6874 120.769 56.4868 120.79 56.2883C120.811 56.0898 120.881 55.8997 120.994 55.7352C121.314 55.2996 121.721 54.9352 122.188 54.6652L122.024 54.4343C121.707 54.6425 121.337 54.7579 120.957 54.7673C120.578 54.7767 120.203 54.6798 119.875 54.4876C119.508 54.2655 119.229 53.9227 119.086 53.5177C118.944 53.1127 118.946 52.6708 119.094 52.2676C119.185 51.988 119.337 51.7318 119.538 51.5172C119.703 51.3152 119.934 51.1783 120.19 51.1309C120.381 51.1309 120.523 51.3796 120.51 51.606C120.503 51.718 120.461 51.8251 120.391 51.9131C120.322 52.0011 120.227 52.0659 120.119 52.0988C119.888 52.1668 119.645 52.1856 119.405 52.1543C119.166 52.123 118.936 52.0421 118.73 51.9168C118.339 51.7114 118.011 51.4047 117.78 51.0288C117.446 50.4778 117.335 49.8206 117.469 49.1906C117.562 48.7466 117.709 48.5158 117.677 48.5024C117.509 48.6859 117.392 48.9113 117.34 49.1551C117.243 49.4869 117.214 49.8348 117.254 50.1781C117.295 50.5214 117.404 50.853 117.575 51.1531C117.817 51.5723 118.169 51.9177 118.592 52.1521C118.834 52.3045 119.106 52.4035 119.389 52.4425C119.672 52.4816 119.961 52.4598 120.235 52.3786C120.391 52.3201 120.529 52.224 120.639 52.0988C120.759 51.962 120.828 51.7879 120.834 51.606C120.845 51.4252 120.8 51.2455 120.706 51.091C120.653 51.0036 120.581 50.9301 120.495 50.8767C120.408 50.8234 120.31 50.7918 120.208 50.7846C120.021 50.7861 119.839 50.8433 119.684 50.9489C119.541 51.0408 119.41 51.1496 119.294 51.273C119.059 51.5275 118.883 51.8307 118.779 52.161C118.616 52.6496 118.616 53.1776 118.779 53.6662C118.945 54.1336 119.276 54.5238 119.711 54.7628C120.092 54.9815 120.527 55.0876 120.965 55.0688C121.404 55.0499 121.828 54.9069 122.188 54.6563L122.024 54.4298C121.531 54.729 121.111 55.1339 120.794 55.6153C120.67 55.8128 120.598 56.0389 120.585 56.2721C120.573 56.5052 120.62 56.7377 120.723 56.9473C120.78 57.0821 120.865 57.2028 120.973 57.301C121.081 57.3992 121.21 57.4724 121.349 57.5156C121.549 57.5512 121.656 57.5068 121.656 57.4979Z" fill="#263238"/>
<path d="M102.466 25.2059C102.466 25.2059 102.528 25.2725 102.67 25.3613C102.874 25.4911 103.089 25.6011 103.314 25.6898C103.679 25.854 104.089 25.89 104.477 25.7919C104.723 25.7181 104.944 25.5784 105.117 25.3879C105.219 25.2773 105.295 25.1442 105.337 24.9994C105.38 24.8545 105.388 24.7017 105.361 24.5532L105.188 24.6997C105.336 24.7605 105.495 24.7911 105.656 24.7899C105.816 24.7886 105.975 24.7555 106.123 24.6925C106.27 24.6294 106.404 24.5376 106.516 24.4225C106.628 24.3074 106.716 24.1712 106.774 24.0218C106.833 23.8725 106.862 23.7129 106.858 23.5524C106.855 23.3919 106.82 23.2337 106.755 23.0869C106.69 22.9402 106.596 22.8078 106.48 22.6974C106.363 22.5871 106.226 22.501 106.076 22.4442L106.009 22.755C106.337 22.766 106.657 22.6556 106.909 22.4451C107.16 22.2345 107.325 21.9386 107.372 21.6139C107.414 21.2721 107.336 20.9264 107.151 20.6357C106.967 20.345 106.687 20.1274 106.36 20.0199C106.093 19.9174 105.804 19.8824 105.521 19.9178L105.614 20.2375C105.836 20.1362 106.032 19.9855 106.186 19.797C106.341 19.6085 106.451 19.3872 106.507 19.1498C106.564 18.9125 106.565 18.6654 106.512 18.4274C106.458 18.1895 106.351 17.9668 106.198 17.7766C106.046 17.5863 105.852 17.4333 105.631 17.3294C105.41 17.2255 105.169 17.1733 104.925 17.1768C104.681 17.1804 104.441 17.2396 104.223 17.3498C104.006 17.4601 103.816 17.6186 103.669 17.8133H103.891C103.672 17.5563 103.386 17.3654 103.064 17.2619C102.743 17.1584 102.399 17.1464 102.071 17.2272C101.669 17.3385 101.322 17.5926 101.095 17.9417C100.868 18.2908 100.776 18.7109 100.836 19.1231C100.843 19.2344 100.88 19.3418 100.943 19.4339C100.881 19.034 100.938 18.6247 101.107 18.2573C101.204 18.0546 101.345 17.8765 101.52 17.7365C101.696 17.5964 101.901 17.4982 102.12 17.4492C102.402 17.3899 102.696 17.4086 102.969 17.5032C103.242 17.5978 103.484 17.7649 103.669 17.9864L103.78 18.1285L103.891 17.982C104.135 17.7077 104.476 17.5408 104.842 17.5175C105.208 17.4942 105.569 17.6165 105.845 17.8577C105.981 18.0089 106.08 18.1894 106.136 18.3852C106.191 18.5809 106.201 18.7868 106.165 18.987C106.129 19.1872 106.047 19.3764 105.926 19.5401C105.805 19.7037 105.648 19.8375 105.467 19.9311L104.499 20.3751L105.561 20.2464C105.788 20.2164 106.019 20.2455 106.231 20.3307C106.485 20.4078 106.704 20.5709 106.851 20.7922C106.998 21.0134 107.063 21.2789 107.035 21.5429C107 21.7859 106.88 22.0086 106.696 22.1713C106.512 22.3339 106.277 22.4259 106.031 22.4309L104.659 22.2932L105.965 22.7372C106.084 22.7843 106.193 22.8551 106.285 22.9454C106.377 23.0357 106.449 23.1436 106.498 23.2626C106.547 23.3817 106.572 23.5094 106.57 23.6381C106.568 23.7668 106.541 23.8938 106.489 24.0115C106.374 24.2139 106.192 24.3694 105.975 24.4507C105.757 24.5319 105.517 24.5336 105.299 24.4555L105.068 24.3578L105.121 24.5976C105.139 24.8187 105.079 25.0391 104.952 25.2208C104.825 25.4024 104.638 25.5338 104.424 25.5921C104.077 25.687 103.709 25.6714 103.372 25.5477C102.786 25.3568 102.479 25.1748 102.466 25.2059Z" fill="#263238"/>
<path d="M95.0603 50.7579C94.9626 50.7046 91.0643 49.1106 90.7535 53.2443C90.4427 57.3779 94.6785 56.8229 94.6918 56.703C94.7051 56.5832 95.0603 50.7579 95.0603 50.7579Z" fill="#FFBE9D"/>
<path d="M93.5374 55.056C93.5374 55.056 93.4619 55.1004 93.3376 55.1493C93.16 55.2083 92.9668 55.1988 92.7959 55.1226C92.3519 54.9317 92.05 54.2346 92.0855 53.4621C92.0998 53.1074 92.1923 52.7602 92.3563 52.4453C92.4049 52.3192 92.4831 52.2065 92.5843 52.1169C92.6856 52.0272 92.8068 51.9632 92.938 51.9303C93.0223 51.9148 93.1095 51.9288 93.1847 51.9701C93.2599 52.0113 93.3186 52.0773 93.3509 52.1567C93.3953 52.2766 93.3509 52.3565 93.3864 52.3654C93.4219 52.3743 93.4797 52.3032 93.4575 52.1301C93.4437 52.0258 93.3933 51.9299 93.3154 51.8592C93.2062 51.7678 93.0669 51.7203 92.9246 51.726C92.752 51.7479 92.5879 51.8136 92.448 51.917C92.3081 52.0204 92.197 52.158 92.1255 52.3166C91.9247 52.6629 91.8119 53.0532 91.7969 53.4532C91.7614 54.2879 92.1343 55.096 92.7204 55.3136C92.8294 55.3528 92.9457 55.3672 93.0609 55.3557C93.1762 55.3441 93.2874 55.307 93.3864 55.247C93.524 55.1448 93.5507 55.056 93.5374 55.056Z" fill="#EB996E"/>
<path d="M105.788 57.4536C105.953 57.2957 106.154 57.1796 106.374 57.1151C106.593 57.0507 106.825 57.0398 107.05 57.0832C107.275 57.1267 107.486 57.2233 107.665 57.365C107.845 57.5067 107.988 57.6893 108.083 57.8976C108.159 58.0705 108.198 58.2572 108.198 58.446C108.198 58.6347 108.159 58.8214 108.083 58.9943C107.967 59.2308 107.782 59.4264 107.551 59.5549C107.321 59.6834 107.058 59.7388 106.795 59.7136C106.534 59.6775 106.29 59.5612 106.098 59.3807C105.905 59.2001 105.774 58.9643 105.721 58.7057C105.623 58.1862 105.459 57.5735 105.921 57.3249" fill="#EB996E"/>
<path d="M105.725 56.3879C105.881 56.3879 105.952 57.4091 106.893 58.0929C107.834 58.7767 108.935 58.5857 108.958 58.7278C108.958 58.7944 108.722 58.9498 108.252 58.9898C107.643 59.042 107.035 58.8751 106.538 58.5191C106.057 58.1791 105.729 57.6643 105.623 57.085C105.557 56.6588 105.672 56.3879 105.725 56.3879Z" fill="#263238"/>
<path d="M90.2076 69.7392L93.027 69.2642L108.891 70.6716L114.552 73.3623L116.057 74.2503C116.057 74.2503 110.156 82.4643 104.109 82.0203C98.0619 81.5763 87.619 72.9538 87.619 72.9538L87.5702 70.1344L90.2076 69.7392Z" fill="#FFBE9D"/>
<path d="M134.976 83.1523L122.007 75.6576C120.399 75.1248 112.909 72.5807 112.909 72.5807C112.909 72.5807 107.093 81.8159 102.28 81.2209C99.6779 80.9012 96.5077 78.6502 94.1678 76.6566C92.1539 74.945 90.4349 72.914 89.0796 70.6448L88.5557 69.7568C86.2779 69.7568 79.1917 71.4662 76.6875 72.0923C76.0912 72.2386 75.551 72.5566 75.1335 73.0069C73.7438 74.4943 71.0576 77.327 70.4893 80.1109C69.9432 82.7749 67.7188 91.3486 67.7188 91.3486L131.562 89.395L134.976 83.1523Z" fill="#D4E068"/>
<path d="M155.484 83.3699C154.512 83.8139 146.467 86.5534 146.107 86.9618C145.747 87.3703 134.714 83.472 134.714 83.472L131.562 89.4438L160.022 88.8266L155.484 83.3699Z" fill="#FFBE9D"/>
<path d="M82.9344 81.4341C82.8944 81.4341 82.7612 80.9235 82.3705 80.1598C81.8461 79.1693 81.1654 78.2698 80.3547 77.4958C79.5381 76.7285 78.6687 76.0193 77.7529 75.3735C77.3623 75.1176 76.9926 74.8311 76.6473 74.5166C77.0674 74.7205 77.4686 74.9612 77.8461 75.2359C78.7977 75.8497 79.6896 76.5513 80.5101 77.3316C81.34 78.1159 82.0187 79.0459 82.5126 80.0755C82.6585 80.3869 82.7759 80.7108 82.8633 81.0434C82.9098 81.1685 82.9338 81.3007 82.9344 81.4341Z" fill="#263238"/>
<path d="M121.256 87.1128C121.187 86.6724 121.16 86.2264 121.176 85.7808C121.176 84.9594 121.176 83.8272 121.23 82.5751C121.283 81.3231 121.389 80.1953 121.478 79.3828C121.505 78.9331 121.575 78.487 121.687 78.0508C121.706 78.4953 121.691 78.9405 121.643 79.3828C121.594 80.2708 121.532 81.3675 121.465 82.5751C121.398 83.7828 121.376 84.8795 121.341 85.7675C121.352 86.2175 121.324 86.6677 121.256 87.1128Z" fill="#263238"/>
<path d="M91.1264 74.0724C91.1264 74.0724 91.0997 74.1212 91.0331 74.2011C90.9349 74.3201 90.8248 74.4287 90.7046 74.5253C90.27 74.8913 89.7562 75.1512 89.2038 75.2845C88.3774 75.4948 87.5057 75.4389 86.713 75.1247C86.2482 74.932 85.8258 74.6499 85.4698 74.2944C85.0924 73.9392 84.755 73.5351 84.3642 73.1799C83.6401 72.504 82.6907 72.121 81.7002 72.1055C80.8876 72.0904 80.0908 72.3311 79.4225 72.7937C78.9671 73.1028 78.5765 73.498 78.2726 73.9569C78.0594 74.2811 77.9751 74.4853 77.9529 74.4764C77.9598 74.4227 77.9747 74.3703 77.9973 74.321C78.055 74.1793 78.1218 74.0413 78.1971 73.9081C78.5529 73.2944 79.064 72.7851 79.6788 72.4313C80.2937 72.0775 80.9908 71.8916 81.7002 71.8923C82.7519 71.8943 83.7638 72.294 84.533 73.0112C84.937 73.3797 85.2744 73.7882 85.6385 74.1301C85.974 74.4677 86.3701 74.7388 86.8062 74.9293C87.4366 75.1851 88.1219 75.2757 88.7971 75.1926C89.4723 75.1094 90.1151 74.8553 90.6646 74.4542C90.9665 74.2278 91.1042 74.0502 91.1264 74.0724Z" fill="white"/>
<path d="M120.817 81.0166C120.817 81.0166 120.679 80.7769 120.373 80.3595C119.897 79.761 119.303 79.2668 118.628 78.9076C117.562 78.3244 116.331 78.1179 115.134 78.3215C114.353 78.4756 113.614 78.7956 112.968 79.2598C112.321 79.724 111.782 80.3216 111.386 81.0122C110.917 81.8102 110.694 82.7296 110.747 83.654C110.78 84.1284 110.933 84.5866 111.191 84.986C111.477 85.3955 111.891 85.6984 112.368 85.8474C112.61 85.9235 112.867 85.9427 113.118 85.9034C113.369 85.8641 113.607 85.7675 113.815 85.6209C114.25 85.3129 114.558 84.8566 114.681 84.3377C114.797 83.8002 114.725 83.2389 114.477 82.7482C114.23 82.2356 113.857 81.7941 113.393 81.4651C112.398 80.7989 111.189 80.5296 110.005 80.7103C108.767 80.8833 107.588 81.3557 106.573 82.0867C104.451 83.5119 102.777 85.6786 100.42 87.135C99.2577 87.8708 97.9257 88.2944 96.5523 88.3648C95.2206 88.436 93.8917 88.1815 92.6806 87.6234C91.497 87.1018 90.4933 86.2432 89.7946 85.1547C89.4612 84.6292 89.2406 84.0401 89.1466 83.4249C89.0526 82.8097 89.0873 82.1816 89.2485 81.5805C89.3829 80.9993 89.666 80.463 90.0699 80.0241C90.4738 79.5851 90.9848 79.2586 91.5528 79.0764C92.0936 78.9267 92.6638 78.9192 93.2083 79.0545C93.7528 79.1899 94.2531 79.4635 94.6608 79.8489C95.0378 80.2387 95.2778 80.7405 95.3446 81.2786C95.3975 81.7916 95.3132 82.3095 95.1004 82.7793C94.7028 83.6631 93.9906 84.3674 93.1024 84.7551C92.2921 85.0712 91.4105 85.1587 90.5538 85.0082C89.7989 84.8778 89.0674 84.6369 88.3827 84.2934C87.3067 83.7191 86.2856 83.0473 85.3324 82.2865C84.5332 81.6826 83.9027 81.2342 83.4543 80.9545C83.2323 80.8168 83.0635 80.7103 82.9437 80.6437C82.8238 80.5771 82.7705 80.5371 82.7705 80.5371C82.7705 80.5371 82.8371 80.5637 82.957 80.6259C83.0769 80.6881 83.2545 80.7813 83.4809 80.9145C83.9249 81.1854 84.582 81.6205 85.3857 82.211C86.34 82.9575 87.3611 83.6144 88.4359 84.1735C89.1118 84.5062 89.8329 84.7381 90.576 84.8617C91.4055 85.0024 92.2577 84.9133 93.0402 84.6042C93.8849 84.2283 94.5603 83.5529 94.9361 82.7083C95.1331 82.2669 95.2111 81.7817 95.1625 81.3008C95.1027 80.7983 94.8778 80.3298 94.5232 79.9688C94.1393 79.6062 93.6677 79.3497 93.1548 79.2244C92.6418 79.0991 92.1051 79.1092 91.5972 79.254C91.0642 79.4278 90.5852 79.7367 90.207 80.1506C89.8289 80.5646 89.5644 81.0695 89.4394 81.616C89.2885 82.1895 89.2576 82.7879 89.3485 83.3739C89.4394 83.9598 89.6502 84.5207 89.9678 85.0215C90.6473 86.0696 91.6179 86.8966 92.7605 87.4014C93.9408 87.9412 95.234 88.1879 96.5301 88.1206C97.8625 88.0481 99.1542 87.6354 100.282 86.9218C102.595 85.4966 104.278 83.3343 106.431 81.8824C107.483 81.1294 108.702 80.6447 109.983 80.4705C111.226 80.2845 112.494 80.5713 113.535 81.2742C114.027 81.6261 114.423 82.0965 114.685 82.6417C114.946 83.1778 115.02 83.786 114.894 84.3688C114.759 84.9356 114.421 85.4333 113.944 85.7674C113.711 85.9283 113.446 86.0342 113.167 86.0773C112.887 86.1203 112.602 86.0994 112.332 86.0161C111.816 85.8499 111.368 85.5193 111.058 85.0748C110.771 84.6445 110.602 84.1473 110.565 83.6318C110.513 82.6733 110.748 81.7209 111.24 80.8967C111.65 80.1895 112.208 79.5788 112.875 79.1061C113.543 78.6334 114.304 78.3098 115.107 78.1573C116.329 77.9589 117.582 78.1829 118.659 78.7922C119.34 79.1652 119.935 79.6782 120.404 80.2974C120.568 80.5212 120.706 80.7624 120.817 81.0166Z" fill="white"/>
<path d="M129.945 80.2397C129.917 80.3676 129.869 80.4904 129.803 80.6038C129.645 80.9265 129.453 81.2316 129.23 81.514C128.902 81.9342 128.516 82.3064 128.085 82.6195C127.557 83.0036 126.983 83.3184 126.375 83.5564C125.267 83.9907 124.066 84.1358 122.885 83.9782C122.531 83.9281 122.182 83.8479 121.842 83.7384C121.714 83.7096 121.592 83.6569 121.482 83.583C121.482 83.5431 122.02 83.7295 122.903 83.8139C124.054 83.9239 125.215 83.7612 126.291 83.3388C127.374 82.9361 128.341 82.2728 129.106 81.4074C129.674 80.7325 129.905 80.2175 129.945 80.2397Z" fill="white"/>
<path d="M134.088 83.028C134.088 83.028 133.946 82.9569 133.675 82.8859C133.294 82.7953 132.897 82.8045 132.521 82.9125C131.965 83.0948 131.447 83.3778 130.993 83.7473C130.456 84.1469 129.883 84.6086 129.306 85.1192C128.319 85.9946 127.4 86.9446 126.558 87.9608C125.905 88.7378 125.541 89.2484 125.51 89.2307C125.566 89.0918 125.639 88.9605 125.728 88.8399C125.883 88.6046 126.118 88.2627 126.429 87.8587C127.242 86.8036 128.153 85.8283 129.151 84.9461C129.699 84.46 130.272 84.0035 130.869 83.5785C131.346 83.2005 131.894 82.9212 132.481 82.7571C132.884 82.654 133.308 82.6694 133.702 82.8015C133.849 82.8398 133.983 82.9182 134.088 83.028Z" fill="white"/>
<path d="M116.394 74.3389C116.222 74.5433 116.007 74.707 115.764 74.8184C114.633 75.4513 113.307 75.6412 112.043 75.3512C111.778 75.3119 111.525 75.2149 111.302 75.067C112.163 75.2449 113.046 75.2913 113.921 75.2047C114.785 75.0439 115.619 74.7519 116.394 74.3389Z" fill="white"/>
<path d="M78.104 89.7813C78.1139 89.1277 78.0872 88.474 78.0241 87.8233C77.8269 86.2617 77.2135 84.7818 76.2481 83.5387C75.7141 82.8641 75.0895 82.2665 74.3922 81.7627C73.8175 81.3532 73.1902 81.0232 72.5274 80.7814C71.9066 80.5801 71.2733 80.4199 70.6315 80.3019C70.8068 80.2776 70.9846 80.2776 71.1598 80.3019C71.6433 80.3515 72.1197 80.4542 72.5806 80.6083C73.2674 80.8349 73.9179 81.1594 74.512 81.5718C75.2377 82.0806 75.8841 82.694 76.4301 83.3922C77.429 84.6632 78.045 86.1926 78.2061 87.8011C78.2532 88.2839 78.2532 88.7702 78.2061 89.253C78.1946 89.4327 78.1603 89.6103 78.104 89.7813Z" fill="white"/>
<g opacity="0.3">
<path d="M82.6237 87.5434C82.2754 87.2802 81.8618 87.117 81.4275 87.0717C80.9932 87.0263 80.5548 87.1003 80.1595 87.2859C79.8265 87.4457 79.5335 87.6855 79.1916 87.832C79.0262 87.9178 78.8407 87.9572 78.6547 87.9463C78.4687 87.9354 78.2891 87.8744 78.1349 87.7698C77.8863 87.5612 77.8152 87.206 77.6243 86.944C77.2647 86.46 76.5587 86.3846 75.9637 86.5C75.3854 86.6667 74.7891 86.7636 74.1877 86.7886C73.6009 86.6783 73.0256 86.5133 72.4695 86.2958C71.82 86.133 71.1379 86.1571 70.5015 86.3653C69.8652 86.5735 69.3007 86.9572 68.8731 87.4724L67.7986 90.6514L83.4718 89.8611C83.5538 89.4342 83.5183 88.993 83.3689 88.5847C83.2195 88.1765 82.9619 87.8165 82.6237 87.5434Z" fill="black"/>
</g>
<path d="M87.912 89.5902C87.872 89.5902 87.7344 89.1773 87.3037 88.6179C86.7542 87.8838 85.9734 87.3562 85.0874 87.1202C84.2013 86.8842 83.2615 86.9535 82.4197 87.317C81.767 87.5878 81.434 87.8942 81.4074 87.8586C81.3807 87.8231 81.474 87.7654 81.6249 87.6322C81.8483 87.4485 82.0927 87.292 82.3531 87.166C83.2218 86.7355 84.2173 86.6355 85.1543 86.8847C86.0912 87.1338 86.9056 87.7151 87.4458 88.5202C87.6103 88.7571 87.7445 89.0137 87.8454 89.2839C87.8879 89.3805 87.9106 89.4847 87.912 89.5902Z" fill="white"/>
<g opacity="0.3">
<path d="M125.07 87.983C124.008 87.7701 123.013 87.2989 122.176 86.611C121.39 85.8784 120.946 84.6752 121.376 83.6851C120.661 85.3217 119.488 86.7169 117.998 87.7031C116.509 88.6892 114.767 89.2242 112.98 89.2439L128.13 88.9953C127.156 88.5321 126.128 88.192 125.07 87.983Z" fill="black"/>
</g>
<path d="M107.417 50.332C107.368 49.9584 107.298 49.5878 107.208 49.222C106.926 48.2356 106.321 47.3725 105.49 46.7712C104.88 46.3291 104.169 46.0467 103.423 45.9498C102.676 45.8528 101.916 45.9444 101.214 46.2162C100.384 46.5327 99.6678 47.0911 99.1584 47.819C98.6057 48.5965 98.3162 49.5304 98.3322 50.4843C98.3481 51.4381 98.6688 52.3618 99.2472 53.1204C99.5157 53.4838 99.8411 53.8016 100.211 54.0616C100.561 54.316 100.947 54.5165 101.356 54.6566C101.953 54.861 102.586 54.9391 103.215 54.8859C103.843 54.8327 104.454 54.6493 105.008 54.3475C105.562 54.0456 106.047 53.6318 106.433 53.1324C106.819 52.633 107.096 52.0589 107.248 51.4465C107.323 51.0781 107.38 50.7062 107.417 50.332C107.449 50.7113 107.422 51.0933 107.337 51.4642C107.112 52.4981 106.538 53.4231 105.712 54.0838C105.098 54.5782 104.368 54.9084 103.592 55.0435C102.815 55.1786 102.017 55.1143 101.272 54.8564C100.39 54.5552 99.6172 53.9988 99.0518 53.258C98.4429 52.4611 98.1053 51.49 98.0885 50.4872C98.0718 49.4844 98.3767 48.5027 98.9586 47.6858C99.4996 46.9271 100.254 46.3461 101.125 46.0164C101.911 45.7175 102.762 45.6362 103.589 45.781C104.469 45.9356 105.285 46.3403 105.94 46.9466C106.595 47.5529 107.062 48.3352 107.284 49.1998C107.387 49.5679 107.432 49.95 107.417 50.332Z" fill="#455A64"/>
<path d="M118.956 50.1322C118.907 49.7587 118.837 49.3882 118.748 49.0222C118.465 48.036 117.858 47.174 117.025 46.5757C116.459 46.1615 115.803 45.8862 115.111 45.7721C114.318 45.6434 113.504 45.7277 112.754 46.0163C112.347 46.169 111.967 46.3832 111.626 46.6512C111.265 46.9224 110.952 47.2509 110.698 47.6236C110.14 48.3992 109.848 49.3339 109.864 50.289C109.88 51.244 110.204 52.1684 110.787 52.9249C111.055 53.2871 111.381 53.6034 111.75 53.8618C112.098 54.1203 112.484 54.3212 112.896 54.4567C113.607 54.7049 114.369 54.7707 115.112 54.6482C115.855 54.5256 116.555 54.2186 117.149 53.7552C117.96 53.1258 118.537 52.2425 118.788 51.2466C118.864 50.8784 118.92 50.5064 118.956 50.1322C118.988 50.5131 118.96 50.8968 118.872 51.2688C118.652 52.3022 118.079 53.2268 117.251 53.884C116.638 54.3794 115.908 54.7107 115.132 54.8466C114.355 54.9825 113.557 54.9187 112.811 54.661C112.381 54.5173 111.976 54.3092 111.608 54.0438C111.219 53.7731 110.876 53.4418 110.591 53.0626C109.986 52.267 109.651 51.2982 109.637 50.2985C109.623 49.2988 109.929 48.3208 110.511 47.5081C110.782 47.119 111.113 46.7757 111.493 46.4914C111.851 46.2149 112.25 45.9935 112.674 45.8343C113.461 45.5389 114.314 45.4592 115.142 45.6034C116.021 45.7581 116.836 46.1623 117.491 46.7677C118.146 47.3731 118.613 48.1542 118.836 49.0177C118.934 49.3808 118.974 49.7567 118.956 50.1322Z" fill="#455A64"/>
<path d="M98.2883 49.5725C97.7731 49.9036 97.2079 50.1495 96.6144 50.3007C96.0458 50.5195 95.4466 50.6483 94.8384 50.6825C95.3883 50.4289 95.9606 50.2268 96.5478 50.0787C97.1122 49.8598 97.6945 49.6904 98.2883 49.5725Z" fill="#455A64"/>
<path d="M110.227 49.0175C109.723 48.9475 109.213 48.9238 108.704 48.9465C108.204 49.0478 107.715 49.1964 107.244 49.3905C107.618 48.9929 108.132 48.7559 108.678 48.7289C109.212 48.6189 109.768 48.7225 110.227 49.0175Z" fill="#455A64"/>
<path d="M101.285 53.8661C101.022 53.84 100.77 53.7467 100.553 53.5952C99.9987 53.2756 99.5412 52.8124 99.2286 52.2544C98.916 51.6965 98.7599 51.0644 98.7767 50.4251C98.7578 50.1621 98.8083 49.8987 98.9232 49.6614C98.9587 49.6614 98.9232 49.9589 98.9232 50.4251C98.9532 51.029 99.1237 51.6177 99.4212 52.1442C99.7188 52.6706 100.135 53.1204 100.637 53.4576C101.023 53.724 101.299 53.8305 101.285 53.8661Z" fill="white"/>
<path d="M112.7 53.5376C112.453 53.5092 112.217 53.4174 112.016 53.2712C111.499 52.9629 111.07 52.5253 110.773 52.0013C110.482 51.4754 110.329 50.8841 110.329 50.283C110.307 50.0351 110.35 49.7858 110.453 49.5593C110.482 49.7965 110.495 50.0353 110.493 50.2742C110.541 50.8403 110.709 51.3898 110.986 51.8859C111.268 52.3783 111.652 52.8039 112.114 53.1335C112.317 53.2563 112.513 53.3912 112.7 53.5376Z" fill="white"/>
<path d="M49.577 90.4028C49.577 90.4028 48.396 161.794 58.2483 209.812L181.116 209.43L148.953 89.8301L49.577 90.4028Z" fill="#E0E0E0"/>
<path d="M49.5773 90.4026L148.953 89.7366H149.024L149.047 89.8032C158.206 123.858 169.266 164.95 181.228 209.399L181.268 209.546H181.117L171.349 209.577L58.2486 209.914H58.1642V209.834C57.7498 207.626 57.3428 205.443 56.9432 203.285C56.7523 202.202 56.5303 201.132 56.3616 200.057C56.1929 198.983 56.0375 197.917 55.8732 196.856C55.5535 194.728 55.2353 192.628 54.9186 190.556C54.6551 188.484 54.3961 186.426 54.1416 184.384C54.0143 183.372 53.887 182.364 53.7597 181.36C53.6354 180.357 53.5422 179.358 53.4356 178.368C53.2314 176.382 53.0286 174.425 52.8273 172.498C52.6098 170.571 52.4766 168.662 52.3079 166.784C52.1391 164.906 51.9882 163.059 51.8328 161.243C50.705 146.675 50.1811 133.932 49.8747 123.436C49.5684 112.94 49.524 104.677 49.5195 99.0428C49.5195 96.2234 49.5195 94.0656 49.5506 92.6093C49.5506 91.8811 49.5595 91.3305 49.5773 90.9576C49.5773 90.6068 49.5773 90.4514 49.5773 90.4026C49.5773 90.6157 49.5773 93.4351 49.5773 99.0428C49.5773 104.651 49.6749 112.936 49.9857 123.432C50.2965 133.928 50.8737 146.666 51.9926 161.229C52.1525 163.045 52.3123 164.897 52.4721 166.771C52.632 168.644 52.7785 170.553 52.9961 172.48C53.2136 174.407 53.4045 176.365 53.6132 178.346C53.7198 179.336 53.813 180.335 53.9373 181.338C54.0617 182.342 54.1904 183.35 54.3192 184.362C54.5767 186.395 54.8372 188.451 55.1006 190.529C55.4203 192.602 55.7355 194.703 56.0597 196.825C56.2254 197.885 56.3897 198.952 56.5525 200.026C56.7168 201.101 56.9432 202.171 57.1341 203.25C57.5367 205.407 57.9437 207.589 58.3551 209.794L58.2575 209.714L171.358 209.341L181.126 209.315L181.015 209.457C169.071 165.008 158.024 123.907 148.873 89.8565L148.967 89.9231L49.5773 90.4026Z" fill="#263238"/>
<path d="M49.5769 90.4027C49.5769 90.4027 49.4748 99.8111 51.0687 116.563C52.121 127.663 52.0056 142.204 54.9448 160.755C61.1608 199.946 64.4242 205.94 64.4242 205.94L184.26 205.128L152.367 88.6489L49.5769 90.4027Z" fill="#EBEBEB"/>
<path d="M49.577 90.4027L152.367 88.5513H152.443V88.6223C161.616 121.967 172.574 161.998 184.389 205.128L184.429 205.274H184.282L177.751 205.319L64.4244 206.038H64.38L64.3533 205.985C63.9194 204.974 63.5516 203.936 63.2522 202.877C62.9325 201.842 62.6528 200.799 62.3642 199.769C62.0756 198.739 61.8314 197.7 61.5872 196.661C61.343 195.622 61.1077 194.605 60.8768 193.584C59.9563 189.508 59.1393 185.512 58.4259 181.596C56.9607 173.75 55.7264 166.278 54.6297 159.245C54.0925 155.728 53.6662 152.31 53.2977 148.997C52.9292 145.685 52.6672 142.497 52.4497 139.425C52.0057 133.275 51.7615 127.619 51.4418 122.517C51.2908 119.964 51.0866 117.553 50.8735 115.285C50.6604 113.016 50.4916 110.889 50.3451 108.909C50.0476 104.944 49.8567 101.569 49.7413 98.8299C49.6258 96.0904 49.5726 93.9903 49.5548 92.5739C49.5548 91.8635 49.5548 91.3263 49.5548 90.9666C49.5548 90.607 49.5548 90.425 49.5548 90.425C49.5548 90.5271 49.5548 91.1798 49.5859 92.5695C49.617 93.9592 49.6747 96.0904 49.8034 98.8254C49.9322 101.56 50.132 104.939 50.4384 108.9C50.5893 110.88 50.7669 113.011 50.98 115.276C51.1932 117.54 51.4019 119.955 51.5573 122.508C51.8858 127.614 52.1389 133.271 52.5918 139.411C52.8138 142.484 53.0994 145.675 53.4487 148.984C53.7994 152.287 54.2301 155.706 54.7807 159.223C55.8818 166.251 57.1206 173.719 58.5947 181.56C59.3228 185.485 60.1412 189.492 61.05 193.579C61.2764 194.601 61.494 195.631 61.7604 196.656C62.0268 197.682 62.2665 198.721 62.5374 199.764C62.8082 200.808 63.0924 201.833 63.4254 202.872C63.722 203.913 64.0854 204.933 64.5132 205.927L64.4244 205.874L177.746 205.11L184.278 205.066L184.167 205.212C172.361 162.06 161.403 122.02 152.292 88.6756L152.385 88.7466L49.577 90.4027Z" fill="#263238"/>
<path d="M163.21 94.1858L49.6743 96.1172C49.1948 126.909 60.0373 174.967 67.9849 200.244L187.137 198.996C174.936 166.607 160.91 129.781 163.21 94.1858Z" fill="#F5F5F5"/>
<path d="M163.21 94.1858C163.21 94.2879 163.21 94.8784 163.152 96.1616C163.152 96.8143 163.104 97.6268 163.073 98.5947C163.041 99.5626 162.962 100.686 163.015 101.951C163.073 104.487 163.05 107.617 163.366 111.275C163.428 112.193 163.491 113.145 163.556 114.13C163.654 115.112 163.774 116.128 163.889 117.176C164.005 118.224 164.129 119.303 164.254 120.413C164.378 121.523 164.582 122.664 164.751 123.832C164.92 124.999 165.11 126.207 165.301 127.437C165.492 128.667 165.768 129.919 166.007 131.207C166.247 132.494 166.478 133.813 166.78 135.145C167.082 136.477 167.384 137.844 167.695 139.238C167.854 139.936 168.005 140.642 168.178 141.347L168.72 143.488C169.09 144.926 169.465 146.393 169.843 147.888C170.222 149.382 170.649 150.893 171.122 152.421C171.34 153.189 171.566 153.966 171.784 154.743L172.499 157.092C176.295 169.746 181.476 183.732 187.231 198.961L187.279 199.094H187.137L71.9282 200.324L67.9766 200.364H67.8878L67.8656 200.284C64.9929 191.027 62.5376 181.8 60.3842 172.716C58.2308 163.632 56.3393 154.681 54.7498 145.925C53.1603 137.169 51.8638 128.609 50.9359 120.28C49.9813 112.261 49.5231 104.192 49.5639 96.1172V96.0195H49.6616L163.197 94.1858L49.666 96.2193L49.7637 96.1216C49.7276 104.188 50.1903 112.248 51.149 120.257C52.0769 128.574 53.369 137.129 54.9718 145.885C56.5747 154.641 58.4395 163.583 60.6062 172.663C62.7729 181.743 65.2149 190.964 68.0831 200.213L67.9721 200.133L71.9282 200.093L187.137 198.912L187.044 199.045C181.299 183.816 176.131 169.817 172.343 157.154C172.103 156.364 171.868 155.578 171.628 154.801C171.389 154.024 171.184 153.242 170.971 152.474L169.697 147.941C169.321 146.443 168.948 144.975 168.578 143.536C168.396 142.817 168.218 142.102 168.036 141.396C167.854 140.69 167.717 139.98 167.561 139.283C167.251 137.889 166.944 136.526 166.647 135.185C166.349 133.844 166.132 132.521 165.879 131.242C165.626 129.963 165.39 128.702 165.181 127.472L164.635 123.876C164.471 122.704 164.262 121.567 164.143 120.457C164.023 119.347 163.903 118.259 163.787 117.212C163.672 116.164 163.556 115.147 163.463 114.166C163.37 113.185 163.334 112.226 163.277 111.311C162.975 107.639 163.001 104.509 162.953 101.987C162.908 100.717 163.006 99.607 163.028 98.6391C163.05 97.6712 163.099 96.8631 163.126 96.2104C163.184 94.8873 163.206 94.2879 163.21 94.1858Z" fill="#263238"/>
<path d="M163.418 88.4624L49.5768 90.4027C49.0973 121.19 54.1456 149.477 62.0976 174.763L94.9536 195.107L190.312 193.482C178.102 161.083 161.119 124.058 163.418 88.4624Z" fill="#FAFAFA"/>
<path d="M163.418 88.4624C163.418 88.5645 163.392 89.1639 163.338 90.456C163.307 91.1175 163.267 91.9434 163.263 92.9157C163.259 93.8881 163.219 95.0203 163.263 96.299C163.391 103.69 164.145 111.058 165.519 118.321C167.228 127.725 170.238 138.963 174.585 151.555C176.747 157.855 179.225 164.497 181.911 171.477C184.597 178.457 187.501 185.761 190.4 193.442L190.449 193.575H190.307L94.9536 195.218H94.918H94.8914L80.6834 186.409L62.062 174.865L62.0265 174.843V174.803C57.5261 160.509 54.1984 145.872 52.0765 131.038C50.1755 117.581 49.3204 103.996 49.519 90.4071V90.3094H49.6167L163.458 88.4713L49.6212 90.5092L49.7189 90.4116C49.5205 103.98 50.3696 117.543 52.2585 130.98C54.3811 145.801 57.7073 160.424 62.2041 174.705L62.1553 174.643L80.7766 186.187L94.9846 195H94.9225L190.276 193.393L190.187 193.526C187.292 185.845 184.393 178.532 181.716 171.553C179.038 164.573 176.561 157.926 174.403 151.621C170.069 139.021 167.073 127.77 165.381 118.357C164.005 111.087 163.262 103.711 163.161 96.3123C163.125 95.0336 163.161 93.9014 163.183 92.929C163.205 91.9567 163.236 91.153 163.272 90.4782C163.392 89.1684 163.414 88.5645 163.418 88.4624Z" fill="#263238"/>
<path d="M62.1908 174.75L91.1174 171.642L94.9402 195.103L62.1908 174.75Z" fill="#E0E0E0"/>
<path d="M94.9403 195.103C94.9263 195.066 94.9174 195.027 94.9137 194.987C94.9137 194.894 94.8737 194.783 94.8427 194.641L94.6029 193.309C94.4031 192.123 94.1145 190.436 93.7593 188.341C93.0622 184.114 92.0943 178.257 91.0021 171.668L91.1308 171.766L88.4357 172.055L69.8144 174.022L64.1711 174.59L62.6349 174.736L62.2353 174.767H62.0977C62.1408 174.753 62.1855 174.744 62.2309 174.741L62.6305 174.688L64.1623 174.501L69.7966 173.857L88.4135 171.828L91.1042 171.54H91.2152V171.646C92.2719 178.24 93.2132 184.078 93.8792 188.332C94.2033 190.427 94.4697 192.123 94.6517 193.309C94.7346 193.883 94.8012 194.327 94.8515 194.641L94.8959 194.992C94.9179 195.025 94.933 195.063 94.9403 195.103Z" fill="#263238"/>
<path d="M142.049 120.573C142.049 120.635 126.709 120.95 107.79 121.274C88.8709 121.598 73.5219 121.803 73.5219 121.741C73.5219 121.678 88.8576 121.363 107.785 121.043C126.713 120.724 142.049 120.511 142.049 120.573Z" fill="#263238"/>
<path d="M143.962 131.251C143.962 131.313 128.622 131.628 109.699 131.952C90.7756 132.276 75.4354 132.481 75.4354 132.418C75.4354 132.356 90.7712 132.041 109.699 131.717C128.627 131.393 143.958 131.188 143.962 131.251Z" fill="#263238"/>
<path d="M148.251 141.889C148.251 141.951 132.911 142.266 113.992 142.586C95.0734 142.906 79.7244 143.119 79.7244 143.057C79.7244 142.994 95.0601 142.679 113.988 142.355C132.916 142.031 148.251 141.822 148.251 141.889Z" fill="#263238"/>
<path d="M152.736 153.948C152.736 154.015 137.396 154.325 118.477 154.649C99.5581 154.974 84.209 155.182 84.209 155.116C84.209 155.049 99.5447 154.743 118.472 154.419C137.4 154.094 152.736 153.886 152.736 153.948Z" fill="#263238"/>
<path d="M157.824 165.168C157.824 165.23 142.484 165.545 123.565 165.865C104.646 166.185 89.2971 166.398 89.2971 166.336C89.2971 166.273 104.633 165.958 123.561 165.634C142.488 165.31 157.824 165.101 157.824 165.168Z" fill="#263238"/>
<path d="M54.0527 90.3807C54.0527 90.3807 55.4069 88.4493 56.1529 88.0319C56.8988 87.6146 57.9289 87.5879 58.4039 87.992L58.8746 88.3916C58.8746 88.3916 61.2278 87.2505 62.3955 88.0408C62.3955 88.0408 64.6155 86.9042 65.7521 88.0985C65.7521 88.0985 67.466 86.913 68.2341 87.881C69.0022 88.8489 68.9756 90.545 68.6426 91.4019C68.3096 92.2588 67.7235 95.238 67.204 95.3046C67.204 95.3046 65.8143 95.4911 65.6101 94.7452C65.4058 93.9993 65.3126 93.6352 65.3126 93.6352C65.3126 93.6352 64.8686 96.2992 64.2203 96.4679C63.5721 96.6366 62.3555 96.5789 62.2801 95.4112C62.2801 95.4112 61.7117 96.2992 61.1212 96.0728C60.5307 95.8463 59.7892 95.429 59.8469 94.7052C59.9047 93.9815 59.878 93.2534 59.878 93.2534C59.878 93.2534 59.5894 94.319 59.0566 94.1058C58.5238 93.8927 57.9955 93.9549 57.6758 93.0713C57.3561 92.1878 56.5436 90.4428 56.5436 90.4428L54.0527 90.3807Z" fill="#FFBE9D"/>
<path d="M59.8335 93.2001C59.7979 93.2001 59.9311 92.907 60.0377 92.4364C60.1837 91.8301 60.1913 91.1988 60.0598 90.5893C59.9284 89.9797 59.6613 89.4076 59.2785 88.9154C58.9854 88.5336 58.7545 88.3382 58.7767 88.3072C58.7989 88.2761 59.0653 88.4404 59.4028 88.8133C59.8451 89.3013 60.1513 89.8969 60.2908 90.5405C60.4295 91.184 60.3989 91.8526 60.202 92.4808C60.1401 92.7472 60.0135 92.9942 59.8335 93.2001Z" fill="#EB996E"/>
<path d="M62.5461 88.0496C62.7082 88.3789 62.8204 88.7306 62.8791 89.093C63.2605 90.8263 63.1917 92.6285 62.6793 94.3277C62.5948 94.6831 62.4555 95.0231 62.2664 95.3356C62.5897 94.1509 62.7964 92.9375 62.8835 91.7126C62.8901 90.4835 62.7771 89.2567 62.5461 88.0496Z" fill="#EB996E"/>
<path d="M65.8097 88.1294C66.1261 89.9988 65.961 91.918 65.3302 93.706C65.2636 93.706 65.5655 92.4673 65.6942 90.931C65.823 89.3948 65.7386 88.1383 65.8097 88.1294Z" fill="#EB996E"/>
<path d="M75.2044 88.4582C75.1408 88.3431 75.0524 88.2436 74.9457 88.1668C74.839 88.09 74.7165 88.0379 74.5872 88.0142C74.2815 87.9556 73.9662 87.9714 73.668 88.0603C73.3697 88.1491 73.0971 88.3085 72.8734 88.5248C72.4312 88.9633 72.0625 89.47 71.7811 90.0255L75.0312 89.9989C74.9868 89.4616 75.4042 88.9333 75.2044 88.4582Z" fill="#FFBE9D"/>
<path d="M198.392 199.858C198.357 199.827 198.92 199.218 199.64 198.108C200.057 197.454 200.426 196.77 200.741 196.061C201.516 194.326 201.968 192.463 202.073 190.565C202.115 189.795 202.097 189.023 202.02 188.256C201.891 186.924 201.66 186.142 201.709 186.129C201.784 186.308 201.842 186.494 201.882 186.684C201.947 186.901 201.999 187.122 202.037 187.346C202.086 187.608 202.153 187.905 202.184 188.234C202.283 189.012 202.317 189.798 202.286 190.582C202.241 191.543 202.108 192.497 201.891 193.433C201.658 194.366 201.343 195.277 200.95 196.155C200.62 196.868 200.233 197.552 199.791 198.202C199.609 198.486 199.413 198.717 199.253 198.93C199.115 199.111 198.967 199.284 198.809 199.449C198.685 199.599 198.545 199.736 198.392 199.858Z" fill="#263238"/>
<path d="M191.564 202.389C191.537 202.362 192.092 201.856 192.896 200.95C194.96 198.584 196.434 195.763 197.198 192.718C197.491 191.555 197.589 190.813 197.642 190.822C197.639 191.005 197.619 191.186 197.58 191.364C197.527 191.839 197.447 192.31 197.34 192.776C196.652 195.878 195.155 198.742 193.002 201.079C192.679 201.432 192.337 201.767 191.976 202.082C191.853 202.202 191.714 202.305 191.564 202.389Z" fill="#263238"/>
<path d="M173.809 131.414C182.108 127.646 185.782 117.864 182.013 109.564C178.245 101.265 168.463 97.592 160.163 101.36C151.864 105.128 148.191 114.911 151.959 123.21C155.727 131.509 165.51 135.183 173.809 131.414Z" fill="#D4E068"/>
<path d="M166.584 110.623C166.649 114.45 166.714 118.277 166.78 122.104C166.806 123.53 169.026 123.534 169 122.104C168.937 118.277 168.872 114.45 168.804 110.623C168.782 109.197 166.562 109.193 166.584 110.623Z" fill="white"/>
<path d="M161.652 117.58L173.937 117.367C175.362 117.367 175.367 115.147 173.937 115.147L161.652 115.36C160.226 115.382 160.222 117.602 161.652 117.58Z" fill="white"/>
<g opacity="0.3">
<path d="M170.052 100.122C166.917 99.484 163.661 99.8266 160.728 101.103C161.356 102.186 162.079 103.209 162.89 104.162C163.583 105.024 164.622 105.938 165.665 105.552C165.933 105.405 166.224 105.306 166.526 105.259C166.997 105.259 167.312 105.725 167.574 106.12C168.275 107.172 169.163 108.086 170.194 108.816C170.749 109.211 171.588 109.517 172.036 109.006C172.23 108.728 172.319 108.39 172.29 108.052C172.325 105.526 171.193 102.378 170.052 100.122Z" fill="black"/>
</g>
<path d="M155.484 83.3698L158.148 82.5706C159.21 82.2765 160.326 82.2305 161.409 82.436C162.493 82.6415 163.514 83.0932 164.395 83.756C165.842 84.8438 167.392 86.0826 167.889 86.7575L170.171 89.8255C170.425 90.1537 170.597 90.5371 170.674 90.9445C170.751 91.3519 170.731 91.7717 170.615 92.1698C170.583 92.3431 170.492 92.5 170.358 92.6138L169.55 93.786C169.55 93.786 169.79 95.562 169.798 96.6942C169.807 97.8264 168.706 99.7578 168.706 99.7578L170.864 105.65C170.968 105.918 170.99 106.212 170.928 106.493C170.865 106.774 170.721 107.031 170.513 107.23C170.459 107.293 170.393 107.345 170.318 107.381C170.244 107.418 170.163 107.439 170.08 107.444C169.997 107.448 169.914 107.436 169.836 107.408C169.758 107.379 169.686 107.336 169.625 107.279C168.777 106.595 166.517 101.791 166.517 101.791L165.629 100.761L164.399 100.455C164.399 100.455 164.621 102.231 163.822 102.582L160.443 99.669L157.828 95.229C157.828 95.229 157.757 89.1551 157.1 87.4768L155.484 83.3698Z" fill="#FFBE9D"/>
<path d="M167.112 95.1094C168.028 96.5012 168.571 98.105 168.688 99.7669C168.622 99.7669 168.418 98.6924 167.983 97.4137C167.547 96.135 167.055 95.1449 167.112 95.1094Z" fill="#EB996E"/>
<path d="M169.071 92.383C169.142 92.3519 169.39 92.9336 169.515 93.6706C169.643 94.1113 169.688 94.572 169.648 95.0293C169.461 94.6137 169.34 94.1719 169.288 93.7195C169.178 93.2809 169.105 92.8339 169.071 92.383Z" fill="#EB996E"/>
<path d="M167.033 102.857C166.763 102.469 166.517 102.066 166.296 101.649C165.852 100.894 165.221 99.8733 164.489 98.7588C164.124 98.1994 163.765 97.6755 163.436 97.2004C163.166 96.7771 162.83 96.3994 162.442 96.0815C162.067 95.8129 161.623 95.6586 161.163 95.6375C161.284 95.5894 161.416 95.5756 161.545 95.5976C161.901 95.6331 162.242 95.76 162.535 95.9661C162.955 96.2772 163.319 96.6587 163.609 97.0938C163.951 97.5645 164.315 98.0884 164.684 98.6478C165.416 99.7623 166.016 100.81 166.438 101.587C166.681 101.988 166.88 102.414 167.033 102.857Z" fill="#EB996E"/>
<path d="M161.962 96.1482C161.997 96.1482 162.033 96.499 162.21 97.0362C162.443 97.7325 162.823 98.3702 163.325 98.9054C163.635 99.1825 163.917 99.4888 164.168 99.8201C164.366 100.116 164.473 100.463 164.479 100.819C164.509 101.135 164.461 101.453 164.342 101.747C164.302 101.747 164.364 101.387 164.315 100.832C164.29 100.513 164.18 100.206 163.995 99.9444C163.74 99.6263 163.459 99.3294 163.156 99.0564C162.627 98.5003 162.248 97.8189 162.055 97.0762C161.955 96.7778 161.923 96.4606 161.962 96.1482Z" fill="#EB996E"/>
<path d="M157.531 89.8566C157.464 89.8566 157.531 88.7999 157.331 87.5212C157.131 86.2424 156.825 85.2301 156.922 85.2168C157.039 85.4159 157.128 85.6293 157.189 85.8517C157.361 86.3859 157.486 86.9341 157.562 87.4901C157.709 88.2731 157.699 89.0777 157.531 89.8566Z" fill="#EB996E"/>
<path d="M211.264 209.364C211.264 209.426 167.681 209.581 113.926 209.705C60.1708 209.83 16.5834 209.879 16.5834 209.812C16.5834 209.745 60.1575 209.599 113.926 209.475C167.694 209.35 211.264 209.297 211.264 209.364Z" fill="#263238"/>
</svg>
