<svg width="222" height="222" viewBox="0 0 222 222" fill="none" xmlns="http://www.w3.org/2000/svg">
<path d="M190.201 46.5535L189.122 44.7775C180.011 29.7481 163.543 20.7127 146.178 21.8138C143.939 21.9429 141.713 22.2398 139.518 22.7018C123.729 26.0806 109.996 38.0198 104.3 53.3111C100.952 62.3021 100.015 72.6562 93.6439 79.7957C85.3721 89.0842 71.3329 89.3728 58.9852 88.991C46.6376 88.6091 32.5939 88.9333 24.3532 98.2573C19.1984 104.1 17.56 112.408 17.9774 120.226C19.0741 140.935 33.5174 159.454 51.859 168.658C70.2007 177.862 91.819 178.683 111.901 174.634C140.037 168.964 166.793 153.389 182.879 129.346C198.965 105.304 203.072 72.5186 190.201 46.5535Z" fill="#F5F5F5"/>
<path d="M204.875 203.388C204.875 203.45 161.452 203.503 107.896 203.503C54.341 203.503 10.9089 203.45 10.9089 203.388C10.9089 203.325 54.3233 203.272 107.896 203.272C161.469 203.272 204.875 203.321 204.875 203.388Z" fill="#263238"/>
<path d="M171.54 30.5117H38.3887V147.825H171.54V30.5117Z" fill="white"/>
<path d="M171.54 101.938H38.3887V121.758H171.54V101.938Z" fill="white"/>
<path d="M171.54 79.2627H38.3887V101.942H171.54V79.2627Z" fill="#F5F5F5"/>
<path d="M171.54 124.999H38.3887V147.679H171.54V124.999Z" fill="#F5F5F5"/>
<path d="M118.784 86.3225C118.784 86.3891 103.08 86.4424 83.7081 86.4424C64.3364 86.4424 48.6321 86.3891 48.6321 86.3225C48.6321 86.2559 64.3319 86.207 83.7081 86.207C103.084 86.207 118.784 86.2603 118.784 86.3225Z" fill="#263238"/>
<path d="M78.2511 92.6359C78.2511 92.6981 71.5911 92.7514 63.346 92.7514C55.1009 92.7514 48.4409 92.6981 48.4409 92.6359C48.4409 92.5738 55.1009 92.5205 63.346 92.5205C71.5911 92.5205 78.2511 92.5738 78.2511 92.6359Z" fill="#263238"/>
<path d="M118.784 108.696C118.784 108.758 103.08 108.811 83.7081 108.811C64.3364 108.811 48.6321 108.758 48.6321 108.696C48.6321 108.633 64.3319 108.58 83.7081 108.58C103.084 108.58 118.784 108.629 118.784 108.696Z" fill="#263238"/>
<path d="M78.2511 114.996C78.2511 115.063 71.5911 115.112 63.346 115.112C55.1009 115.112 48.4409 115.063 48.4409 114.996C48.4409 114.929 55.1009 114.881 63.346 114.881C71.5911 114.881 78.2511 114.943 78.2511 114.996Z" fill="#263238"/>
<path d="M118.784 131.064C118.784 131.126 103.08 131.18 83.7081 131.18C64.3364 131.18 48.6321 131.126 48.6321 131.064C48.6321 131.002 64.3319 130.949 83.7081 130.949C103.084 130.949 118.784 130.98 118.784 131.064Z" fill="#263238"/>
<path d="M78.2511 137.373C78.2511 137.44 71.5911 137.489 63.346 137.489C55.1009 137.489 48.4409 137.44 48.4409 137.373C48.4409 137.307 55.1009 137.258 63.346 137.258C71.5911 137.258 78.2511 137.311 78.2511 137.373Z" fill="#263238"/>
<path d="M171.54 30.365H38.3887V41.5582H171.54V30.365Z" fill="#E0E0E0"/>
<path d="M171.54 40.4971H38.3887V51.6903H171.54V40.4971Z" fill="#F5F5F5"/>
<path d="M46.4028 35.6088C46.4002 35.8868 46.3153 36.1578 46.1588 36.3875C46.0024 36.6173 45.7814 36.7957 45.5237 36.9C45.2661 37.0044 44.9833 37.0301 44.711 36.9739C44.4388 36.9178 44.1892 36.7822 43.9939 36.5844C43.7986 36.3866 43.6662 36.1354 43.6134 35.8625C43.5607 35.5895 43.59 35.3071 43.6976 35.0507C43.8052 34.7944 43.9862 34.5757 44.218 34.4221C44.4497 34.2686 44.7218 34.1871 44.9997 34.188C45.1855 34.188 45.3694 34.2249 45.5408 34.2965C45.7122 34.3681 45.8677 34.473 45.9982 34.6052C46.1287 34.7374 46.2317 34.8941 46.3011 35.0664C46.3706 35.2387 46.4051 35.4231 46.4028 35.6088Z" fill="#263238"/>
<path d="M51.5617 35.6089C51.5591 35.8874 51.4738 36.1589 51.3168 36.389C51.1597 36.6191 50.9379 36.7973 50.6795 36.9013C50.4211 37.0052 50.1376 37.0302 49.865 36.9729C49.5924 36.9156 49.3429 36.7788 49.1481 36.5796C48.9533 36.3805 48.822 36.1281 48.7708 35.8542C48.7196 35.5804 48.7508 35.2976 48.8604 35.0415C48.9701 34.7855 49.1532 34.5677 49.3867 34.4157C49.6202 34.2638 49.8935 34.1846 50.172 34.1881C50.5445 34.1928 50.9 34.345 51.1605 34.6113C51.421 34.8776 51.5653 35.2364 51.5617 35.6089Z" fill="#263238"/>
<path d="M56.717 35.6088C56.7144 35.8866 56.6296 36.1574 56.4733 36.3871C56.3171 36.6168 56.0964 36.7951 55.839 36.8996C55.5816 37.0041 55.299 37.0301 55.0269 36.9743C54.7547 36.9185 54.5052 36.7834 54.3097 36.586C54.1142 36.3886 53.9814 36.1378 53.9282 35.8652C53.8749 35.5925 53.9036 35.3102 54.0105 35.0538C54.1174 34.7974 54.2978 34.5784 54.529 34.4243C54.7601 34.2702 55.0317 34.188 55.3095 34.188C55.4955 34.188 55.6796 34.2248 55.8512 34.2964C56.0229 34.368 56.1786 34.4728 56.3095 34.6049C56.4404 34.737 56.5438 34.8938 56.6137 35.0661C56.6837 35.2384 56.7188 35.4228 56.717 35.6088Z" fill="#263238"/>
<path d="M171.566 147.852C171.566 147.106 171.54 102.12 171.5 30.3874L171.566 30.4762L38.4817 30.5029L38.5616 30.3874C38.5616 72.0835 38.5616 111.795 38.5616 147.852L38.4862 147.745L171.58 147.852L38.4862 147.959H38.4062V147.852C38.4062 111.795 38.4062 72.0835 38.4062 30.3874V30.272H38.4995L171.584 30.2942H171.651V30.3874C171.589 102.12 171.566 147.084 171.566 147.852Z" fill="#263238"/>
<path d="M154.308 58.2881H122.793C121.378 58.2881 120.231 59.4351 120.231 60.85V68.1182C120.231 69.5331 121.378 70.6801 122.793 70.6801H154.308C155.723 70.6801 156.87 69.5331 156.87 68.1182V60.85C156.87 59.4351 155.723 58.2881 154.308 58.2881Z" fill="#4F9CD4"/>
<path d="M132.917 64.5668H132.059V65.4154H131.661V64.5668H130.798V64.1929H131.661V63.3396H132.059V64.1929H132.917V64.5668Z" fill="white"/>
<path d="M137.14 65.2042H135.376L135.012 66.0336H134.532L136.033 62.7209H136.512L138.017 66.0336H137.538L137.14 65.2042ZM136.972 64.8255L136.272 63.2003L135.558 64.8255H136.972Z" fill="white"/>
<path d="M140.77 62.5195V66.0335H140.334V65.6356C140.231 65.7741 140.096 65.8855 139.941 65.9599C139.786 66.0342 139.614 66.0694 139.442 66.0623C139.103 66.0623 138.777 65.9274 138.537 65.6874C138.297 65.4473 138.162 65.1217 138.162 64.7823C138.162 64.4428 138.297 64.1172 138.537 63.8772C138.777 63.6371 139.103 63.5023 139.442 63.5023C139.609 63.4951 139.775 63.5279 139.927 63.598C140.079 63.668 140.212 63.7733 140.315 63.905V62.5195H140.77ZM140.319 64.7775C140.311 64.6125 140.254 64.4536 140.156 64.3206C140.058 64.1875 139.924 64.0861 139.769 64.029C139.614 63.9718 139.445 63.9615 139.284 63.9991C139.124 64.0368 138.977 64.1208 138.864 64.2408C138.75 64.3608 138.674 64.5115 138.646 64.6742C138.617 64.8369 138.637 65.0044 138.703 65.156C138.768 65.3076 138.877 65.4366 139.015 65.5269C139.153 65.6173 139.315 65.6651 139.48 65.6644C139.595 65.6667 139.71 65.645 139.816 65.6006C139.922 65.5562 140.017 65.4901 140.096 65.4066C140.175 65.3231 140.236 65.224 140.274 65.1156C140.313 65.0073 140.328 64.8921 140.319 64.7775Z" fill="white"/>
<path d="M144 62.5195V66.0335H143.564V65.6356C143.46 65.7739 143.325 65.885 143.168 65.9593C143.012 66.0336 142.84 66.0689 142.668 66.0623C142.328 66.0623 142.003 65.9274 141.763 65.6874C141.523 65.4473 141.388 65.1217 141.388 64.7823C141.388 64.4428 141.523 64.1172 141.763 63.8772C142.003 63.6371 142.328 63.5023 142.668 63.5023C142.835 63.4955 143.002 63.5285 143.155 63.5985C143.307 63.6684 143.441 63.7735 143.545 63.905V62.5195H144ZM143.55 64.7775C143.559 64.661 143.543 64.544 143.505 64.4337C143.466 64.3235 143.405 64.2224 143.326 64.1367C143.246 64.0511 143.15 63.9828 143.043 63.936C142.936 63.8893 142.82 63.8652 142.704 63.8652C142.587 63.8652 142.471 63.8893 142.364 63.936C142.257 63.9828 142.161 64.0511 142.082 64.1367C142.002 64.2224 141.941 64.3235 141.903 64.4337C141.864 64.544 141.849 64.661 141.857 64.7775C141.849 64.894 141.864 65.011 141.903 65.1212C141.941 65.2315 142.002 65.3326 142.082 65.4182C142.161 65.5039 142.257 65.5722 142.364 65.6189C142.471 65.6656 142.587 65.6897 142.704 65.6897C142.82 65.6897 142.936 65.6656 143.043 65.6189C143.15 65.5722 143.246 65.5039 143.326 65.4182C143.405 65.3326 143.466 65.2315 143.505 65.1212C143.543 65.011 143.559 64.894 143.55 64.7775Z" fill="white"/>
<path d="M159.844 87.9519H140.393C138.223 87.9519 136.463 89.7112 136.463 91.8813V91.8857C136.463 94.0559 138.223 95.8151 140.393 95.8151H159.844C162.015 95.8151 163.774 94.0559 163.774 91.8857V91.8813C163.774 89.7112 162.015 87.9519 159.844 87.9519Z" fill="#E0E0E0"/>
<path d="M159.84 118.517H140.393C139.877 118.517 139.366 118.415 138.889 118.218C138.412 118.02 137.979 117.731 137.614 117.366C137.249 117.001 136.96 116.568 136.762 116.091C136.565 115.615 136.463 115.104 136.463 114.588C136.463 113.545 136.877 112.546 137.614 111.809C138.351 111.072 139.351 110.658 140.393 110.658H159.84C160.356 110.658 160.867 110.76 161.344 110.957C161.82 111.155 162.254 111.444 162.618 111.809C162.983 112.174 163.273 112.607 163.47 113.084C163.668 113.561 163.769 114.072 163.769 114.588C163.769 115.104 163.668 115.615 163.47 116.091C163.273 116.568 162.983 117.001 162.618 117.366C162.254 117.731 161.82 118.02 161.344 118.218C160.867 118.415 160.356 118.517 159.84 118.517Z" fill="#EBEBEB"/>
<path d="M159.844 132.898H140.393C138.223 132.898 136.463 134.657 136.463 136.827V136.832C136.463 139.002 138.223 140.761 140.393 140.761H159.844C162.015 140.761 163.774 139.002 163.774 136.832V136.827C163.774 134.657 162.015 132.898 159.844 132.898Z" fill="#E0E0E0"/>
<path d="M35.0752 171.011C31.5232 172.258 26.8435 171.144 23.7887 168.911C20.734 166.677 18.5362 163.485 16.5915 160.244C15.7568 158.859 14.9487 157.42 14.6823 155.804C14.4159 154.188 14.8066 152.421 16.0409 151.364C17.9635 149.748 20.9249 150.565 23.0828 151.808C26.4843 153.791 29.3527 156.572 31.441 159.91C33.5294 163.249 34.775 167.044 35.0708 170.971" fill="#D4E068"/>
<path d="M31.2347 179.558C29.0901 182.386 25.4049 183.647 21.8618 183.811C18.3187 183.976 14.8111 182.994 11.4944 181.72C10.2912 181.276 8.97694 180.628 8.56402 179.407C8.43389 178.935 8.42339 178.438 8.53347 177.962C8.64355 177.485 8.87075 177.043 9.1945 176.676C9.85071 175.95 10.6713 175.391 11.5877 175.047C14.8466 173.657 18.5851 173.59 22.0172 174.483C25.4493 175.375 28.4508 177.36 31.2347 179.558Z" fill="#D4E068"/>
<path d="M35.1196 155.711C32.167 155.773 29.9293 153.184 28.5884 150.547C26.7263 146.862 26.1035 142.675 26.8124 138.608C27.0832 137.094 27.6515 135.469 29.0057 134.741C30.3599 134.013 32.167 134.488 33.317 135.54C34.4669 136.592 35.093 138.093 35.537 139.58C37.1265 144.717 36.7846 150.618 35.093 155.711" fill="#D4E068"/>
<path d="M44.8429 172.063C39.8035 163.485 38.9643 152.971 41.9391 143.496C42.4231 141.96 43.3333 140.197 44.945 140.095C46.721 139.98 47.8488 141.969 48.3416 143.687C50.0688 149.717 49.7003 156.119 49.3184 162.375C49.0831 166.234 47.76 169.528 44.8429 172.063Z" fill="#D4E068"/>
<path d="M50.0732 175.589C51.0106 172.649 52.5959 169.958 54.7122 167.713C56.8286 165.469 59.422 163.728 62.301 162.619C63.633 162.118 65.3424 161.829 66.337 162.855C67.3315 163.88 67.0163 165.519 66.3902 166.793C65.3735 168.818 63.7262 170.443 62.0834 172.005C60.5916 173.426 59.042 174.852 57.155 175.677C55.268 176.503 51.796 176.716 50.0732 175.589Z" fill="#D4E068"/>
<path d="M18.825 153.553C18.8508 153.583 18.8807 153.61 18.9137 153.633L19.1846 153.841L20.2413 154.632L21.0094 155.2C21.2847 155.413 21.5733 155.644 21.8974 155.915C22.519 156.434 23.2561 156.998 23.9976 157.691L25.1875 158.774C25.596 159.152 25.9955 159.578 26.4218 160C27.2876 160.834 28.1267 161.807 29.0325 162.81C30.9332 165.05 32.6693 167.424 34.2273 169.914C35.7522 172.421 37.095 175.034 38.2455 177.733C38.7383 178.99 39.2356 180.175 39.5775 181.325C39.764 181.898 39.9682 182.439 40.1236 182.977L40.5676 184.522C40.8651 185.503 41.0383 186.413 41.2247 187.186C41.3135 187.581 41.4068 187.949 41.4734 188.291C41.54 188.633 41.5888 188.948 41.6377 189.228C41.7353 189.779 41.8153 190.214 41.873 190.529L41.9396 190.867C41.9424 190.905 41.9529 190.943 41.9707 190.978C41.9757 190.939 41.9757 190.9 41.9707 190.862C41.9707 190.773 41.944 190.658 41.9263 190.52C41.8819 190.205 41.8197 189.765 41.7353 189.215C41.6954 188.931 41.6465 188.615 41.5933 188.269C41.54 187.923 41.4467 187.559 41.3668 187.159C41.1892 186.364 41.0294 185.445 40.7408 184.464C40.6031 183.967 40.4655 183.447 40.2968 182.906C40.1281 182.364 39.946 181.818 39.7596 181.245C39.4088 180.091 38.9204 178.896 38.4276 177.631C37.2931 174.916 35.9573 172.289 34.4316 169.772C32.867 167.276 31.1171 164.902 29.1968 162.668C28.3088 161.665 27.4208 160.692 26.5594 159.862C26.1154 159.44 25.7291 159.014 25.3118 158.641L24.1086 157.567C23.3582 156.87 22.6123 156.315 21.9774 155.791C21.6577 155.542 21.3646 155.298 21.0894 155.089L20.3079 154.538L19.2246 153.784L18.9404 153.593C18.8605 153.571 18.8294 153.548 18.825 153.553Z" fill="#263238"/>
<path d="M12.1514 177.329C12.2686 177.323 12.3848 177.304 12.4977 177.271C12.7241 177.231 13.0482 177.147 13.4789 177.076C14.6843 176.847 15.9035 176.699 17.1286 176.632C21.178 176.404 25.2272 177.085 28.979 178.626C32.7174 180.2 36.0553 182.593 38.747 185.627C39.5617 186.545 40.3151 187.515 41.0025 188.531C41.2511 188.886 41.4198 189.179 41.553 189.366C41.6142 189.466 41.6809 189.562 41.7528 189.654C41.7099 189.546 41.6564 189.442 41.593 189.344C41.4731 189.144 41.3177 188.842 41.078 188.478C40.4116 187.438 39.6696 186.448 38.858 185.516C36.1896 182.414 32.8322 179.98 29.0544 178.408C25.2766 176.836 21.1833 176.17 17.102 176.463C15.8726 176.547 14.6512 176.722 13.4478 176.987C13.0038 177.072 12.6975 177.174 12.471 177.231C12.2446 177.289 12.1514 177.325 12.1514 177.329Z" fill="#263238"/>
<path d="M30.7646 138.164C30.7595 138.208 30.7595 138.253 30.7646 138.297L30.8445 138.683C30.92 139.039 31.031 139.531 31.173 140.162C31.4661 141.441 31.9056 143.292 32.4651 145.574C33.5751 150.138 35.1868 156.426 36.8696 163.392C37.7043 166.882 38.4591 170.212 39.0896 173.244C39.72 176.277 40.275 179.016 40.6791 181.343C40.8966 182.493 41.0609 183.563 41.2163 184.451C41.3717 185.339 41.496 186.165 41.5893 186.813C41.6825 187.461 41.7669 187.95 41.8246 188.309C41.8512 188.469 41.8734 188.598 41.8912 188.695C41.8942 188.741 41.9047 188.786 41.9223 188.829C41.9272 188.784 41.9272 188.74 41.9223 188.695C41.9223 188.593 41.8956 188.465 41.8779 188.3L41.7358 186.813C41.6559 186.16 41.5449 185.365 41.3984 184.442C41.2518 183.518 41.1053 182.471 40.8966 181.312C40.5148 178.994 40.0086 176.246 39.356 173.2C38.7033 170.154 37.9662 166.828 37.136 163.339C35.4532 156.368 33.8148 150.09 32.6604 145.534C32.0877 143.27 31.6259 141.427 31.2974 140.14C31.142 139.514 31.0132 139.025 30.9244 138.674C30.8844 138.515 30.8489 138.39 30.8223 138.293C30.8072 138.248 30.7879 138.205 30.7646 138.164Z" fill="#263238"/>
<path d="M42.3393 188.149C42.353 188.117 42.3634 188.082 42.3704 188.047C42.3704 187.963 42.4103 187.861 42.4414 187.737C42.4991 187.448 42.5835 187.048 42.6901 186.542C42.9032 185.508 43.1829 184.003 43.507 182.133C44.1553 178.404 44.9189 173.218 45.3896 167.455C45.6205 164.573 45.7448 161.82 45.8025 159.316C45.8602 156.812 45.8025 154.552 45.7448 152.656C45.7448 151.71 45.656 150.853 45.616 150.103C45.5761 149.353 45.5272 148.705 45.4784 148.176C45.4295 147.648 45.394 147.262 45.3629 146.964C45.3629 146.835 45.3629 146.733 45.3274 146.649C45.3321 146.613 45.3321 146.578 45.3274 146.542C45.3225 146.578 45.3225 146.613 45.3274 146.649C45.3274 146.738 45.3274 146.84 45.3274 146.968C45.3274 147.266 45.3629 147.67 45.394 148.185C45.4251 148.7 45.4651 149.357 45.4917 150.112C45.5183 150.867 45.5716 151.715 45.5849 152.661C45.6427 154.552 45.6471 156.808 45.5849 159.321C45.5228 161.834 45.3807 164.569 45.1409 167.446C44.6703 173.218 43.9333 178.381 43.3294 182.098C43.0275 183.967 42.77 185.477 42.5835 186.538C42.4991 187.044 42.4281 187.426 42.3793 187.737C42.3793 187.865 42.3437 187.967 42.3304 188.052C42.3275 188.085 42.3305 188.118 42.3393 188.149Z" fill="#263238"/>
<path d="M41.9663 189.242C42.0166 189.146 42.0596 189.046 42.0951 188.944L42.4281 188.083L42.6634 187.457C42.7655 187.235 42.8721 186.99 42.9875 186.733C43.1029 186.475 43.2273 186.196 43.356 185.898C43.4848 185.601 43.658 185.308 43.8 184.988L44.3151 183.985L44.9278 182.932C45.3318 182.195 45.8558 181.458 46.3575 180.659C47.537 178.977 48.8103 177.363 50.1714 175.824C51.5479 174.297 53.0017 172.842 54.5271 171.464C55.2552 170.851 55.9168 170.243 56.5872 169.728L57.5418 168.968L58.4298 168.302C58.9982 167.858 59.5398 167.503 60.0105 167.188C60.4811 166.873 60.8985 166.593 61.2315 166.389L62.0129 165.892C62.1079 165.839 62.1972 165.776 62.2793 165.705C62.1784 165.744 62.0817 165.793 61.9907 165.852L61.1871 166.296C60.8319 166.491 60.4145 166.74 59.9394 167.064C59.4643 167.388 58.9094 167.725 58.3322 168.152L57.4131 168.809L56.4451 169.563C55.7703 170.07 55.1131 170.678 54.3672 171.286C52.8256 172.66 51.3597 174.117 49.9761 175.651C48.6135 177.201 47.3458 178.832 46.1799 180.535C45.6737 181.343 45.1542 182.084 44.7546 182.835L44.1508 183.9L43.6491 184.913C43.4937 185.237 43.3294 185.539 43.2051 185.836C43.0807 186.134 42.9609 186.418 42.8499 186.68C42.7389 186.942 42.6367 187.19 42.5435 187.417C42.4503 187.643 42.3881 187.861 42.3215 188.052C42.2016 188.411 42.1084 188.704 42.0329 188.94C42.0006 189.038 41.9783 189.139 41.9663 189.242Z" fill="#263238"/>
<path d="M20.6938 163.503C20.6938 163.539 21.3066 163.539 22.2878 163.596C23.5643 163.663 24.8353 163.811 26.0929 164.04C27.348 164.284 28.5864 164.607 29.8003 165.008C30.2963 165.199 30.8016 165.365 31.3143 165.506C31.1993 165.419 31.0721 165.35 30.9369 165.301C30.6883 165.181 30.3198 165.026 29.8536 164.857C28.6457 164.413 27.4025 164.072 26.1373 163.836C24.8693 163.595 23.5829 163.463 22.2922 163.441C21.7994 163.441 21.4042 163.441 21.1201 163.463C20.9768 163.455 20.833 163.468 20.6938 163.503Z" fill="#263238"/>
<path d="M16.8936 182.071C17.4453 180.939 18.1424 179.884 18.967 178.932C20.379 177.391 21.9774 176.712 21.933 176.632C21.5724 176.729 21.2282 176.878 20.9118 177.076C20.1261 177.53 19.4124 178.099 18.7939 178.763C18.1774 179.422 17.664 180.171 17.271 180.983C17.0844 181.322 16.9568 181.69 16.8936 182.071Z" fill="#263238"/>
<path d="M29.858 145.13C29.8092 145.179 30.746 146.098 31.7495 147.35C32.7529 148.602 33.4811 149.686 33.5255 149.65C33.1103 148.76 32.569 147.935 31.9182 147.199C31.3347 146.414 30.6408 145.717 29.858 145.13Z" fill="#263238"/>
<path d="M32.904 139.86C32.5171 141.167 32.2876 142.516 32.2202 143.878C32.4417 143.233 32.5907 142.566 32.6642 141.889C32.8215 141.224 32.902 140.543 32.904 139.86Z" fill="#263238"/>
<path d="M42.3303 156.372C42.7514 157.44 43.2439 158.479 43.8044 159.48C44.2978 160.515 44.8616 161.515 45.4916 162.473C45.0718 161.404 44.5793 160.366 44.0175 159.365C43.5241 158.33 42.9604 157.33 42.3303 156.372Z" fill="#263238"/>
<path d="M47.9514 150.769C47.467 151.479 47.0479 152.23 46.6993 153.016C46.2819 153.765 45.9356 154.551 45.6648 155.364C46.1493 154.657 46.567 153.907 46.9124 153.122C47.3315 152.372 47.6793 151.584 47.9514 150.769Z" fill="#263238"/>
<path d="M56.1877 169.927C56.1877 169.994 57.2045 169.803 58.4521 169.714C59.6998 169.626 60.721 169.674 60.7254 169.608C59.9771 169.428 59.2026 169.385 58.4388 169.479C57.6682 169.497 56.9065 169.649 56.1877 169.927Z" fill="#263238"/>
<path d="M50.5577 186.866L47.7516 201.62C47.6617 202.094 47.4093 202.521 47.0381 202.828C46.6668 203.135 46.2 203.303 45.7181 203.303H37.4331C36.9433 203.304 36.4692 203.13 36.0953 202.814C35.7213 202.498 35.4716 202.059 35.3907 201.576L32.9531 186.866H50.5577Z" fill="#263238"/>
<path d="M49.6475 191.661H33.7923L32.9531 186.866H50.5577L49.6475 191.661Z" fill="#455A64"/>
<path d="M49.647 191.661L49.314 193.411H34.0359L33.7917 191.661H49.647Z" fill="#FAFAFA"/>
<path d="M171.903 189.952L172.254 198.548C172.254 198.548 163.632 201.794 163.543 203.388L180.237 203.308V189.89L171.903 189.952Z" fill="#263238"/>
<path d="M177.413 197.802C177.574 197.851 177.711 197.957 177.799 198.1C177.886 198.243 177.918 198.414 177.888 198.579C177.844 198.741 177.74 198.88 177.598 198.968C177.455 199.056 177.284 199.087 177.12 199.054C176.95 199.003 176.805 198.891 176.713 198.739C176.621 198.588 176.589 198.407 176.623 198.233C176.683 198.067 176.806 197.931 176.966 197.854C177.125 197.778 177.308 197.767 177.475 197.824" fill="#E0E0E0"/>
<path d="M180.236 203.308L180.183 201.976L164.199 202.557C164.199 202.557 163.457 202.886 163.542 203.41L180.236 203.308Z" fill="#455A64"/>
<path d="M171.983 198.468C171.983 198.548 172.391 198.584 172.795 198.841C173.199 199.099 173.413 199.445 173.488 199.414C173.564 199.383 173.439 198.908 172.946 198.601C172.454 198.295 171.965 198.393 171.983 198.468Z" fill="white"/>
<path d="M170.233 199.196C170.233 199.276 170.571 199.414 170.85 199.756C171.13 200.098 171.21 200.466 171.294 200.462C171.379 200.457 171.423 199.996 171.072 199.574C170.722 199.152 170.238 199.121 170.233 199.196Z" fill="white"/>
<path d="M169.253 201.296C169.324 201.296 169.435 200.906 169.226 200.462C169.017 200.018 168.631 199.84 168.596 199.911C168.56 199.982 168.8 200.213 168.969 200.582C169.137 200.95 169.164 201.292 169.253 201.296Z" fill="white"/>
<path d="M172.12 196.497C172.156 196.572 172.529 196.457 173.008 196.497C173.488 196.537 173.825 196.67 173.87 196.599C173.914 196.528 173.563 196.239 173.022 196.213C172.48 196.186 172.08 196.435 172.12 196.497Z" fill="white"/>
<path d="M197.58 191.955L199.747 202.136L199.139 210.683C199.128 210.828 199.148 210.975 199.197 211.113C199.245 211.25 199.322 211.377 199.421 211.484C199.521 211.591 199.641 211.676 199.775 211.735C199.909 211.793 200.054 211.823 200.2 211.824C200.369 211.824 200.536 211.784 200.686 211.706C200.837 211.629 200.967 211.517 201.065 211.38C202.344 209.604 207.015 202.975 206.837 202.238C206.602 201.385 205.266 191.346 205.266 191.346L197.58 191.955Z" fill="#263238"/>
<path d="M200.194 211.824L206.677 201.545L206.761 201.989C206.833 202.363 206.769 202.751 206.579 203.081C206.073 203.969 204.625 206.385 201.091 211.384C200.99 211.525 200.857 211.639 200.702 211.716C200.547 211.793 200.376 211.832 200.203 211.828L200.194 211.824Z" fill="#455A64"/>
<g opacity="0.6">
<path d="M203.954 198.642C203.849 198.76 203.791 198.914 203.791 199.072C203.791 199.231 203.849 199.384 203.954 199.503C204.066 199.617 204.218 199.683 204.377 199.688C204.537 199.693 204.692 199.636 204.811 199.53C204.924 199.404 204.987 199.241 204.987 199.072C204.987 198.903 204.924 198.741 204.811 198.615C204.682 198.512 204.517 198.462 204.352 198.476C204.187 198.49 204.034 198.567 203.923 198.69" fill="white"/>
</g>
<path d="M201.686 206.904C201.379 206.632 201.024 206.42 200.638 206.278C200.235 206.204 199.821 206.204 199.417 206.278C199.417 206.256 199.52 206.154 199.755 206.074C200.064 205.983 200.392 205.983 200.701 206.074C201.012 206.159 201.292 206.332 201.509 206.571C201.664 206.753 201.709 206.904 201.686 206.904Z" fill="white"/>
<path d="M201.216 208.418C200.891 208.311 200.56 208.222 200.226 208.152C199.885 208.153 199.544 208.173 199.205 208.209C199.506 207.988 199.879 207.887 200.251 207.926C200.622 207.964 200.966 208.14 201.216 208.418Z" fill="white"/>
<path d="M202.712 204.902C201.764 204.41 200.693 204.206 199.63 204.316C200.147 204.11 200.711 204.057 201.256 204.16C201.802 204.264 202.307 204.521 202.712 204.902Z" fill="white"/>
<path d="M202.312 201.749C202.312 201.816 201.686 201.687 200.945 201.803C200.203 201.918 199.657 202.198 199.613 202.14C199.985 201.839 200.431 201.644 200.904 201.576C201.378 201.507 201.861 201.567 202.303 201.749H202.312Z" fill="white"/>
<path d="M201.753 198.748C201.28 198.681 200.801 198.681 200.328 198.748C199.872 198.887 199.438 199.087 199.036 199.343C199.036 199.343 199.102 199.174 199.311 198.996C199.591 198.764 199.923 198.603 200.279 198.526C200.632 198.442 201 198.442 201.354 198.526C201.62 198.623 201.762 198.721 201.753 198.748Z" fill="white"/>
<path d="M200.243 198.184C200.186 198.065 200.155 197.934 200.155 197.802C200.122 197.44 200.162 197.075 200.27 196.728C200.33 196.469 200.471 196.237 200.674 196.066C200.747 196.017 200.833 195.991 200.921 195.991C201.008 195.991 201.094 196.017 201.167 196.066C201.304 196.177 201.393 196.336 201.416 196.51C201.457 196.858 201.376 197.209 201.186 197.503C200.996 197.797 200.71 198.016 200.377 198.122C200.045 198.221 199.691 198.219 199.361 198.116C199.03 198.014 198.738 197.815 198.521 197.545C198.466 197.476 198.427 197.397 198.405 197.312C198.384 197.227 198.381 197.138 198.396 197.052C198.425 196.969 198.477 196.897 198.547 196.844C198.616 196.791 198.7 196.76 198.787 196.754C199.05 196.761 199.306 196.837 199.529 196.976C199.848 197.146 200.135 197.37 200.377 197.638C200.473 197.73 200.55 197.84 200.603 197.962C200.263 197.628 199.878 197.344 199.458 197.118C199.257 197.009 199.033 196.948 198.805 196.941C198.757 196.942 198.71 196.958 198.671 196.988C198.633 197.017 198.605 197.058 198.592 197.105C198.586 197.162 198.592 197.219 198.609 197.274C198.627 197.328 198.656 197.378 198.694 197.42C198.888 197.648 199.144 197.815 199.431 197.901C199.717 197.987 200.023 197.988 200.31 197.904C200.587 197.807 200.824 197.622 200.985 197.376C201.146 197.13 201.22 196.838 201.198 196.546C201.182 196.427 201.124 196.318 201.034 196.239C200.995 196.21 200.947 196.194 200.898 196.194C200.85 196.194 200.802 196.21 200.763 196.239C200.592 196.384 200.469 196.578 200.412 196.794C200.277 197.244 200.22 197.715 200.243 198.184Z" fill="white"/>
<path d="M165.758 120.044C165.758 120.044 165.687 124.573 165.989 130.421C166.105 132.685 170.873 195.627 170.873 195.627L181.165 195.884L179.749 137.059L181.525 137.503C181.525 137.503 186.946 157.118 188.127 161.607C189.53 166.935 197.083 197.225 197.083 197.225L206.491 197.571L200.302 162.091L194.96 128.316L193.89 118.495L165.758 120.044Z" fill="#455A64"/>
<path d="M181.524 131.109C181.386 131.203 181.237 131.281 181.08 131.34C180.673 131.534 180.241 131.672 179.797 131.753C179.483 131.81 179.161 131.81 178.847 131.753C178.478 131.683 178.138 131.509 177.866 131.251C177.586 130.951 177.388 130.584 177.293 130.185C177.182 129.781 177.124 129.364 177.049 128.942C176.76 127.237 176.578 125.683 176.476 124.556C176.427 123.992 176.396 123.534 176.378 123.224C176.361 123.06 176.361 122.895 176.378 122.731C176.426 122.888 176.455 123.05 176.463 123.215C176.507 123.574 176.565 124.018 176.631 124.547C176.769 125.67 176.978 127.211 177.262 128.911C177.408 129.755 177.502 130.607 178.008 131.131C178.247 131.343 178.531 131.498 178.838 131.587C179.145 131.675 179.468 131.694 179.784 131.642C180.22 131.575 180.647 131.461 181.058 131.3C181.205 131.218 181.362 131.154 181.524 131.109Z" fill="#263238"/>
<path d="M178.626 123.059C178.626 123.059 178.692 123.01 178.839 123.001C179.045 123.004 179.244 123.075 179.407 123.201C179.534 123.295 179.637 123.417 179.709 123.557C179.782 123.697 179.821 123.852 179.824 124.009C179.807 124.208 179.733 124.397 179.611 124.554C179.488 124.71 179.323 124.828 179.135 124.893C178.946 124.957 178.744 124.966 178.551 124.917C178.358 124.868 178.183 124.764 178.048 124.618C177.954 124.492 177.89 124.347 177.86 124.193C177.83 124.04 177.835 123.881 177.875 123.73C177.921 123.526 178.038 123.345 178.204 123.219C178.319 123.13 178.399 123.121 178.404 123.13C178.213 123.294 178.081 123.515 178.026 123.761C178.001 123.888 178.004 124.019 178.034 124.144C178.065 124.27 178.123 124.388 178.204 124.489C178.311 124.601 178.449 124.678 178.6 124.71C178.751 124.743 178.908 124.729 179.052 124.671C179.2 124.628 179.332 124.542 179.43 124.423C179.529 124.304 179.589 124.159 179.602 124.005C179.604 123.875 179.576 123.747 179.523 123.629C179.469 123.51 179.39 123.405 179.292 123.321C179.102 123.167 178.869 123.076 178.626 123.059Z" fill="#263238"/>
<path d="M194.832 127.708C194.718 127.744 194.6 127.761 194.481 127.757C194.158 127.778 193.835 127.778 193.513 127.757C191.372 127.569 189.36 126.654 187.812 125.164C187.578 124.941 187.362 124.7 187.164 124.445C187.084 124.357 187.016 124.258 186.964 124.152C186.995 124.129 187.315 124.516 187.918 125.04C188.704 125.732 189.586 126.305 190.538 126.74C191.494 127.168 192.509 127.451 193.548 127.579C194.33 127.686 194.832 127.668 194.832 127.708Z" fill="#263238"/>
<path d="M169.909 123.033C169.808 123.389 169.671 123.734 169.501 124.063C169.137 124.832 168.691 125.558 168.169 126.23C167.691 126.854 167.136 127.415 166.517 127.899C166.287 128.101 166.026 128.264 165.744 128.383C165.971 128.165 166.209 127.961 166.459 127.77C167.048 127.258 167.586 126.69 168.067 126.074C168.569 125.414 169.014 124.713 169.399 123.979C169.718 123.397 169.887 123.015 169.909 123.033Z" fill="#263238"/>
<path d="M175.823 57.982C175.98 55.9795 176.884 54.1093 178.357 52.7436C179.83 51.3778 181.763 50.6166 183.771 50.6116H184.184C188.646 50.8602 190.928 54.7896 190.555 59.2429L189.587 73.0913L181.635 81.3586L179.602 76.4169V73.1268C179.602 73.1268 175.313 72.4697 175.246 68.1851C175.237 66.1116 175.522 61.8403 175.823 57.982Z" fill="#FFBE9D"/>
<path d="M179.589 73.1227C181.579 73.1239 183.528 72.5554 185.205 71.4844C185.205 71.4844 183.873 74.5924 179.611 74.1972L179.589 73.1227Z" fill="#EB996E"/>
<path d="M176.969 61.5563C176.969 61.715 177.03 61.8676 177.14 61.9818C177.25 62.0961 177.401 62.1632 177.559 62.169C177.637 62.175 177.715 62.1655 177.789 62.1409C177.863 62.1164 177.931 62.0774 177.99 62.0261C178.049 61.9748 178.097 61.9124 178.131 61.8424C178.165 61.7724 178.185 61.6962 178.19 61.6184C178.192 61.4586 178.132 61.3042 178.021 61.1887C177.911 61.0733 177.759 61.0059 177.599 61.0013C177.521 60.9952 177.443 61.0049 177.368 61.0297C177.294 61.0545 177.226 61.0939 177.167 61.1457C177.108 61.1974 177.06 61.2604 177.026 61.3309C176.992 61.4014 176.973 61.4781 176.969 61.5563Z" fill="#263238"/>
<path d="M176.747 60.0779C176.827 60.1578 177.289 59.8115 177.946 59.8115C178.603 59.8115 179.091 60.1401 179.162 60.0601C179.234 59.9802 179.118 59.8781 178.909 59.7271C178.625 59.5282 178.284 59.4241 177.937 59.4297C177.594 59.429 177.259 59.5379 176.982 59.7405C176.778 59.8959 176.712 60.0424 176.747 60.0779Z" fill="#263238"/>
<path d="M182.927 61.7162C182.927 61.8761 182.989 62.0298 183.1 62.1449C183.211 62.26 183.362 62.3276 183.522 62.3333C183.6 62.3387 183.678 62.3286 183.752 62.3036C183.826 62.2786 183.895 62.2391 183.953 62.1875C184.012 62.1359 184.06 62.0731 184.094 62.0029C184.128 61.9326 184.148 61.8563 184.153 61.7783C184.153 61.6184 184.091 61.4647 183.98 61.3496C183.869 61.2345 183.718 61.1669 183.558 61.1612C183.48 61.1551 183.401 61.1648 183.327 61.1896C183.253 61.2144 183.184 61.2539 183.125 61.3056C183.067 61.3573 183.019 61.4203 182.985 61.4908C182.951 61.5613 182.931 61.638 182.927 61.7162Z" fill="#263238"/>
<path d="M183.224 60.1801C183.304 60.26 183.766 59.9181 184.423 59.9181C185.08 59.9181 185.569 60.2422 185.64 60.1623C185.711 60.0824 185.595 59.9847 185.387 59.8293C185.1 59.6341 184.761 59.5318 184.414 59.5363C184.071 59.5343 183.736 59.6434 183.46 59.8471C183.26 60.0025 183.189 60.1446 183.224 60.1801Z" fill="#263238"/>
<path d="M180.849 65.0774C180.503 64.9664 180.143 64.9022 179.779 64.8864C179.611 64.8864 179.451 64.8332 179.42 64.7222C179.406 64.5476 179.445 64.3731 179.531 64.2204L180.028 62.9373C180.712 61.1124 181.209 59.6117 181.134 59.5851C181.058 59.5584 180.445 61.0148 179.757 62.8396C179.593 63.2836 179.437 63.7276 179.286 64.1316C179.181 64.3352 179.151 64.5696 179.202 64.7932C179.226 64.8522 179.264 64.9049 179.311 64.9473C179.359 64.9896 179.416 65.0204 179.477 65.0374C179.57 65.062 179.666 65.0754 179.762 65.0774C180.123 65.1224 180.488 65.1224 180.849 65.0774Z" fill="#263238"/>
<path d="M182.79 65.5257C182.684 65.5257 182.684 66.2361 182.071 66.7423C181.458 67.2484 180.699 67.1863 180.694 67.2795C180.69 67.3727 180.863 67.4172 181.187 67.4216C181.607 67.4299 182.015 67.2864 182.337 67.0176C182.648 66.7627 182.848 66.3962 182.892 65.9963C182.928 65.7122 182.839 65.5213 182.79 65.5257Z" fill="#263238"/>
<path d="M183.052 57.6002C183.114 57.7778 183.771 57.689 184.548 57.7823C185.325 57.8755 185.947 58.0842 186.049 57.9199C186.093 57.8444 185.982 57.6757 185.734 57.5026C185.396 57.2906 185.015 57.1584 184.619 57.1161C184.222 57.0738 183.822 57.1225 183.447 57.2584C183.163 57.3738 183.021 57.5159 183.052 57.6002Z" fill="#263238"/>
<path d="M176.987 58.1642C177.102 58.3151 177.555 58.1642 178.101 58.1642C178.647 58.1642 179.109 58.2618 179.216 58.1064C179.265 58.031 179.189 57.88 178.985 57.7379C178.72 57.57 178.41 57.4864 178.097 57.4982C177.776 57.5032 177.466 57.6088 177.209 57.8001C176.996 57.9422 176.933 58.0931 176.987 58.1642Z" fill="#263238"/>
<path d="M174.234 54.2304C174.266 54.0336 174.369 53.8555 174.524 53.7296C174.678 53.6036 174.874 53.5385 175.073 53.5466C174.865 53.4937 174.668 53.4035 174.491 53.2802C174.403 53.2114 174.335 53.1193 174.296 53.0143C174.257 52.9092 174.247 52.7952 174.269 52.6852C174.371 52.3522 174.793 52.2723 175.126 52.1658C175.565 52.0287 175.948 51.7568 176.223 51.3888C176.618 50.8648 176.756 50.19 177.089 49.6128C177.307 49.2462 177.606 48.9334 177.961 48.6975C178.317 48.4616 178.721 48.3086 179.144 48.2498C179.567 48.191 179.997 48.2278 180.404 48.3577C180.811 48.4876 181.183 48.7071 181.493 49C181.813 48.6523 182.21 48.3859 182.653 48.2228C183.096 48.0597 183.572 48.0048 184.041 48.0626C184.509 48.1203 184.957 48.2891 185.347 48.5549C185.738 48.8206 186.059 49.1757 186.284 49.5906C186.849 49.3354 187.472 49.2369 188.088 49.3056C188.704 49.3742 189.291 49.6074 189.786 49.9807C190.281 50.354 190.666 50.8536 190.902 51.4271C191.137 52.0006 191.214 52.6269 191.124 53.2402L188.504 54.9496C188.476 54.7497 188.406 54.5578 188.299 54.3866C188.192 54.2153 188.05 54.0684 187.882 53.9554C187.715 53.8424 187.526 53.7658 187.327 53.7306C187.128 53.6953 186.924 53.7022 186.728 53.7508C185.929 54.0084 185.44 54.9541 184.606 55.0429C183.953 55.1095 183.385 54.6211 182.75 54.4701C181.956 54.3578 181.149 54.5567 180.499 55.0251C179.857 55.4909 179.157 55.8701 178.416 56.1529C177.503 56.3602 176.547 56.2731 175.686 55.9042C175.306 55.7823 174.958 55.5793 174.665 55.3093C174.51 55.1781 174.39 55.0113 174.315 54.8232C174.24 54.6352 174.212 54.4317 174.234 54.2304Z" fill="#263238"/>
<path d="M187.985 53.7243L175.757 54.004C176.169 53.1745 176.779 52.4593 177.533 51.9217C179.122 50.6918 181.057 49.9942 183.065 49.9281C185.059 49.8926 189.121 52.3168 190.569 53.6888C191.723 54.7899 191.719 55.7445 191.719 55.7445C191.901 57.3296 191.017 59.1322 190.662 60.6862C190.485 61.4899 190.134 63.9186 190.134 63.9186C189.459 63.9186 189.21 63.3813 189.308 62.7153L189.432 60.1002C188.757 59.5637 188.277 58.8208 188.064 57.9852C187.852 57.1496 187.919 56.2674 188.256 55.4737C188.42 55.2339 188.793 54.1683 187.985 53.7243Z" fill="#263238"/>
<path d="M189.641 59.9001C190.205 57.7156 190.707 55.3802 189.987 53.2401L190.347 53.2134L190.502 53.32C190.844 53.1931 191.217 53.1786 191.567 53.2785C191.917 53.3784 192.226 53.5876 192.449 53.8756C192.672 54.1635 192.798 54.5151 192.807 54.8792C192.816 55.2433 192.709 55.6008 192.5 55.8996C192.863 55.8854 193.219 56.0051 193.5 56.2359C193.781 56.4668 193.967 56.7926 194.023 57.1517C194.038 57.6546 193.915 58.152 193.668 58.5903C193.422 59.0274 193.278 59.5147 193.246 60.0155C193.237 60.2664 193.317 60.5123 193.471 60.7103C193.626 60.9084 193.844 61.0459 194.09 61.0989C193.978 61.3559 193.781 61.5666 193.532 61.6959C193.283 61.8252 192.997 61.8652 192.722 61.8093C192.915 62.2308 193.223 62.5893 193.61 62.8438C192.829 63.4077 191.732 63.2567 190.853 62.8438C190.312 62.6437 189.863 62.2519 189.592 61.7427C189.412 61.139 189.429 60.4934 189.641 59.9001Z" fill="#263238"/>
<path d="M189.911 62.4177C189.987 62.3866 192.86 61.5297 192.771 64.469C192.682 67.4083 189.76 66.7112 189.756 66.6268C189.752 66.5425 189.911 62.4177 189.911 62.4177Z" fill="#FFBE9D"/>
<path d="M190.427 65.5434C190.427 65.5434 190.48 65.579 190.565 65.6234C190.687 65.6723 190.824 65.6723 190.947 65.6234C191.138 65.5074 191.297 65.3429 191.405 65.1465C191.513 64.9501 191.568 64.7287 191.564 64.5045C191.577 64.2541 191.534 64.0039 191.439 63.7719C191.415 63.6796 191.369 63.5946 191.305 63.5242C191.241 63.4538 191.16 63.4001 191.071 63.3678C191.013 63.3506 190.95 63.3539 190.895 63.3774C190.839 63.4009 190.793 63.443 190.764 63.4966C190.72 63.581 190.738 63.6387 190.725 63.6431C190.711 63.6476 190.662 63.5898 190.689 63.47C190.707 63.3984 190.749 63.3355 190.809 63.2924C190.849 63.2623 190.895 63.2408 190.944 63.2293C190.993 63.2179 191.044 63.2167 191.093 63.2258C191.213 63.253 191.323 63.3106 191.414 63.393C191.505 63.4755 191.574 63.5799 191.613 63.6964C191.732 63.953 191.785 64.2353 191.768 64.5178C191.774 64.7788 191.703 65.0358 191.564 65.2568C191.425 65.4778 191.224 65.6532 190.986 65.761C190.91 65.7785 190.831 65.7797 190.755 65.7643C190.678 65.749 190.606 65.7176 190.542 65.6722C190.431 65.6145 190.418 65.5479 190.427 65.5434Z" fill="#EB996E"/>
<path d="M192.881 59.9004C192.881 59.9004 192.961 59.7894 192.926 59.5585C192.892 59.3998 192.824 59.2505 192.726 59.1215C192.628 58.9924 192.502 58.8869 192.358 58.8126C191.938 58.628 191.484 58.5313 191.026 58.5284C190.765 58.5363 190.506 58.482 190.271 58.37C190.035 58.2581 189.83 58.0917 189.671 57.8846C189.414 57.4195 189.318 56.8828 189.396 56.3573C189.454 55.8644 189.569 55.4116 189.623 55.0253C189.729 54.6118 189.71 54.1761 189.569 53.7732C189.58 54.1842 189.546 54.5951 189.467 54.9986C189.392 55.376 189.258 55.8112 189.187 56.3306C189.091 56.9071 189.195 57.4992 189.48 58.009C189.651 58.2708 189.902 58.4702 190.195 58.5773C190.457 58.6679 190.731 58.7202 191.008 58.7327C191.45 58.7239 191.889 58.7977 192.304 58.9502C192.434 59.0124 192.55 59.0998 192.645 59.2073C192.74 59.3148 192.813 59.4402 192.859 59.5763C192.877 59.6834 192.884 59.7919 192.881 59.9004Z" fill="#455A64"/>
<path d="M193.552 58.6081C193.552 58.6081 193.614 58.5238 193.636 58.3417C193.651 58.1205 193.611 57.8991 193.519 57.6975C193.426 57.4959 193.285 57.3206 193.108 57.1873C192.938 57.0655 192.744 56.9808 192.54 56.9387C192.341 56.9036 192.152 56.8313 191.98 56.7256C191.903 56.6613 191.841 56.5804 191.8 56.4889C191.758 56.3974 191.738 56.2977 191.741 56.1972C191.741 55.9752 191.741 55.7532 191.741 55.5046C191.716 54.9007 191.529 54.3146 191.199 53.8085C191.13 53.693 191.033 53.5965 190.918 53.5275C190.802 53.4585 190.672 53.4193 190.537 53.4133C190.346 53.4133 190.266 53.511 190.275 53.5154C190.284 53.5199 190.373 53.4799 190.533 53.5154C190.646 53.5354 190.753 53.5815 190.846 53.6501C190.938 53.7187 191.014 53.8079 191.066 53.9106C191.242 54.219 191.37 54.5531 191.443 54.9007C191.489 55.1063 191.514 55.3161 191.519 55.5268C191.519 55.7399 191.519 55.9708 191.519 56.2238C191.517 56.3573 191.546 56.4892 191.603 56.6099C191.66 56.7306 191.743 56.8369 191.847 56.9209C192.046 57.0404 192.266 57.1203 192.495 57.1562C192.665 57.1807 192.827 57.2408 192.972 57.3327C193.117 57.4245 193.24 57.546 193.334 57.689C193.499 57.966 193.575 58.2867 193.552 58.6081Z" fill="#455A64"/>
<path d="M176.206 51.3754C176.206 51.3754 176.428 51.5263 176.809 51.3354C177.021 51.2137 177.204 51.0488 177.347 50.8514C177.526 50.6028 177.75 50.3904 178.008 50.2254C178.347 50.0248 178.737 49.9261 179.131 49.941C179.524 49.956 179.905 50.084 180.228 50.3098C180.597 50.5628 180.925 50.9225 181.356 51.1978C181.578 51.3556 181.83 51.4646 182.097 51.5174C182.38 51.5558 182.668 51.5191 182.932 51.4109C183.452 51.2066 183.86 50.8736 184.309 50.696C184.742 50.5136 185.206 50.4156 185.676 50.4074C186.481 50.3864 187.269 50.6332 187.918 51.109C188.356 51.429 188.723 51.8356 188.997 52.3033C189.193 52.6408 189.264 52.845 189.281 52.8361C189.299 52.8272 189.281 52.7828 189.246 52.6807C189.201 52.5373 189.144 52.3977 189.077 52.2634C188.822 51.7615 188.458 51.3231 188.012 50.9802C187.344 50.4628 186.521 50.1873 185.676 50.1988C185.178 50.2005 184.685 50.2985 184.224 50.4874C183.74 50.6827 183.336 51.0157 182.848 51.1978C182.623 51.294 182.375 51.3262 182.133 51.291C181.898 51.2458 181.675 51.1504 181.48 51.0113C181.081 50.7404 180.743 50.3852 180.344 50.1233C179.967 49.859 179.516 49.7235 179.056 49.737C178.657 49.7487 178.268 49.8651 177.928 50.0744C177.659 50.2544 177.43 50.487 177.253 50.7582C177.126 50.9516 176.962 51.1176 176.769 51.2466C176.602 51.3536 176.403 51.3991 176.206 51.3754Z" fill="#455A64"/>
<path d="M159.022 90.2343L143.851 78.2463L141.689 75.9775C141.689 75.9775 136.52 71.1512 136.085 70.6228C135.579 70.0145 135.162 70.1122 134.953 70.312C134.62 70.6273 134.731 71.2666 135.148 71.7994C135.295 71.9859 137.688 74.8142 137.688 74.8142C137.299 74.6852 136.901 74.5828 136.498 74.5078C135.632 74.3258 134.389 74.8453 133.39 75.7199C132.391 76.5946 132.205 76.9321 132.529 77.3317C132.593 77.4038 132.673 77.4608 132.762 77.4984C132.851 77.536 132.947 77.5534 133.044 77.5492C133.363 77.5512 133.671 77.4359 133.91 77.2251C135.508 75.8398 136.671 76.3371 136.671 76.3371L136.956 76.6346C136.956 76.6346 135.379 76.7545 134.838 77.7091C134.758 77.8455 134.707 77.9965 134.687 78.1531C134.466 78.3395 134.298 78.5802 134.199 78.8514C134.1 79.1226 134.073 79.415 134.122 79.6996C134.17 79.9843 134.292 80.2514 134.475 80.4746C134.658 80.6978 134.896 80.8694 135.166 80.9725C135.291 81.0353 135.433 81.0588 135.571 81.0397C135.71 81.0207 135.84 80.9601 135.943 80.8659C136.022 80.7398 136.071 80.5968 136.085 80.4485C136.096 80.3716 136.114 80.2958 136.139 80.2221L137.049 80.9414C137.049 80.9414 139.176 82.451 140.028 83.2147L152.735 97.0275C153.153 97.4813 153.657 97.8473 154.218 98.1043C154.779 98.3612 155.385 98.504 156.002 98.5242C156.619 98.5445 157.233 98.4418 157.809 98.2222C158.386 98.0026 158.913 97.6704 159.36 97.2451C159.841 96.785 160.217 96.2272 160.464 95.6092C160.71 94.9911 160.821 94.3274 160.789 93.6628C160.757 92.9981 160.583 92.3481 160.278 91.7566C159.973 91.1652 159.545 90.646 159.022 90.2343Z" fill="#FFBE9D"/>
<path d="M143.22 78.4417C143.084 78.5903 142.905 78.6928 142.707 78.735C142.51 78.7771 142.305 78.7569 142.119 78.677C141.737 78.5483 141.413 78.2907 141.04 78.1353C139.935 77.6647 138.581 78.1353 137.488 77.6025C137.333 77.5315 137.173 77.3939 137.209 77.2296C137.244 77.0653 137.431 77.0209 137.582 76.9943L141.502 76.2439" fill="#FFBE9D"/>
<path d="M141.511 76.2438C141.362 76.2349 141.212 76.2469 141.067 76.2794C140.791 76.3193 140.396 76.3815 139.908 76.4658L138.185 76.7722L137.692 76.861C137.484 76.8675 137.286 76.9551 137.142 77.1052C137.103 77.1607 137.083 77.2265 137.083 77.2939C137.083 77.3613 137.103 77.4271 137.142 77.4826C137.207 77.571 137.292 77.6425 137.39 77.6913C137.568 77.7754 137.754 77.8409 137.945 77.8866C138.656 77.9827 139.373 78.0302 140.09 78.0287C140.394 78.0465 140.693 78.1109 140.978 78.2196C141.224 78.3284 141.464 78.45 141.697 78.5837C141.87 78.693 142.065 78.7631 142.269 78.7892C142.472 78.8153 142.678 78.7967 142.874 78.7347C143.153 78.6148 143.211 78.4372 143.202 78.4416C143.096 78.5298 142.976 78.6003 142.847 78.6503C142.663 78.6922 142.473 78.6953 142.288 78.6594C142.103 78.6234 141.927 78.5493 141.773 78.4416C141.54 78.2969 141.3 78.1649 141.053 78.0465C140.757 77.9213 140.442 77.8449 140.121 77.82C139.414 77.8107 138.708 77.7588 138.007 77.6646C137.835 77.6244 137.667 77.5664 137.506 77.4915C137.359 77.416 137.266 77.2917 137.324 77.2251C137.381 77.1585 137.555 77.1052 137.723 77.0741L138.216 76.9764L139.926 76.6257C140.414 76.5191 140.814 76.4348 141.075 76.3682C141.225 76.3444 141.371 76.3027 141.511 76.2438Z" fill="#EB996E"/>
<path d="M137.013 76.6213C136.83 76.4448 136.61 76.3113 136.369 76.2306C136.105 76.1636 135.827 76.1822 135.574 76.2839C135.262 76.4153 134.972 76.5935 134.713 76.8122C134.447 77.041 134.158 77.2418 133.852 77.4116C133.592 77.5533 133.299 77.6224 133.004 77.6114C132.902 77.6067 132.804 77.5785 132.715 77.5292C132.626 77.4799 132.55 77.4108 132.493 77.3273C132.448 77.2682 132.422 77.1971 132.417 77.123C132.417 77.123 132.457 77.1896 132.537 77.2917C132.596 77.3601 132.669 77.4149 132.751 77.4525C132.833 77.49 132.922 77.5094 133.012 77.5093C133.286 77.504 133.553 77.4292 133.789 77.2917C134.085 77.1191 134.365 76.92 134.624 76.6968C134.89 76.4706 135.189 76.2878 135.512 76.1551C135.797 76.0463 136.11 76.0385 136.4 76.1329C136.587 76.1947 136.757 76.3014 136.893 76.4437C136.991 76.5503 137.022 76.6169 137.013 76.6213Z" fill="#EB996E"/>
<path d="M134.976 71.5908C135.152 71.7627 135.312 71.9499 135.455 72.1503L136.574 73.5267L137.715 74.8853C137.878 75.0657 138.027 75.2587 138.159 75.4625C137.963 75.3136 137.782 75.1439 137.622 74.9563C137.307 74.6233 136.889 74.1571 136.445 73.6243C136.001 73.0915 135.62 72.5898 135.353 72.2169C135.204 72.0235 135.077 71.8134 134.976 71.5908Z" fill="#EB996E"/>
<path d="M136.906 77.8024C136.837 77.834 136.764 77.8578 136.689 77.8734C136.595 77.8969 136.506 77.9398 136.43 77.9995C136.353 78.0591 136.29 78.1342 136.245 78.2198C136.222 78.2789 136.214 78.343 136.222 78.4059C136.231 78.4689 136.256 78.5286 136.294 78.5794C136.392 78.7053 136.503 78.8199 136.627 78.9213C136.786 79.0475 136.895 79.2273 136.933 79.4274C136.94 79.5377 136.921 79.648 136.877 79.7497C136.834 79.8514 136.768 79.9417 136.684 80.0135C136.601 80.0829 136.505 80.1345 136.401 80.165C136.297 80.1956 136.188 80.2045 136.08 80.1911C135.882 80.1734 135.693 80.096 135.539 79.9691C135.306 79.7537 135.105 79.5054 134.944 79.2321C134.83 79.0498 134.746 78.8504 134.695 78.6416C134.669 78.4906 134.695 78.4062 134.695 78.4062C134.695 78.4062 134.695 78.4906 134.748 78.6282C134.815 78.8229 134.909 79.0069 135.028 79.1744C135.193 79.4308 135.392 79.6637 135.619 79.867C135.753 79.9784 135.92 80.0423 136.094 80.0487C136.269 80.0551 136.44 80.0037 136.582 79.9025C136.647 79.8486 136.699 79.7805 136.733 79.7036C136.768 79.6267 136.785 79.5429 136.782 79.4585C136.752 79.293 136.662 79.1444 136.529 79.0412C136.399 78.9292 136.284 78.8008 136.187 78.6593C136.14 78.592 136.111 78.5135 136.104 78.4316C136.097 78.3497 136.112 78.2675 136.147 78.1931C136.201 78.0959 136.278 78.013 136.371 77.9512C136.463 77.8894 136.569 77.8506 136.68 77.8379C136.752 77.8116 136.829 77.7996 136.906 77.8024Z" fill="#EB996E"/>
<path d="M136.041 80.0665C136.041 80.0665 136.113 80.1065 136.161 80.2397C136.191 80.3349 136.198 80.4357 136.183 80.5342C136.168 80.6327 136.13 80.7264 136.073 80.808C135.981 80.9257 135.86 81.0176 135.723 81.0744C135.585 81.1313 135.435 81.1512 135.287 81.1321C134.936 81.0792 134.619 80.8951 134.399 80.6171C134.172 80.3442 134.035 80.0075 134.008 79.6536C133.993 79.4146 134.03 79.1752 134.119 78.9525C134.207 78.7299 134.344 78.5296 134.519 78.366C134.621 78.2772 134.687 78.2417 134.692 78.2506C134.522 78.4333 134.38 78.6397 134.27 78.8633C134.153 79.1346 134.113 79.4329 134.156 79.7253C134.198 80.0176 134.321 80.2925 134.51 80.5194C134.71 80.774 134.998 80.945 135.318 80.9989C135.444 81.0171 135.572 81.0035 135.692 80.9593C135.811 80.9151 135.918 80.8417 136.002 80.7459C136.055 80.6767 136.093 80.5969 136.113 80.5119C136.132 80.4269 136.134 80.3387 136.117 80.253C136.077 80.1331 136.033 80.071 136.041 80.0665Z" fill="#EB996E"/>
<path d="M139.588 80.3376C139.588 80.3376 139.664 80.2221 139.864 80.1111C140.137 79.9719 140.449 79.9252 140.752 79.9779L140.676 80.0845C140.584 79.9411 140.5 79.7929 140.423 79.6405C140.134 79.13 139.996 78.5481 140.023 77.9622C140.143 78.5168 140.322 79.0571 140.556 79.5739C140.632 79.7248 140.716 79.8669 140.796 79.9957L140.885 80.1378L140.725 80.1022C140.447 80.047 140.158 80.0732 139.895 80.1777C139.704 80.271 139.602 80.3642 139.588 80.3376Z" fill="#EB996E"/>
<path d="M135.495 75.5334C135.535 75.5334 135.597 75.8176 135.433 76.1328C135.268 76.4481 134.989 76.5768 134.989 76.5413C134.989 76.5058 135.166 76.346 135.304 76.0663C135.441 75.7865 135.455 75.5334 135.495 75.5334Z" fill="#EB996E"/>
<path d="M158.334 98.2086L167.094 92.1436C167.094 92.1436 166.326 115.631 166.326 115.849C166.326 115.849 164.724 116.484 164.994 118.162L165.438 120.528C175.086 122.748 184.646 124.183 194.374 120.6L195.479 101.889L198.912 79.0322L191.084 75.7022L189.752 72.5942L181.644 81.3277L179.571 75.6889L179.629 73.5622L177.666 75.6934L168.165 77.2562L156.327 86.8511L152.447 83.712L146.591 91.8461L153.251 98.5682C154.937 99.0233 156.728 98.8966 158.334 98.2086Z" fill="#D4E068"/>
<path d="M180.454 80.2932C180.201 80.4369 180.001 80.66 179.886 80.9282C179.765 81.2361 179.706 81.5651 179.713 81.8961C179.735 82.3478 179.671 82.7997 179.526 83.2281L179.429 83.459L179.331 83.2281C179.068 82.5685 178.86 81.8884 178.709 81.1946C178.376 79.756 178.163 78.4373 178.017 77.4827C177.919 76.9701 177.864 76.4504 177.853 75.9287C177.994 76.4303 178.104 76.9405 178.181 77.4561C178.363 78.4018 178.603 79.7116 178.936 81.1413C179.082 81.8226 179.28 82.4919 179.526 83.1437H179.331C179.468 82.7452 179.537 82.3264 179.535 81.905C179.54 81.5546 179.621 81.2093 179.771 80.8926C179.862 80.6817 180.017 80.5047 180.215 80.3865C180.366 80.2888 180.45 80.2844 180.454 80.2932Z" fill="#263238"/>
<path d="M190.644 76.781C190.573 76.921 190.483 77.0509 190.378 77.1673C190.191 77.4071 189.934 77.7489 189.578 78.1663C188.895 79.001 187.944 80.1421 186.879 81.3942L185.183 83.3744L185.054 83.5254L185.005 83.33C184.761 82.3665 184.561 81.554 184.437 80.9768C184.384 80.6927 184.224 80.5328 184.068 80.5328C183.992 80.5289 183.917 80.5508 183.855 80.595C183.855 80.595 183.886 80.4795 184.068 80.4662C184.123 80.4657 184.177 80.476 184.227 80.4966C184.277 80.5172 184.323 80.5476 184.361 80.5861C184.455 80.6917 184.522 80.818 184.557 80.9546C184.721 81.5229 184.947 82.3266 185.205 83.29L185.027 83.2457L186.701 81.2521C187.767 80 188.739 78.8767 189.454 78.0686C189.809 77.6646 190.102 77.3405 190.307 77.1185C190.405 76.9927 190.518 76.8793 190.644 76.781Z" fill="#263238"/>
<path d="M178.932 113.549C178.912 113.449 178.905 113.348 178.909 113.247C178.909 113.029 178.909 112.745 178.909 112.394C178.909 111.653 178.909 110.578 178.909 109.251C178.94 106.587 179.065 102.933 179.353 98.8968C179.642 94.8609 180.077 91.2112 180.441 88.5827C180.623 87.2507 180.783 86.2073 180.907 85.4747L181.049 84.6356C181.067 84.5368 181.089 84.439 181.116 84.3425C181.129 84.4413 181.129 84.5413 181.116 84.64C181.089 84.8576 181.054 85.1417 181.014 85.488C180.916 86.2517 180.783 87.3084 180.619 88.596C180.299 91.229 179.904 94.8698 179.602 98.9057C179.3 102.942 179.158 106.596 179.074 109.246C179.043 110.552 179.02 111.617 179.003 112.386C179.003 112.738 178.994 113.022 178.976 113.238C178.968 113.343 178.953 113.446 178.932 113.549Z" fill="#263238"/>
<path d="M176.711 118.939C176.516 118.301 176.447 117.632 176.507 116.967C176.483 116.304 176.552 115.641 176.711 114.996C176.774 115.653 176.774 116.315 176.711 116.972C176.685 118.055 176.756 118.93 176.711 118.939Z" fill="#263238"/>
<path d="M187.971 112.479C187.744 112.588 187.507 112.677 187.265 112.745C186.821 112.905 186.128 113.118 185.293 113.362C183.111 113.991 180.897 114.506 178.66 114.903C176.425 115.298 174.171 115.578 171.907 115.742C171.019 115.8 170.331 115.835 169.842 115.844C169.591 115.865 169.339 115.865 169.087 115.844C169.335 115.796 169.586 115.767 169.838 115.76L171.893 115.587C173.621 115.427 176.009 115.143 178.62 114.699C181.231 114.255 183.571 113.664 185.249 113.22L187.238 112.679C187.477 112.595 187.722 112.528 187.971 112.479Z" fill="#263238"/>
<path d="M167.068 97.5249C167.006 97.5249 166.966 94.2571 166.979 90.23C166.992 86.2029 167.059 82.9351 167.121 82.9351C167.183 82.9351 167.223 86.2029 167.21 90.23C167.196 94.2571 167.134 97.5249 167.068 97.5249Z" fill="#263238"/>
<g opacity="0.3">
<path d="M182.399 82.1138C182.638 82.1052 182.874 82.1776 183.067 82.3194C183.261 82.4612 183.4 82.6641 183.464 82.8953C183.553 83.3703 183.486 83.8721 183.611 84.3427C183.735 84.8133 184.166 85.2707 184.641 85.173C184.924 85.0797 185.164 84.8894 185.32 84.6357C186.253 83.3734 187 81.9845 187.54 80.511C187.54 80.5465 185.08 83.3348 185.08 83.3348C184.989 82.6296 184.804 81.9398 184.53 81.2835C184.45 81.0704 184.352 80.7063 184.148 80.6131C183.815 80.4577 183.371 80.9461 183.149 81.2436C182.922 81.5444 182.664 81.8211 182.381 82.0694" fill="black"/>
</g>
<g opacity="0.3">
<path d="M178.389 79.5783C178.433 81.1395 178.733 82.6829 179.277 84.1471C179.324 84.2961 179.407 84.4316 179.517 84.5422C179.573 84.6007 179.647 84.6389 179.728 84.6509C179.808 84.663 179.89 84.6482 179.961 84.6088C180.14 84.3091 180.289 83.9923 180.405 83.6631C180.631 83.0282 181.555 82.9704 181.555 82.9704C181.401 82.2533 181.199 81.5473 180.951 80.857C180.906 80.7432 180.827 80.6463 180.724 80.5802C180.621 80.514 180.5 80.4819 180.378 80.4885C180.218 80.5419 180.075 80.6372 179.964 80.7644C179.854 80.8917 179.779 81.0463 179.748 81.2122C179.61 82.3489 179.628 82.8728 179.459 83.2724C179.015 82.0558 178.678 80.6084 178.394 79.5383" fill="black"/>
</g>
<g opacity="0.3">
<path d="M185.2 113.22C185.305 113.145 185.394 113.049 185.462 112.939C185.53 112.829 185.575 112.707 185.595 112.579C185.614 112.451 185.609 112.321 185.577 112.195C185.546 112.07 185.49 111.952 185.413 111.848C185.248 111.646 185.033 111.492 184.789 111.4C184.545 111.308 184.281 111.282 184.023 111.324C183.51 111.414 183.028 111.63 182.62 111.955C182.199 112.261 181.812 112.607 181.368 112.878C180.28 113.549 178.957 113.7 177.679 113.722C176.402 113.669 175.123 113.725 173.856 113.891C172.604 114.135 171.352 114.779 170.748 115.906C170.743 115.884 181.661 115.107 185.2 113.22Z" fill="black"/>
</g>
<path d="M198.911 79.0322C198.911 79.0322 202.214 81.3854 203.014 83.5166C203.813 85.6478 206.765 100.287 207.245 102.786C207.853 105.93 207.871 109.819 203.347 111.298C201.664 111.844 191.359 111.005 191.359 111.005L191.696 103.683L197.259 103.892C197.259 103.892 196.926 103.399 197.726 102.804L195.95 93.2802C195.95 93.2802 196.602 83.1659 196.682 82.9261C196.762 82.6863 198.911 79.0322 198.911 79.0322Z" fill="#D4E068"/>
<path d="M199.089 79.2852C198.111 79.6874 197.229 80.2904 196.499 81.0553C195.77 81.8201 195.209 82.7297 194.853 83.7252C194.877 83.4168 194.958 83.1157 195.093 82.8372C195.682 81.4017 196.792 80.2422 198.201 79.5915C198.476 79.4369 198.777 79.3331 199.089 79.2852Z" fill="#263238"/>
<path d="M200.892 105.375C200.856 105.375 200.781 105.131 200.559 104.789C200.263 104.345 199.878 103.968 199.427 103.683C198.984 103.386 198.483 103.188 197.957 103.101C197.553 103.044 197.296 103.101 197.287 103.053C197.499 102.945 197.739 102.906 197.975 102.942C198.54 102.984 199.085 103.172 199.555 103.488C200.034 103.79 200.428 104.208 200.701 104.704C200.829 104.904 200.896 105.137 200.892 105.375Z" fill="#263238"/>
<path d="M194.916 87.4949C194.983 87.6854 195.034 87.8815 195.067 88.081C195.16 88.525 195.271 89.0533 195.409 89.7016C195.684 91.0735 196.048 92.9694 196.434 95.0651C196.821 97.1608 197.162 99.0611 197.398 100.442C197.504 101.099 197.593 101.645 197.66 102.076C197.703 102.274 197.725 102.477 197.726 102.68C197.658 102.489 197.606 102.293 197.571 102.094C197.482 101.65 197.371 101.121 197.233 100.473C196.958 99.101 196.594 97.2052 196.208 95.1095C195.822 93.0138 195.48 91.1135 195.244 89.7326C195.138 89.0755 195.049 88.5294 194.982 88.0987C194.939 87.9003 194.917 87.6979 194.916 87.4949Z" fill="#263238"/>
<path d="M191.364 111C191.346 110.811 191.346 110.621 191.364 110.432C191.364 110.028 191.364 109.508 191.399 108.882C191.439 107.55 191.506 105.734 191.599 103.67V103.559H191.715L192.629 103.594L197.273 103.794H197.305L197.327 103.816C198.018 104.379 198.544 105.119 198.85 105.956C198.932 106.188 198.995 106.425 199.041 106.667C199.062 106.751 199.069 106.838 199.063 106.924C199.036 106.924 198.983 106.574 198.748 105.996C198.417 105.198 197.886 104.498 197.207 103.963L197.265 103.985L192.62 103.825L191.706 103.785L191.821 103.679C191.728 105.739 191.63 107.573 191.55 108.882C191.506 109.508 191.47 110.028 191.444 110.432C191.438 110.624 191.412 110.814 191.364 111Z" fill="#263238"/>
<path d="M183.233 102.147L178.931 93.3645C178.787 93.0725 178.565 92.8266 178.289 92.6548C178.012 92.4829 177.693 92.3919 177.368 92.3921H166.53C166.438 92.3917 166.348 92.4152 166.268 92.4604C166.188 92.5056 166.121 92.5709 166.074 92.6498C166.027 92.7286 166.001 92.8185 165.999 92.9103C165.998 93.0022 166.02 93.0929 166.064 93.1735L173.39 106.858C173.492 107.045 173.643 107.202 173.826 107.312C174.01 107.421 174.22 107.479 174.433 107.479H185.662L183.233 102.147Z" fill="#455A64"/>
<path d="M166.136 93.2402H166.353H166.97H169.253L176.77 93.1781C177.117 93.1752 177.46 93.2575 177.769 93.4178C178.053 93.5991 178.283 93.8537 178.435 94.1549C178.75 94.7543 179.012 95.3803 179.287 95.9309L180.726 98.9945L181.707 101.05C181.818 101.277 181.911 101.459 181.987 101.605C182.014 101.672 182.05 101.734 182.093 101.792C182.079 101.721 182.055 101.652 182.022 101.587C181.96 101.436 181.876 101.25 181.778 101.019C181.551 100.5 181.236 99.7937 180.854 98.9323C180.472 98.071 179.966 97.0054 179.456 95.8554C179.185 95.2738 178.932 94.6655 178.608 94.0394C178.44 93.7067 178.186 93.4258 177.871 93.2269C177.535 93.0476 177.159 92.9545 176.778 92.9561C173.83 92.9561 171.18 93.0404 169.23 93.0804L166.953 93.1426L166.331 93.1692C166.263 93.183 166.197 93.207 166.136 93.2402Z" fill="#263238"/>
<path d="M172.809 95.1628C172.757 95.1819 172.711 95.2125 172.674 95.2524C172.636 95.2923 172.608 95.3404 172.592 95.3929C172.576 95.4453 172.573 95.5008 172.582 95.5548C172.591 95.6089 172.612 95.6601 172.645 95.7045C172.704 95.7973 172.792 95.8686 172.895 95.9077C172.998 95.9469 173.111 95.9519 173.217 95.9221C173.289 95.9062 173.354 95.8709 173.407 95.8199C173.459 95.7689 173.497 95.7044 173.515 95.6335C173.522 95.5261 173.494 95.4193 173.434 95.3295C173.375 95.2397 173.288 95.1718 173.186 95.1362C173.06 95.1142 172.931 95.1234 172.809 95.1628Z" fill="white"/>
<path d="M191.581 103.981L188.89 103.719C188.89 103.719 187.669 102.333 187.19 101.916C186.71 101.499 183.966 100.14 183.966 100.14C183.966 100.14 182.541 98.626 182.355 98.6482C182.168 98.6704 181.582 98.8524 181.835 99.6028C182.076 100.349 182.391 101.069 182.777 101.752L177.355 102.524C177.186 102.545 177.023 102.604 176.879 102.695C176.734 102.786 176.612 102.909 176.521 103.053C176.401 103.252 176.365 103.461 176.636 103.554C177.617 103.781 178.61 103.95 179.611 104.061L178.545 103.918C178.545 103.918 178.443 104.931 179.153 105.322C179.426 105.444 179.682 105.602 179.913 105.792C179.976 106.245 180.136 106.678 180.383 107.062C180.712 107.404 183.962 108.612 183.962 108.612C183.962 108.612 185.991 108.958 186.972 108.789L191.368 109.46L191.581 103.981Z" fill="#FFBE9D"/>
<path d="M182.252 101.849C182.768 101.885 183.286 101.885 183.802 101.849C184.319 101.881 184.839 101.844 185.347 101.738C184.835 101.65 184.315 101.622 183.797 101.654C183.275 101.626 182.751 101.692 182.252 101.849Z" fill="#EB996E"/>
<path d="M183.269 104.172C182.523 103.998 181.757 103.93 180.992 103.967C180.361 103.967 179.793 103.967 179.38 103.967C179.158 103.952 178.934 103.961 178.714 103.994C178.926 104.071 179.15 104.107 179.375 104.101C179.793 104.132 180.361 104.145 180.992 104.149C182.248 104.154 183.26 104.22 183.269 104.172Z" fill="#EB996E"/>
<path d="M183.482 105.952C183.482 105.894 182.683 105.952 181.706 105.912C180.729 105.872 179.93 105.716 179.93 105.774C180.496 105.994 181.099 106.107 181.706 106.107C182.303 106.168 182.905 106.115 183.482 105.952Z" fill="#EB996E"/>
<path d="M183.394 107.981C183.447 107.981 183.501 107.763 183.514 107.484C183.527 107.204 183.492 106.982 183.438 106.977C183.385 106.973 183.332 107.199 183.318 107.475C183.305 107.75 183.341 107.981 183.394 107.981Z" fill="#EB996E"/>
<path d="M183.594 105.539C183.647 105.539 183.656 105.348 183.727 105.148C183.798 104.948 183.9 104.806 183.864 104.762C183.829 104.718 183.629 104.833 183.545 105.086C183.46 105.339 183.545 105.552 183.594 105.539Z" fill="#EB996E"/>
<path d="M183.927 103.075C183.985 103.075 184.025 102.955 184.073 102.817C184.122 102.679 184.167 102.56 184.127 102.524C184.087 102.489 183.954 102.577 183.891 102.751C183.829 102.924 183.874 103.079 183.927 103.075Z" fill="#EB996E"/>
<path d="M51.2437 68V58.2H52.6437V66.894H57.1237V68H51.2437ZM58.7912 68V60.944H60.1912V68H58.7912ZM59.5052 59.614C59.2345 59.614 59.0105 59.53 58.8332 59.362C58.6652 59.194 58.5812 58.9793 58.5812 58.718C58.5812 58.466 58.6652 58.2607 58.8332 58.102C59.0105 57.934 59.2345 57.85 59.5052 57.85C59.7665 57.85 59.9859 57.934 60.1632 58.102C60.3405 58.2607 60.4292 58.466 60.4292 58.718C60.4292 58.9793 60.3405 59.194 60.1632 59.362C59.9859 59.53 59.7665 59.614 59.5052 59.614ZM64.9232 68.168C64.3259 68.168 63.8032 68.07 63.3552 67.874C62.9072 67.678 62.5525 67.4027 62.2912 67.048C62.0299 66.6933 61.8712 66.278 61.8152 65.802H63.2432C63.2899 66.026 63.3785 66.2313 63.5092 66.418C63.6492 66.6047 63.8359 66.754 64.0692 66.866C64.3119 66.978 64.5965 67.034 64.9232 67.034C65.2312 67.034 65.4832 66.992 65.6792 66.908C65.8845 66.8147 66.0339 66.6933 66.1272 66.544C66.2205 66.3853 66.2672 66.2173 66.2672 66.04C66.2672 65.7787 66.2019 65.5827 66.0712 65.452C65.9499 65.312 65.7632 65.2047 65.5112 65.13C65.2685 65.046 64.9745 64.9713 64.6292 64.906C64.3025 64.85 63.9852 64.7753 63.6772 64.682C63.3785 64.5793 63.1079 64.4533 62.8652 64.304C62.6319 64.1547 62.4452 63.968 62.3052 63.744C62.1652 63.5107 62.0952 63.226 62.0952 62.89C62.0952 62.4887 62.2025 62.1293 62.4172 61.812C62.6319 61.4853 62.9352 61.2333 63.3272 61.056C63.7285 60.8693 64.1999 60.776 64.7412 60.776C65.5252 60.776 66.1552 60.9627 66.6312 61.336C67.1072 61.7093 67.3872 62.2367 67.4712 62.918H66.1132C66.0759 62.6007 65.9359 62.358 65.6932 62.19C65.4505 62.0127 65.1285 61.924 64.7272 61.924C64.3259 61.924 64.0179 62.0033 63.8032 62.162C63.5885 62.3207 63.4812 62.5307 63.4812 62.792C63.4812 62.96 63.5419 63.1093 63.6632 63.24C63.7845 63.3707 63.9619 63.4827 64.1952 63.576C64.4379 63.66 64.7319 63.7393 65.0772 63.814C65.5719 63.9073 66.0152 64.024 66.4072 64.164C66.7992 64.304 67.1119 64.5093 67.3452 64.78C67.5785 65.0507 67.6952 65.438 67.6952 65.942C67.7045 66.3807 67.5925 66.768 67.3592 67.104C67.1352 67.44 66.8132 67.7013 66.3932 67.888C65.9825 68.0747 65.4925 68.168 64.9232 68.168ZM71.9685 68C71.5205 68 71.1332 67.93 70.8065 67.79C70.4798 67.65 70.2278 67.4167 70.0505 67.09C69.8732 66.7633 69.7845 66.32 69.7845 65.76V62.134H68.5665V60.944H69.7845L69.9525 59.18H71.1845V60.944H73.1865V62.134H71.1845V65.774C71.1845 66.1753 71.2685 66.4507 71.4365 66.6C71.6045 66.74 71.8938 66.81 72.3045 66.81H73.1165V68H71.9685Z" fill="#424242"/>
</svg>
