<svg width="131" height="35" viewBox="0 0 131 35" fill="none" xmlns="http://www.w3.org/2000/svg">
<g clip-path="url(#clip0_17_4112)">
<path d="M38.2087 23.9934V4.64941H41.8563V23.9924H38.2087V23.9934Z" fill="white"/>
<path d="M45.6141 23.9934V10.2875H49.0405V11.7797H49.5379C49.7774 11.3191 50.1735 10.919 50.7261 10.5771C51.2788 10.2363 52.0064 10.0654 52.9091 10.0654C53.8855 10.0654 54.6684 10.2548 55.2579 10.6324C55.8474 11.0101 56.2988 11.5023 56.6119 12.1103H57.1093C57.4225 11.5208 57.8646 11.0326 58.4357 10.6457C59.0068 10.2589 59.8173 10.0654 60.8674 10.0654C61.7148 10.0654 62.4834 10.2445 63.1742 10.6048C63.865 10.964 64.4177 11.5075 64.8322 12.2351C65.2467 12.9628 65.4544 13.8788 65.4544 14.9851V23.9934H61.9727V15.2338C61.9727 14.4785 61.7793 13.9125 61.3924 13.5349C61.0055 13.1572 60.4621 12.9679 59.7621 12.9679C58.9699 12.9679 58.3569 13.2217 57.924 13.7283C57.4911 14.2349 57.2751 14.9585 57.2751 15.897V23.9934H53.7934V15.2338C53.7934 14.4785 53.5999 13.9125 53.2131 13.5349C52.8262 13.1572 52.2828 12.9679 51.5827 12.9679C50.7906 12.9679 50.1776 13.2217 49.7447 13.7283C49.3117 14.2349 49.0948 14.9585 49.0948 15.897V23.9934H45.613H45.6141Z" fill="white"/>
<path d="M69.2139 29.5199V10.2875H72.6404V11.9455H73.1378C73.4509 11.4112 73.9391 10.9374 74.6023 10.5229C75.2655 10.1084 76.2142 9.90063 77.4485 9.90063C78.5538 9.90063 79.5762 10.1729 80.5157 10.7163C81.4553 11.2598 82.2105 12.056 82.7816 13.106C83.3527 14.1561 83.6382 15.4272 83.6382 16.9194V17.3615C83.6382 18.8537 83.3527 20.1248 82.7816 21.1748C82.2105 22.2249 81.4553 23.0221 80.5157 23.5646C79.5762 24.107 78.5538 24.3802 77.4485 24.3802C76.6195 24.3802 75.9236 24.283 75.3617 24.0896C74.7998 23.8961 74.3485 23.6474 74.0077 23.3435C73.6669 23.0395 73.3947 22.7315 73.192 22.4183H72.6946V29.5199H69.2129H69.2139ZM76.3984 21.3406C77.4853 21.3406 78.3829 20.9947 79.0932 20.3049C79.8024 19.6141 80.1575 18.606 80.1575 17.2796V17.0033C80.1575 15.6769 79.7983 14.6678 79.0798 13.977C78.3614 13.2862 77.4679 12.9413 76.3995 12.9413C75.331 12.9413 74.4375 13.2872 73.7191 13.977C73.0006 14.6668 72.6414 15.6769 72.6414 17.0033V17.2796C72.6414 18.606 73.0006 19.6141 73.7191 20.3049C74.4375 20.9957 75.331 21.3406 76.3995 21.3406H76.3984Z" fill="white"/>
<path d="M88.5837 8.68382C87.9574 8.68382 87.4272 8.48118 86.9953 8.0759C86.5624 7.67062 86.3455 7.13639 86.3455 6.4732C86.3455 5.81001 86.5614 5.27578 86.9953 4.87049C87.4283 4.46521 87.9574 4.26257 88.5837 4.26257C89.2101 4.26257 89.7627 4.46521 90.1864 4.87049C90.6101 5.27578 90.822 5.81001 90.822 6.4732C90.822 7.13639 90.6101 7.67062 90.1864 8.0759C89.7627 8.48118 89.2285 8.68382 88.5837 8.68382ZM86.8428 23.9934V10.2875H90.3246V23.9934H86.8428Z" fill="white"/>
<path d="M94.1936 23.9934V4.64941H97.6753V23.9924H94.1936V23.9934Z" fill="white"/>
<path d="M108.065 24.3802C106.702 24.3802 105.477 24.1039 104.39 23.5512C103.303 22.9986 102.446 22.1972 101.82 21.1472C101.194 20.0971 100.88 18.8352 100.88 17.3615V16.9194C100.88 15.4456 101.194 14.1837 101.82 13.1337C102.446 12.0836 103.303 11.2823 104.39 10.7296C105.477 10.177 106.702 9.90063 108.065 9.90063C109.428 9.90063 110.653 10.177 111.74 10.7296C112.827 11.2823 113.684 12.0836 114.31 13.1337C114.936 14.1837 115.249 15.4456 115.249 16.9194V17.3615C115.249 18.8352 114.936 20.0971 114.31 21.1472C113.684 22.1972 112.827 22.9986 111.74 23.5512C110.653 24.1039 109.428 24.3802 108.065 24.3802ZM108.065 21.2854C109.133 21.2854 110.018 20.9394 110.718 20.2496C111.418 19.5588 111.768 18.5692 111.768 17.2796V17.0033C111.768 15.7138 111.422 14.7231 110.732 14.0323C110.042 13.3414 109.152 12.9965 108.065 12.9965C106.978 12.9965 106.112 13.3425 105.412 14.0323C104.712 14.7231 104.362 15.7138 104.362 17.0033V17.2796C104.362 18.5692 104.712 19.5588 105.412 20.2496C106.112 20.9405 106.996 21.2854 108.065 21.2854Z" fill="white"/>
<path d="M124.148 24.3803C122.361 24.3803 120.897 23.9935 119.754 23.2197C118.612 22.446 117.921 21.3407 117.682 19.9038L120.887 19.0748C121.016 19.7196 121.233 20.2262 121.537 20.5946C121.841 20.9631 122.219 21.2261 122.67 21.3827C123.121 21.5393 123.614 21.617 124.148 21.617C124.959 21.617 125.557 21.4748 125.944 21.1882C126.331 20.9027 126.524 20.5486 126.524 20.1238C126.524 19.6991 126.34 19.3737 125.972 19.1434C125.603 18.9131 125.014 18.7248 124.203 18.5764L123.43 18.4382C122.472 18.254 121.597 18.0012 120.804 17.6789C120.012 17.3565 119.377 16.9103 118.898 16.3382C118.419 15.7671 118.179 15.0302 118.179 14.1275C118.179 12.7643 118.677 11.7194 119.671 10.9907C120.666 10.263 121.974 9.89868 123.595 9.89868C125.124 9.89868 126.395 10.2395 127.409 10.9211C128.422 11.6027 129.085 12.4962 129.398 13.6015L126.165 14.5963C126.018 13.8962 125.718 13.3988 125.267 13.1041C124.815 12.8093 124.258 12.662 123.595 12.662C122.932 12.662 122.426 12.7776 122.076 13.0079C121.725 13.2382 121.55 13.5564 121.55 13.9607C121.55 14.4028 121.735 14.7303 122.103 14.9412C122.472 15.153 122.969 15.3147 123.595 15.4252L124.369 15.5634C125.401 15.7476 126.335 15.9922 127.174 16.2952C128.012 16.5991 128.676 17.032 129.164 17.5939C129.652 18.1558 129.897 18.9162 129.897 19.8731C129.897 21.31 129.376 22.4204 128.335 23.2034C127.294 23.9863 125.898 24.3783 124.148 24.3783V24.3803Z" fill="white"/>
<path d="M12.2157 0.0245361V5.25123C8.66749 6.29821 5.92673 9.22933 5.15096 12.8851H0C0.825914 6.38008 5.8162 1.17386 12.2157 0.0245361Z" fill="#D4E068"/>
<path d="M29.7731 12.8851H25.052C24.2342 9.03491 21.2386 5.99018 17.4141 5.10081V0C23.8812 1.09713 28.94 6.33201 29.7721 12.8851H29.7731Z" fill="#D4E068"/>
<path d="M29.5322 18.0852C28.213 23.9833 23.4223 28.5713 17.4158 29.5897V24.9187C20.919 24.104 23.7273 21.4799 24.8019 18.0852H29.5322Z" fill="#D4E068"/>
<path d="M12.2162 24.7683V29.5651C6.27715 28.4977 1.55092 23.9362 0.241943 18.0852H5.40212C6.41839 21.2937 8.9821 23.8134 12.2162 24.7683Z" fill="#D4E068"/>
<path d="M17.4157 29.5887V34.7662H12.2156V29.5662C13.0824 29.7115 13.9759 29.7872 14.8878 29.7872C15.7495 29.7872 16.5949 29.7197 17.4167 29.5897L17.4157 29.5887Z" fill="#D4E068"/>
<path d="M17.4157 12.8851H12.2156V18.0852H17.4157V12.8851Z" fill="#D4E068"/>
</g>
<defs>
<clipPath id="clip0_17_4112">
<rect width="131" height="34.7662" fill="white"/>
</clipPath>
</defs>
</svg>
