<svg width="30" height="35" viewBox="0 0 30 35" fill="none" xmlns="http://www.w3.org/2000/svg">
<path d="M12.2157 0.0245361V5.25123C8.66749 6.29821 5.92673 9.22933 5.15096 12.8851H0C0.825914 6.38008 5.8162 1.17386 12.2157 0.0245361Z" fill="#D4E068"/>
<path d="M29.773 12.8851H25.0519C24.2342 9.03491 21.2386 5.99018 17.414 5.10081V0C23.8811 1.09713 28.94 6.33201 29.772 12.8851H29.773Z" fill="#D4E068"/>
<path d="M29.5321 18.0852C28.2129 23.9833 23.4222 28.5713 17.4156 29.5897V24.9187C20.9189 24.104 23.7272 21.4799 24.8018 18.0852H29.5321Z" fill="#D4E068"/>
<path d="M12.2162 24.7683V29.5651C6.27715 28.4977 1.55092 23.9362 0.241943 18.0852H5.40212C6.41839 21.2937 8.9821 23.8134 12.2162 24.7683Z" fill="#D4E068"/>
<path d="M17.4157 29.5887V34.7662H12.2156V29.5662C13.0825 29.7115 13.9759 29.7872 14.8878 29.7872C15.7496 29.7872 16.5949 29.7197 17.4167 29.5897L17.4157 29.5887Z" fill="#D4E068"/>
<path d="M17.4157 12.8851H12.2156V18.0852H17.4157V12.8851Z" fill="#D4E068"/>
</svg>
